<?xml version="1.0" encoding="utf-8"?>
<!-- Generator: Adobe Illustrator 28.0.0, SVG Export Plug-In . SVG Version: 6.00 Build 0)  -->
<svg version="1.1" id="Layer_1" xmlns="http://www.w3.org/2000/svg" xmlns:xlink="http://www.w3.org/1999/xlink" x="0px" y="0px"
	 viewBox="0 0 1024 1024" style="enable-background:new 0 0 1024 1024;" xml:space="preserve">
<style type="text/css">
	.st0{fill:#E6BB59;}
</style>
<path class="st0" d="M1024,116.4C1024,51.2,972.8,0,907.6,0c-55.9,0-102.4,41.9-111.7,93.1H181.5c-9.3-27.9-32.6-46.5-65.2-46.5
	c-37.2,0-69.8,32.6-69.8,69.8c0,32.6,18.6,55.9,46.5,65.2v609.7C41.9,800.6,0,847.1,0,903c0,69.8,51.2,121,116.4,121
	c55.9,0,102.4-41.9,111.7-93.1h567.9c14,27.9,46.5,46.5,79.1,46.5c51.2,0,93.1-41.9,93.1-93.1c0-32.6-18.6-65.2-46.5-79.1V228.1
	C982.1,218.8,1024,172.2,1024,116.4L1024,116.4z M139.6,795.9v-18.6l633-637.7h18.6c4.7,27.9,23.3,51.2,41.9,69.8L209.5,837.8
	C190.8,814.5,167.6,800.6,139.6,795.9L139.6,795.9z M181.5,139.6h130.3L139.6,311.9V181.5C158.3,176.9,176.9,158.3,181.5,139.6
	L181.5,139.6z M139.6,512V377L377,139.6h135L139.6,512L139.6,512z M577.2,139.6h130.3L139.6,707.5V577.2L577.2,139.6L577.2,139.6z
	 M228.1,884.4l651.6-656.3h4.7v125.7l-526,530.6H228.1z M423.6,884.4l460.8-460.8v130.3L553.9,884.4H423.6z M791.3,884.4H619.1
	l265.3-265.3v172.2C833.2,791.3,791.3,833.2,791.3,884.4z"/>
</svg>
