<?xml version="1.0" encoding="utf-8"?>
<!-- Generator: Adobe Illustrator 28.0.0, SVG Export Plug-In . SVG Version: 6.00 Build 0)  -->
<svg version="1.1" id="Layer_1" xmlns="http://www.w3.org/2000/svg" xmlns:xlink="http://www.w3.org/1999/xlink" x="0px" y="0px"
	 viewBox="0 0 800 800" style="enable-background:new 0 0 800 800;" xml:space="preserve">
<style type="text/css">
	.st0{fill:#E6BB59;}
</style>
<g>
	<path class="st0" d="M747.6,118.1H52.4C23.5,118.1,0,141.6,0,170.5V439c0,7.3,5.9,13.2,13.2,13.2h773.6c7.3,0,13.2-5.9,13.2-13.2
		V170.5C800,141.6,776.5,118.1,747.6,118.1L747.6,118.1z M57.1,144.5h685.7v16.7c0,8.7-7.1,15.8-15.8,15.8H72.9
		c-8.7,0-15.8-7.1-15.8-15.8L57.1,144.5L57.1,144.5z M742.9,359.9H57.1v-1.8c0-8.7,7.1-15.8,15.8-15.8h654.1
		c8.7,0,15.8,7.1,15.8,15.8L742.9,359.9L742.9,359.9z M57.1,377.4h685.7V395H57.1V377.4z M57.1,412.6h685.7v13.2H57.1V412.6z
		 M773.6,425.8h-13.2v-67.7c0-18.4-15-33.4-33.4-33.4H72.9c-18.4,0-33.4,15-33.4,33.4v67.7H26.4V170.5c0-9.7,5.3-18.1,13.2-22.6
		v13.3c0,18.4,15,33.4,33.4,33.4h654.1c18.4,0,33.4-15,33.4-33.4v-13.3c7.9,4.5,13.2,12.9,13.2,22.6V425.8z"/>
	<path class="st0" d="M440.4,289.5h-80.9c-4.9,0-8.8,3.9-8.8,8.8c0,4.9,3.9,8.8,8.8,8.8h80.9c4.9,0,8.8-3.9,8.8-8.8
		C449.2,293.5,445.3,289.5,440.4,289.5z"/>
	<path class="st0" d="M705.9,289.5c-2.3,0-4.6,0.9-6.2,2.6s-2.6,3.9-2.6,6.2s0.9,4.6,2.6,6.2c1.6,1.7,3.9,2.6,6.2,2.6
		c2.3,0,4.6-0.9,6.2-2.6c1.6-1.6,2.6-3.9,2.6-6.2c0-2.3-0.9-4.6-2.6-6.2C710.5,290.5,708.2,289.5,705.9,289.5z"/>
	<path class="st0" d="M665.5,289.5c-2.3,0-4.6,0.9-6.2,2.6s-2.6,3.9-2.6,6.2s0.9,4.6,2.6,6.2s3.9,2.6,6.2,2.6c2.3,0,4.6-0.9,6.2-2.6
		s2.6-3.9,2.6-6.2c0-2.3-0.9-4.6-2.6-6.2S667.8,289.5,665.5,289.5z"/>
	<path class="st0" d="M327.6,509.8c2.4-4.2,0.9-9.6-3.4-12c-4.2-2.4-9.6-0.9-12,3.4c-16,28.5-16,63.9,0,92.4c13,23.2,13,52,0,75.2
		c-2.4,4.2-0.9,9.6,3.4,12c1.4,0.8,2.8,1.1,4.3,1.1c3.1,0,6.1-1.6,7.7-4.5c16-28.5,16-63.9,0-92.4
		C314.6,561.8,314.6,533,327.6,509.8L327.6,509.8z"/>
	<path class="st0" d="M407.7,509.8c2.4-4.2,0.9-9.6-3.4-12c-4.2-2.4-9.6-0.9-12,3.4c-16,28.5-16,63.9,0,92.4c13,23.2,13,52,0,75.2
		c-2.4,4.2-0.9,9.6,3.4,12c1.4,0.8,2.8,1.1,4.3,1.1c3.1,0,6.1-1.6,7.7-4.5c16-28.5,16-63.9,0-92.4
		C394.7,561.8,394.7,533,407.7,509.8L407.7,509.8z"/>
	<path class="st0" d="M487.7,509.8c2.4-4.2,0.9-9.6-3.4-12c-4.2-2.4-9.6-0.9-12,3.4c-16,28.5-16,63.9,0,92.4c13,23.2,13,52,0,75.2
		c-2.4,4.2-0.9,9.6,3.4,12c1.4,0.8,2.8,1.1,4.3,1.1c3.1,0,6.1-1.6,7.7-4.5c16-28.5,16-63.9,0-92.4
		C474.7,561.8,474.7,533,487.7,509.8L487.7,509.8z"/>
</g>
</svg>
