<?xml version="1.0" encoding="utf-8"?>
<!-- Generator: Adobe Illustrator 28.0.0, SVG Export Plug-In . SVG Version: 6.00 Build 0)  -->
<svg version="1.1"
	 id="Layer_1" shape-rendering="geometricPrecision" text-rendering="geometricPrecision" image-rendering="optimizeQuality"
	 xmlns="http://www.w3.org/2000/svg" xmlns:xlink="http://www.w3.org/1999/xlink" x="0px" y="0px" viewBox="0 0 512 301.6"
	 style="enable-background:new 0 0 512 301.6;" xml:space="preserve">
<style type="text/css">
	.st0{fill:#E6BB59;}
</style>
<path class="st0" d="M65.1,107.5L253.5,1.1c2.7-1.5,6.1-1.5,8.8,0l188.3,107.3c4.3,2.4,5.8,7.9,3.4,12.2c-0.8,1.3-1.8,2.4-3.1,3.2
	L264.6,237.4c-3,1.8-6.6,1.7-9.4-0.1l-190.8-114c-4.2-2.6-5.6-8.1-3.1-12.3C62.2,109.5,63.5,108.3,65.1,107.5z M318.9,283.9
	c4.8,1.3,7.7,6.2,6.4,11c-1.3,4.8-6.2,7.7-11,6.4l-30.3-8c-4.8-1.3-7.7-6.2-6.4-11l8.1-30.8c1.3-4.8,6.2-7.7,11-6.4
	c4.8,1.3,7.7,6.2,6.4,11l-2.8,10.6l179.4-103.5l-9.9-2.6c-4.8-1.3-7.6-6.2-6.4-11c1.3-4.8,6.2-7.7,11-6.4l30.8,8.3
	c4.8,1.3,7.7,6.2,6.4,11l-8.1,30.2c-1.3,4.8-6.2,7.6-11,6.4s-7.6-6.2-6.4-11l2.5-9.3L310.3,281.6L318.9,283.9L318.9,283.9z
	 M203.8,301.3c-5,0.4-9.3-3.3-9.7-8.2c-0.4-5,3.3-9.3,8.2-9.7l9.1-0.8L23.4,170.2l2.4,8.8c1.3,4.8-1.6,9.7-6.4,11
	c-4.8,1.3-9.7-1.6-11-6.4l-8.1-30.2c-1.3-4.8,1.6-9.7,6.4-11l30.8-8.3c4.8-1.3,9.7,1.6,11,6.4c1.3,4.8-1.6,9.7-6.4,11l-10.3,2.8
	l191.6,114.5l-0.9-10.2c-0.4-4.9,3.3-9.3,8.2-9.7c4.9-0.4,9.3,3.3,9.7,8.2l2.7,31.8c0.4,5-3.3,9.3-8.2,9.7L203.8,301.3L203.8,301.3z
	 M257.9,19.3l-171,96.5l173,103.4l168.6-102.7L257.9,19.3z"/>
</svg>
