<?xml version="1.0" encoding="utf-8"?>
<!-- Generator: Adobe Illustrator 28.0.0, SVG Export Plug-In . SVG Version: 6.00 Build 0)  -->
<svg version="1.1" id="Layer_1" xmlns="http://www.w3.org/2000/svg" xmlns:xlink="http://www.w3.org/1999/xlink" x="0px" y="0px"
	 viewBox="0 0 800 800" style="enable-background:new 0 0 800 800;" xml:space="preserve">
<style type="text/css">
	.st0{fill:#E6BB59;}
</style>
<g transform="translate(1 1)">
	<g>
		<g>
			<path class="st0" d="M759,425.7h-13.3v-280c0-66.7-53.3-120-120-120c-59,0-101.5,43.8-106.2,107.9c-31,5.9-53.8,32.5-53.8,65.5
				c0,8,5.3,13.3,13.3,13.3h106.7c8,0,13.3-5.3,13.3-13.3c0-32.6-22.3-59-52.8-65.3c4-42.4,29.4-81.4,79.4-81.4
				c52,0,93.3,41.3,93.3,93.3v280H317.7c-6-30.8-32.6-53.3-65.4-53.3c-13.3-16-32-26.7-53.3-26.7c-25.3,0-48,14.7-58.7,36
				c-10.7-5.3-22.7-9.3-34.7-9.3c-32.8,0-59.3,22.6-65.4,53.3H39c-22.7,0-40,17.3-40,40c0,22.7,17.3,40,40,40h16l36,142.7
				c10.7,41.3,48,70.7,90.7,70.7h10.7L175,753.7c-4,6.7-1.3,14.7,5.3,17.3c1.3,1.3,4,1.3,5.3,1.3c5.3,0,9.3-2.7,12-6.7L221,719h370
				l22.7,45.3c2.7,5.3,6.7,8,12,8c2.7,0,4,0,5.3-2.7c5.3-2.7,8-10.7,5.3-17.3l-16.7-33.4c41.3-1.5,77-30.3,87.4-69.3l36.3-144H759
				c22.7,0,40-17.3,40-40C799,443,781.7,425.7,759,425.7z M571,185.7h-76c5.3-16,21.3-26.7,38.7-26.7C551,159,565.7,169.7,571,185.7
				z M105.7,399c12,0,22.7,5.3,32,14.7c2.7,4,8,5.3,13.3,4c5.3-1.3,8-5.3,9.3-10.7c4-20,20-34.7,40-34.7c14.7,0,28,6.7,34.7,20
				c2.7,5.3,9.3,8,14.7,6.7c1.3,0,2.7,0,4,0c17.3,0,32,10.7,37.3,26.7H68.3C73.7,409.7,88.3,399,105.7,399z M683,641.7
				c-8,29.3-34.7,50.7-65.3,50.7H183c-30.7,0-57.3-21.3-65.3-50.7L83,505.7h632L683,641.7z M759,479h-26.7H65.7H39
				c-8,0-13.3-5.3-13.3-13.3c0-8,5.3-13.3,13.3-13.3h13.3h253.3H759c8,0,13.3,5.3,13.3,13.3C772.3,473.7,767,479,759,479z"/>
			<path class="st0" d="M479,272.3c8,0,13.3-5.3,13.3-13.3v-6.7c0-8-5.3-13.3-13.3-13.3c-8,0-13.3,5.3-13.3,13.3v6.7
				C465.7,267,471,272.3,479,272.3z"/>
			<path class="st0" d="M479,333.7c8,0,13.3-6.7,13.3-13.3v-14.7c0-8-5.3-13.3-13.3-13.3c-8,0-13.3,5.3-13.3,13.3v14.7
				C465.7,328.3,471,333.7,479,333.7z"/>
			<path class="st0" d="M479,385.7c8,0,13.3-5.3,13.3-13.3v-6.7c0-8-5.3-13.3-13.3-13.3c-8,0-13.3,5.3-13.3,13.3v6.7
				C465.7,380.3,471,385.7,479,385.7z"/>
			<path class="st0" d="M532.3,272.3c8,0,13.3-5.3,13.3-13.3v-6.7c0-8-5.3-13.3-13.3-13.3s-13.3,5.3-13.3,13.3v6.7
				C519,267,524.3,272.3,532.3,272.3z"/>
			<path class="st0" d="M519,320.3c0,8,5.3,13.3,13.3,13.3s13.3-6.7,13.3-13.3v-14.7c0-8-5.3-13.3-13.3-13.3s-13.3,5.3-13.3,13.3
				V320.3z"/>
			<path class="st0" d="M519,372.3c0,8,5.3,13.3,13.3,13.3s13.3-5.3,13.3-13.3v-6.7c0-8-5.3-13.3-13.3-13.3s-13.3,5.3-13.3,13.3
				V372.3z"/>
			<path class="st0" d="M585.7,272.3c8,0,13.3-5.3,13.3-13.3v-6.7c0-8-5.3-13.3-13.3-13.3c-8,0-13.3,5.3-13.3,13.3v6.7
				C572.3,267,577.7,272.3,585.7,272.3z"/>
			<path class="st0" d="M572.3,320.3c0,8,5.3,13.3,13.3,13.3S599,327,599,320.3v-14.7c0-8-5.3-13.3-13.3-13.3
				c-8,0-13.3,5.3-13.3,13.3L572.3,320.3L572.3,320.3z"/>
			<path class="st0" d="M572.3,372.3c0,8,5.3,13.3,13.3,13.3s13.3-5.3,13.3-13.3v-6.7c0-8-5.3-13.3-13.3-13.3s-13.3,5.3-13.3,13.3
				V372.3z"/>
		</g>
	</g>
</g>
</svg>
