<?xml version="1.0" encoding="utf-8"?>
<!-- Generator: Adobe Illustrator 28.0.0, SVG Export Plug-In . SVG Version: 6.00 Build 0)  -->
<svg version="1.1" id="Layer_1" xmlns="http://www.w3.org/2000/svg" xmlns:xlink="http://www.w3.org/1999/xlink" x="0px" y="0px"
	 viewBox="0 0 800 800" style="enable-background:new 0 0 800 800;" xml:space="preserve">
<style type="text/css">
	.st0{fill-rule:evenodd;clip-rule:evenodd;fill:#E6BB59;}
</style>
<path class="st0" d="M611.7,388.3c15.9,15.3,41.2,14.9,56.6-1c15-15.5,15-40.1,0-55.6l-240-240c-15.6-15.6-40.9-15.6-56.6,0
	l-240,240c-15.3,15.9-14.9,41.2,1,56.6c15.5,15,40.1,15,55.6,0L400,176.6L611.7,388.3L611.7,388.3z M611.7,708.3
	c15.9,15.3,41.2,14.9,56.6-1c15-15.5,15-40.1,0-55.6l-240-240c-15.6-15.6-40.9-15.6-56.6,0l-240,240c-15.9,15.3-16.3,40.7-1,56.6
	s40.7,16.3,56.6,1c0.3-0.3,0.7-0.7,1-1L400,496.6L611.7,708.3z"/>
</svg>
