<?xml version="1.0" encoding="utf-8"?>
<!-- Generator: Adobe Illustrator 28.0.0, SVG Export Plug-In . SVG Version: 6.00 Build 0)  -->
<svg version="1.1" id="Layer_1" xmlns="http://www.w3.org/2000/svg" xmlns:xlink="http://www.w3.org/1999/xlink" x="0px" y="0px"
	 viewBox="0 0 512 512" style="enable-background:new 0 0 512 512;" xml:space="preserve">
<style type="text/css">
	.st0{fill:#E6BB59;}
</style>
<g>
	<g>
		<path class="st0" d="M422.3,21.1v-2.6C422.3,8.3,414,0,403.8,0h-21.1c-10.2,0-18.5,8.3-18.5,18.5v2.6H285v-2.6
			C285,8.3,276.7,0,266.6,0h-21.1C235.3,0,227,8.3,227,18.5v2.6h-79.2v-2.6c0-10.2-8.3-18.5-18.5-18.5h-21.1
			C98,0,89.7,8.3,89.7,18.5v2.6H0V512h512V21.1H422.3z M380,18.5c0-1.4,1.2-2.6,2.6-2.6h21.1c1.4,0,2.6,1.2,2.6,2.6v44.9H380
			L380,18.5L380,18.5z M242.8,18.5c0-1.4,1.2-2.6,2.6-2.6h21.1c1.4,0,2.6,1.2,2.6,2.6v44.9h-26.4L242.8,18.5L242.8,18.5z
			 M105.6,18.5c0-1.4,1.2-2.6,2.6-2.6h21.1c1.4,0,2.6,1.2,2.6,2.6v44.9h-26.4L105.6,18.5L105.6,18.5z M496.2,496.2H15.8V163.6h480.3
			L496.2,496.2L496.2,496.2z M496.2,147.8H15.8v-26.4h424.9v-15.8H15.8V36.9h73.9v42.2h58.1V36.9H227v42.2H285V36.9h79.2v42.2h58.1
			V36.9h73.9V147.8z"/>
	</g>
</g>
<g>
	<g>
		<path class="st0" d="M36.9,184.7v290.3h333.2l104.9-104.9V184.7H36.9z M374.8,448v-73.3H448L374.8,448z M459.2,358.9H358.9v100.3
			H52.8V200.6h406.4L459.2,358.9L459.2,358.9z"/>
	</g>
</g>
<g>
	<g>
		<polygon class="st0" points="200.6,385.3 200.6,242.8 155.7,242.8 155.7,258.6 184.7,258.6 184.7,385.3 161,385.3 161,401.2 
			224.3,401.2 224.3,385.3 		"/>
	</g>
</g>
<g>
	<g>
		<path class="st0" d="M313.1,319.3c11.7-8.1,19.5-21.6,19.5-36.9c0-24.7-20.1-44.9-44.9-44.9s-44.9,20.1-44.9,44.9
			c0,15.3,7.7,28.8,19.5,36.9c-11.7,8.1-19.5,21.6-19.5,36.9c0,24.7,20.1,44.9,44.9,44.9s44.9-20.1,44.9-44.9
			C332.5,341,324.8,327.4,313.1,319.3z M258.6,282.4c0-16,13-29,29-29s29,13,29,29s-13,29-29,29S258.6,298.4,258.6,282.4z
			 M287.7,385.3c-16,0-29-13-29-29s13-29,29-29s29,13,29,29S303.7,385.3,287.7,385.3z"/>
	</g>
</g>
<g>
	<g>
		<rect x="71.3" y="221.7" class="st0" width="21.1" height="15.8"/>
	</g>
</g>
<g>
	<g>
		<rect x="71.3" y="422.3" class="st0" width="21.1" height="15.8"/>
	</g>
</g>
<g>
	<g>
		<rect x="419.6" y="221.7" class="st0" width="21.1" height="15.8"/>
	</g>
</g>
</svg>
