<?xml version="1.0" encoding="utf-8"?>
<!-- Generator: Adobe Illustrator 28.0.0, SVG Export Plug-In . SVG Version: 6.00 Build 0)  -->
<svg version="1.1" id="Layer_1" xmlns="http://www.w3.org/2000/svg" xmlns:xlink="http://www.w3.org/1999/xlink" x="0px" y="0px"
	 viewBox="0 0 122.9 99.9" style="enable-background:new 0 0 122.9 99.9;" xml:space="preserve">
<style type="text/css">
	.st0{fill:#E6BB59;}
</style>
<g>
	<path class="st0" d="M4.2,67.4h114.3v-4.7c0-1.1-0.2-2.2-0.6-3.1c-0.4-1-1-1.9-1.8-2.7c-0.5-0.5-1-0.9-1.6-1.3
		c-0.6-0.4-1.2-0.7-1.8-1c-1.8-0.4-3.5-0.7-5.2-1.1c-1.7-0.3-3.5-0.7-5.2-1c-0.1,0-0.1,0-0.2,0c-0.9-0.2-1.7-0.3-2.6-0.4
		c-0.8-0.1-1.7-0.3-2.6-0.4h0c-6.1-0.8-12.2-1.4-18.3-1.8c-6.1-0.4-12.2-0.6-18.2-0.6c-3.6,0-7.2,0.1-10.7,0.2
		c-3.5,0.1-7.1,0.3-10.7,0.6h0c-3.3,0.3-6.7,0.7-10,1.2c-3.3,0.5-6.7,1-10,1.6L18.5,53c-0.1,0-0.1,0-0.2,0c-0.1,0-0.1,0-0.2,0
		c-1.6,0.3-3.2,0.6-4.8,0.9c-1.6,0.3-3.2,0.7-4.8,1c-0.4,0.2-0.8,0.5-1.1,0.7c-0.4,0.3-0.7,0.6-1,0.9l0,0c-0.7,0.7-1.2,1.4-1.6,2.3
		c-0.3,0.8-0.5,1.7-0.5,2.7L4.2,67.4L4.2,67.4z M14.2,0h93c1.2,0,2.4,0.2,3.4,0.7c1.1,0.5,2.1,1.1,2.9,2c0.8,0.8,1.5,1.8,1.9,2.9
		c0.4,1.1,0.7,2.2,0.7,3.4v42.7c0.5,0.3,1,0.6,1.5,1c0.5,0.4,1,0.8,1.5,1.3c1.2,1.2,2.1,2.5,2.7,4c0.6,1.4,0.9,3,0.9,4.7v6.1
		c0,0.1,0.1,0.2,0.1,0.3v0c0,0.1,0,0.2,0,0.4c0,0.1,0,0.3,0,0.4l0,0c0,0.1-0.1,0.2-0.1,0.3v27.7c0,0.6-0.2,1.1-0.6,1.5
		c-0.4,0.4-0.9,0.6-1.5,0.6h-4.3c-0.5,0-0.9-0.2-1.3-0.4s-0.6-0.7-0.7-1.1c-0.8-2.3-1.6-4.1-2.5-5.5c-0.9-1.4-1.8-2.4-2.8-3.1
		c-1.1-0.7-2.3-1.2-3.9-1.4c-1.6-0.3-3.4-0.4-5.6-0.4L19.7,88h0c-1.6,0-2.9,0.2-3.9,0.6c-1.1,0.4-1.9,1.1-2.7,1.9
		c-0.8,0.9-1.5,2.1-2.1,3.4c-0.6,1.4-1.2,2.9-1.8,4.6l0,0c-0.1,0.4-0.4,0.8-0.8,1c-0.3,0.2-0.7,0.4-1.1,0.4c0,0-0.1,0-0.1,0h-5
		c-0.6,0-1.1-0.2-1.5-0.6C0.2,98.9,0,98.4,0,97.8V61.5c0-1.6,0.3-3,0.8-4.3c0.6-1.4,1.4-2.6,2.5-3.7c0.3-0.3,0.6-0.6,1-0.9
		c0.3-0.2,0.6-0.5,0.9-0.7V8.9c0-1.2,0.2-2.4,0.7-3.4c0.5-1.1,1.1-2.1,2-2.9s1.8-1.5,2.9-1.9C11.8,0.2,13,0,14.2,0L14.2,0z
		 M107.2,4.2h-93c-0.6,0-1.3,0.1-1.8,0.4c-0.6,0.2-1.1,0.6-1.6,1C10.4,6,10,6.5,9.8,7.1C9.6,7.7,9.4,8.2,9.4,8.9V50
		c0.3-0.1,0.6-0.2,0.9-0.3c0.5-0.1,1-0.2,1.5-0.3c0.7-0.1,1.4-0.2,2.2-0.4c0.6-0.1,1.2-0.2,1.9-0.3V38.2c0-1.6,0.3-3.1,0.9-4.5
		c0.6-1.4,1.5-2.7,2.5-3.8s2.4-2,3.8-2.5c1.4-0.6,2.9-0.9,4.5-0.9h19.8c1.6,0,3.1,0.3,4.5,0.9c1.4,0.6,2.7,1.5,3.8,2.5
		s2,2.4,2.5,3.8c0.6,1.4,0.9,2.9,0.9,4.5v6.7c0.7,0,1.4,0,2.1,0v-6.7c0-1.6,0.3-3.1,0.9-4.5c0.6-1.4,1.5-2.7,2.6-3.8s2.4-2,3.8-2.5
		c1.4-0.6,2.9-0.9,4.5-0.9h19.8c1.6,0,3.1,0.3,4.5,0.9c1.4,0.6,2.7,1.5,3.8,2.5c1.1,1.1,1.9,2.4,2.6,3.8c0.6,1.4,0.9,2.9,0.9,4.5
		v10.3c0.8,0.1,1.6,0.2,2.4,0.4c0.9,0.2,1.9,0.3,2.7,0.5c0.4,0.1,0.9,0.2,1.4,0.3c0.3,0.1,0.6,0.1,0.8,0.2V9c0-0.6-0.1-1.2-0.4-1.8
		c-0.2-0.6-0.6-1.1-1-1.5c-0.4-0.4-1-0.8-1.5-1C108.4,4.3,107.8,4.2,107.2,4.2L107.2,4.2z M43.2,45.6c2-0.2,4-0.3,6.1-0.4
		c1.9-0.1,3.8-0.2,5.7-0.2v-6.8c0-1-0.2-2-0.6-2.9c-0.4-0.9-0.9-1.7-1.6-2.4c-0.7-0.7-1.5-1.2-2.4-1.6c-0.9-0.4-1.8-0.6-2.9-0.6
		H27.7c-1,0-2,0.2-2.9,0.6c-0.9,0.4-1.7,0.9-2.4,1.6c-0.7,0.7-1.2,1.5-1.6,2.4c-0.4,0.9-0.6,1.8-0.6,2.9V48c1.6-0.2,3.3-0.5,4.9-0.7
		c1.8-0.2,3.6-0.4,5.4-0.6c0.7-0.1,1.4-0.2,2.2-0.2c0.7-0.1,1.5-0.2,2.3-0.2c1.4-0.1,2.7-0.2,4-0.4C40.4,45.8,41.8,45.7,43.2,45.6
		L43.2,45.6z M65.5,44.9c1.2,0,2.4,0,3.6,0.1c1.3,0,2.7,0.1,4,0.2h0c2.2,0.1,4.3,0.2,6.4,0.3s4.1,0.3,6.1,0.4
		c2.8,0.2,5.6,0.5,8.1,0.9c2.3,0.3,4.5,0.7,6.6,1.1v-9.7c0-1-0.2-2-0.6-2.9c-0.4-0.9-0.9-1.7-1.6-2.4c-0.7-0.7-1.5-1.2-2.4-1.6
		c-0.9-0.4-1.8-0.6-2.9-0.6H73.1c-1,0-2,0.2-2.9,0.6c-0.9,0.4-1.7,0.9-2.4,1.6c-0.7,0.7-1.2,1.5-1.6,2.4c-0.4,0.9-0.6,1.8-0.6,2.9
		V44.9L65.5,44.9z M118.5,71.6H4.2v24.1h1.4c0.6-1.6,1.1-3.1,1.8-4.4c0.7-1.4,1.5-2.6,2.4-3.7c1.1-1.3,2.5-2.3,4.1-2.9
		c1.6-0.7,3.5-1,5.8-0.9l79.7-0.1c2.6,0,4.8,0.1,6.7,0.5c1.9,0.4,3.6,1,5.1,2c1.4,0.9,2.6,2.2,3.7,3.8c1,1.5,1.9,3.4,2.8,5.8h0.8
		L118.5,71.6L118.5,71.6z"/>
</g>
</svg>
