<?xml version="1.0" encoding="UTF-8"?>
<svg id="Layer_1" data-name="Layer 1" xmlns="http://www.w3.org/2000/svg" width="600.01" height="616.62" viewBox="0 0 600.01 616.62">
  <defs>
    <style>
      .cls-1 {
        fill: #e6bb59;
        stroke-width: 0px;
      }
    </style>
  </defs>
  <path class="cls-1" d="m211,175.51c7.6-14,15.4-27.8,23.8-41.2,2.8,4.6,5.8,9,10.8,11.7,2.8,1.6,5.8,2.5,8.5,4.1,11.1,6.5,21.8,13.6,33,19.9,1.9,1,3.9,1.8,6,2.4,6,2.4,7.2,5.4,4.3,11.3-.3.6-.7,1.1-.5,1.8-5.4,10.7-11.5,20.9-17.8,31-3.6-2.1-3.4-7.4.4-10,.4-.2.9-.2.7-.9-.3-.4-.9-.5-1.3-.2-5.6,2.7-7.7,2.3-11.7-1.9-3.7-3.8-7.4-7-13.5-6.4-3.5.4-6.4-3-8.6-5.4-2-2.3-4.8-3.9-7.8-4.5-1.4-.4-2.8-1-4.2-1.7-3.1-1.3-5-3-1.1-5.7-1.2-.5-2.6-.5-3.8,0-1,.3-2.1,1-2.9.5-4.5-2.6-9-4.9-14.4-4.5l.1-.3Z"/>
  <path class="cls-1" d="m187.9,215.41c3.6-7.2,7.7-14.1,12.1-20.8,3.6-2.3,6.6-3.1,8,2.4.4,1.7,2.5,2.5,3.8,3.8,1.5,1.5.2,3.6,1.3,5,1.6.6,2-.9,3-1.4,2.8-1.3,5.8-1.8,7.7.9,3.3,5,8.7,6.3,13.6,8.6,2.7,1.3,5.6,2,7.8,4.2,5.5,5.8,12.6,9.7,20.5,11.2,4.5.9,4.7,1.9,1.8,5.3-.9,1.1-1.3,1.8-.5,3-5.8,11-12,21.8-18.7,32.2-3.5-6.1-9.9-9-15.4-12.5-5.9-3.9-12-7.3-18.4-10.4-7.8-3.5-14.1-9-21.6-12.8-7-3.6-10-8.4-5.5-16.4.4-.7.1-1.6.5-2.3Z"/>
  <path class="cls-1" d="m145.9,288.31c5.8-11.2,12.2-22,18.8-32.8,2.7-1.8,6.8-.3,8.9-3.9.3-.5,1.8.4,2.5,1.1,1.6,1.2,2.9,2.8,3.7,4.7,1.4,4,3.7,5.3,8,4.3,5.1-1.2,7.8,3.8,11.8,5.6.8.4.6,1.5.3,2.3-1.1,2.8.7,4,2.8,4.9,4.3,1.8,8.1,5.3,12.1,6.6,5.2,1.7,9.2,7.6,16.1,5,3.5-1.3,5.7,1.5,5,5.5-7.7,13.3-15.3,26.7-23,40-3.4-.6-3.6-2.4-1.8-5,.9-1.3,2.6-2.1,3.2-4.2-4.1-.3-7.9-2.5-10.2-5.9-1.1-1.5-2.9-1.3-4.6-1.1-5.8.9-9.9-1.5-12.6-6.6-1.6-2.9-4.1-5.3-7-6.9-4.8-2.7-8.9-6.6-14.8-7.7-3.1-.6-5.3-4.4-8.8-5.1-1.5-.8-1.9-6.6-4.8-1-3.5,3.5-4.2,3.5-5.6.2Z"/>
  <path class="cls-1" d="m111,348.51c6.1-11.6,12.8-22.9,19.6-34.1,1.6-1.5,2.8-1.3,4,.5,1.3,2.2,3.6,3.6,6.1,3.8,3.8.5,5.9,4,9.1,5.7,8,4.2,15.7,9.5,24.2,12.3,8.1,2.6,12.3,10,19.7,13.2,1.2.5,2.1,1.3,3.6.8,2.7-.8,2.6,1.1,2.6,2.8-4.9,9.6-10.4,18.9-16.1,28-2.2.5-3.4,1.9-4.3,3.8-.5,1.1-1,2.8-2.8,2.2-1.5-.5-2.7-1.8-1.9-3.5,1.4-2.9-.9-3.2-2.5-3.7-2.8-.9-4.9-3.5-7.2-4.1-6.2-1.6-10.2-6.5-15.6-9.2-4.3-2.2-9.4-3.4-12.3-8-1.7-2.7-5.5-2.1-7.5-4.6,1,1.1,2.3,2.2,1.4,3.8s-2.7,1.2-4,.5c-3.3-1.8-7.4-2.3-8.4-7.5-.7-3.5-4.5-2.8-7.3-1.7-.1,0-.3-.1-.4-.2s-.2-.4,0-.8Z"/>
  <path class="cls-1" d="m111,348.51c2.3-.6,4.8-.8,7.2-.4,2.5.2,2.7.7,2.2,2.9-.5,2.5,7,8.2,9.4,7.3,1.5-.6.8-1.6,0-2.2-1.3-1.1-3.4-1.5-3.3-5.2,3.8,4.5,10,3.5,12.5,8.7.6,1,1.4,1.8,2.5,2.3,6,3,13.2,4.3,16.9,10.9.5.9,1.5.2,2.2.1,1-.1,2.4-.3,2.8.2,3.5,4.1,8.4,5.6,12.9,7.9,1.7.8,2.2,2.3-.1,3.2-1.2.4-1.3.8-.7,1.6.4.5.9.9,1.5,1.1.9.1.6-1,1-1.4,1.4-1.9,1.1-6.4,5.6-3.8-1.3,2.7-2.7,5.3-4,8l-19.1,32c-3.7-2.6.6-4.4.3-7.2-3.2.9-5.8-1.2-8.3-3-6.2-4.4-13.6-7-19.5-12-.8-.6-1.7-1.1-2.7-1.4-6.1-2.3-6.8-3.4-5.6-10-3.6,4.8-6.5,3.3-10.4.8-4.4-2.8-9-5.7-14.2-7.1-1.5-.4-2.5-1.4-3.7-2.2-2.1,1.5-2.2,5.2-5.6,5.2-.1,0-.2-.2-.3-.3s-.1-.5.1-.9c5.8-10.3,11.5-20.7,17.6-30.8,1.2-1.5,1.4-3.4,2.8-4.3Z"/>
  <path class="cls-1" d="m200,353.51l-1.3-2c-5.8,4.3-6.8-4.2-11.3-4.3-3-.1-5.4-2.4-5.6-5.4-.1-1.5-2.1-1.8-3.2-2-6.4-1.3-11.9-4.9-17.7-7.6-5.1-2.4-10.8-4.8-14.7-8.3-3.7-3.2-8.5-3.1-11.6-6.6-1-1.1-.7-4.7-3.9-2.9,4.8-8.9,9.7-17.7,15.2-26.2,2.3,4.4,3.4-.9,5.1-.7l.5.5c.8,2.6,2.1,2.9,3.9.8l.6-.3c3.2-.5,5.9.5,7.7,3.4.3.5,1,1.4,1.3,1.4,7-1,10.6,5.1,15.8,7.8,3.6,1.7,6.4,4.8,7.8,8.6,1.6,3.8,5.9,5.8,9.9,4.5,3.6-1.2,6-.5,7.8,2.9,1.2,2.5,3.9,3.9,6.6,3.5,1.1-.1,2.9-1,3.2,1,.2,1.3-.6,2.3-1.8,3.3-2,1.7-5.8,3.2-1.7,6.5-3.8,7.6-7.9,15-12.6,22.1Z"/>
  <path class="cls-1" d="m477.7,285.61l22,38c-3.4,1.5-7,2.7-10.5,4.1-3,1.3-5.9,2.9-8.6,4.8-5.5,3.9-11.1,7.8-17.8,9.7-.8.2-1.9.4-2.2,1-2.7,5-8.5,5.5-12.6,8.5-2.1,1.7-4.6,2.7-7.3,2.9-4.9.2-8.6,2.2-10.4,7-1.9.7-1.5-1.3-2.4-1.9l-12-22c.6-1.4-.2-2.4-1-3.6-1.9-2.8-2.2-4.8,1.5-7.2,3.9-2.6,8.4-2.9,12.3-5,7.1-3.7,13.4-8.6,20.1-12.9,1.9-1.2,4.1-2.1,6.3-2.5,4.8-.9,8.6-4.1,12.1-7.4,1.2-1.1,2.2-2.5,3.5-3.5s4.2-1.6,1.2-4.1c-.9-.7-.5-1.9.5-2.5,1.9-1,2.9-3.2,5.3-3.4Z"/>
  <path class="cls-1" d="m396.9,145.61c5.7,9.1,11.1,18.4,16.1,28,1.1,3.1.4,6.4-2.7,6.9-5.8,1-9,5.9-13.9,8.2-3.4,1.5-6.4,3.6-8.9,6.2-.2.2-.5.6-.8.6-6.5,1.1-12,4.3-17.6,7.4-1.8,1-4.1.8-4.8,3.3-.4.8-1.1,1.3-2,1.3-5,.4-7.9,3.8-10.5,7.6-1.2,1.7-2.3,3.9-5.1,2.6-5.2-8.4-10.3-16.9-14.8-25.7,1.4-5,4-9.4,9.4-10.1,5.5-.8,9.5-4,13.3-7.2,5.4-4.5,11.4-8.9,17.3-11.2,6.6-2.5,11.6-6.6,17.3-10.1,1.1-.7,2.4-1.2,3-2.5.7-1.5,1.2-3.5,3.4-2.6s1,3,.8,4.9c.7-1.4,1.9-2.3.7-3.9-.9-1-3-2.5-.2-3.7Z"/>
  <path class="cls-1" d="m235.8,291.51c-1.4-4.7-4.3-5.8-8.5-3.6-.7.4-1.6.4-2.4.1-3.6-1.5-7.2-3.4-10.5-5.5-4.2-2.4-8.2-5.2-12.7-7.1-3.7-1.5-5.6-3.7-2.2-7.3-1.5-.7-3.2-1-4.2-2-3-3.3-6.3-4.3-10.7-2.7-2.2.8-4.1.1-4.7-2.9-.7-3.5-3.2-6-6.4-8.6-.8,7-5.6,3.1-8.8,3.6,7.4-13.6,15-27,23.2-40.1,1.6,2.1-.1,4.2-.3,6.1-.8,5.8.2,7.7,5.2,11.1,4,2.9,8.4,5.2,13,7,1.3.4,2.2,1.6,2.2,3,.1,1.1.8,2,1.9,1.9,3.5-.6,5.4,2,8.1,3.2,4.7,2.1,8.6,5.7,13.4,7.4,6.2,2.2,9.9,8.2,16.1,10.3,2.5.9,0,3,.7,4.4h0c-2.4-.1-1.9,1.3-1.5,2.7l-10.9,19Z"/>
  <path class="cls-1" d="m447,232.61c5.5,8.4,10.4,17,14.9,26q-.6,2.5-2.9,3.3c1.9.9,5-.5,5.3,2.4.2,2.3-2.1,1.4-3.3,1.7-3.6-.1-6.5,1.6-9.1,3.6-3.4,2.7-6.2,6.1-11,6.4-1,.2-1.8.9-2.3,1.7-.6.8-1.2,2-2,2.1-6.6,1.1-10.8,6.6-16.6,9-1.4.6-2.7,1.3-3.9,2.2-1.9,1.3-3.7,3.5-5.8,3.7-5.1.5-10,.1-13.5,5.4-1.5,2.3-2-2.2-3.8-2.4-4.1-6.1-7.8-12.4-11-19-.1-1.4-.3-2.7-1.9-3.2h0c-1.2-2.3.6-2.4,2.1-2.7,10.9-2.3,20.2-8.1,29.2-14.3.7-.5,1.2-1.3,2-1.4,11.8-2.6,19.2-12.5,29.6-17.5,1.8-.9,3.4-2.1,2.2-4.7-.8-1.5-.1-2.6,1.8-2.3Z"/>
  <path class="cls-1" d="m396.9,145.61c-1,3.3,2.8,4.9,2.8,8-1.5-.5-3.2-1.2-2.7,1.7-1.3-.6-1-1.8-1.4-2.7-.5-1.2,1.4-3.4-.9-3.7-2.2-.3-.7,2-1.3,3-1.6,2.5-4.5,2.5-6.6,4.2-4.1,3.2-7.1,8.4-13.8,7.4-2.4-.4-3.7,3.2-6.1,4.6-6.4,3.6-12.2,8.1-18.1,12.4-1.5,1.2-3.3,2-5.3,2.3-3.6.5-7.6.9-8.2,6-.2,1.7-3.7.7-3.5,3.3-6.1-9.5-11.7-19.4-17-29.4,2.2.3.9-3,3.1-2.9s4.2,1.1,6.4.7c1.3-.2,2.8-.3,3.7-1.2,4.6-4.6,11.2-6.1,15.8-10.7,1-1,2.4-1.1,3.6-1.6,4.6-2,9.2-3.8,12.5-7.8,1.3-1.6,3.4-1.9,5.2-2.8,3.8-2.1,8-3.3,11.5-6.4,3.2-2.9,7.4-1.8,11.1-.1,3,5.1,6.1,10.4,9.2,15.7Z"/>
  <path class="cls-1" d="m266.9,237.61c-1.2-.9-3-2.4-1.2-3.2,6.8-2.9-1.5-2.8-.7-4.4-7.8-.3-14-4.2-19.1-9.5s-12.5-5.8-18.2-9.7c-1.5-1-3.1-1.3-4-3.3-1.7-3.8-5.3-4-7.8-.7-.8,1-1.4,2.2-2.7,1.3-1.1-.8-3.2-1.6-2.1-3.3,1.9-2.8-.3-3.2-1.7-4.6s-4.5-2-3.2-5.2c0-.1-1.2-2.5-2.9-.7-.7.8-2.1,2-3.3.3,3.3-6.6,6.9-12.9,11-19,1.4,1.3,2.4-.4,3.5-.6,2.7-.5,5.2-.9,6.9,2.2,1.4,2.6,3.7,3.1,6.3,1.6.4-.3.9-.5,1.4-.6,2.4-.9,4.9,0,5.3,2.1.5,2.5-2.9.4-3.9,2.8,3.1,1.7,6.2,3.9,10.2,3.8,2-.1,3.1.1,3.5,2.3.5,3.2,4.2,2.9,5.8,5,1.9,2.5,4.1,3.3,6.7.9.3-.3,1.3-.3,1.4-.1,1.8,3.9,6.9,2.9,9,6.6,3,5.2,6.1,5.7,11.1,2.7,1-.6,2.2-2,3.3-.1.6,1-.5,2.6-2,3.3-2.2,1-2.5,6.4-.5,9.3-3.7,7-7.7,14-12.1,20.8Z"/>
  <path class="cls-1" d="m424.7,193.71c4.1,6.4,7.9,13.1,11.3,19.9,1.8,5.2,1.6,5.5-4.3,7.6-2.2.8-3.8,2.5-5.8,3.7-5.8,3.4-11.9,6.3-17.6,9.7-7.6,4.6-13.9,11.5-23.2,13.4-1,.2-2.1.5-2.6,1.4-1.8,3.8-5.2,4.2-8.7,5.5s-5.1-.2-7.1-2.2c-4.1-6.1-7.7-12.4-11-19-.4-1.5,0-3,1.5-3.1,1.8,0,2.2,1.5,1.9,3,.6-1.1,1.5-2.1,2.6-2.8,7.7-5.1,15.3-10.3,23.7-14.4,6.6-3.2,13.1-6.8,19.3-10.8,6.7-4,12.8-8.9,20-11.9Z"/>
  <path class="cls-1" d="m366.9,252.81c5,2.7,10.4.8,14.3-4,2.1-2.6,6.1-2.7,9.2-4,1.5-.6,3.6-.6,4.5-1.9,4.8-7,13.5-8.5,19.7-13.6,3.5-2.7,7.5-4.7,11.8-5.7,1.1-.3,2.1-1.1,2.6-2.1.4-.8.9-1.4,1.6-1.9q5.2-2.7,5.4-6c4.1,6.1,7.7,12.4,11,19-.8.4-1.9,1.3-1.4,1.7,4.9,3.6.5,4.4-1.7,6-7.9,5.6-16.7,10.1-23.9,16.7-.1.1-.3.2-.4.3-12.2,2.5-20.6,12.6-32.5,16-2.3.7-5.6-.7-7.2,2.3-4.7-7.4-9-15-13-22.8Z"/>
  <path class="cls-1" d="m387.7,129.71c-.8-.3-.9,4.2-2.3.3-.4-1.2-8.3-.6-8.6.7-1,4.9-6,3.2-8.7,5.6-2.5,2.3-6.5,2.4-9.1,5.8-2,2.6-6.1,3.5-9.3,5.2-2.7,1.4-6.3,1.4-7.2,5.2-.2.5-.7.8-1.2.8-5.3-.5-7.9,3.9-11.5,6.5-4.2,3-8.3,2-12.8,1.2l3.3,2.2-5.5-.5c-1.2-.7-1.2-2.6-2.7-2.9-.8-1-.5-2.1-.5-3.2.2-4.4-.3-8.9.3-13.3.6-1.7.7-3.6,1.3-5.3,1.5-1.5,1.1-4.2,3.2-5.3,1.9.9,1.4,2.5,1.6,4,.1-1.8.9-3.3,2.5-3.6,5.7-1.3,9.5-5.8,14.4-8.4,3.2-1.7,6-4.2,10-4.2,1.9,0,3.4-1.3,4.7-2.6,6.5-6.4,15.1-9.7,22.3-15.2l15.8,27Z"/>
  <path class="cls-1" d="m296.8,185.61c-.8-.7-.2-1.4-.2-2.2.7-6.9,2.9-6.9-5-10.1-6.8-2.8-13-6.9-19.4-10.6-8.1-4.7-15.7-10.3-24.3-14.2-6-2.7-12.5-6.1-13.2-14.2,2.6-5.5,5.6-10.8,9.1-15.8,2.1-.6,4.4-.1,6.2,1.3,9,6.8,20,10.4,28.2,18.4,2.3,2.3,6.2,1.4,9.2,3.2,4,2.4,7.6,5.3,11.6,7.7,2,1.1,3.6,2.3,5.9,1.6,1.6-.5,3,.2,2.8,1.8-.4,3.6,2.1,6.1,3,9.2-4.1,8.1-8.8,16.1-13.9,23.9Z"/>
  <path class="cls-1" d="m424.7,193.71c-3.3,2.7-6.3,6.3-10.1,7.9-6,2.4-10.3,7.5-16,9.6-7.1,2.7-12.2,9.5-20.4,9.5-.3,0-.9,0-1,.2-3.7,7.5-13.5,7.1-17.7,14.1l-2.1-4.1-1.6,3c-3.5-5.1-6.6-10.5-9.3-16.1,2.7.1,3.5-2.3,4.7-4,2.6-3.8,5.2-7.4,10.5-7.2.3,0,.7,0,1-.1.2-7.1,7.9-3,10.6-7.1,1.8-2.7,5.7-4,9.4-3.7,4.5.4,6.2-4,9.2-5.9,3.8-2.4,9.3-3,11.2-8.3.2-.5,1.8-.8,2.7-.8,4.8.1,6.7-2.7,7.2-7l11.7,20Z"/>
  <path class="cls-1" d="m310.9,161.61c-3.8-2.3-4.8-5.8-3.7-10.6-6.9,4.3-9.8-2.2-13.9-4.4s-7.7-5.9-12.9-6c-1.3,0-2.5,0-3.5-1.3-5.5-7.1-14-9.9-21.3-14.4-3.7-2.3-7-5.8-11.7-6.4,4.2-8.3,8.8-16.3,13.9-24.1.7.1,1.5.4,1.6,1,1,6.1,6.3,7.6,10.7,9.9,4.1,2,6.6,6,10.7,8,.9.5,1.5,1.4,1.6,2.4.5,4.2,2.8,5.7,6.8,4.6.8-.3,1.7-.2,2.4.2,8.4,5.1,19.4,7.4,21.2,19.6-.5,5.9-.9,11.8,0,17.7l-.9,2.1-1,1.7Z"/>
  <path class="cls-1" d="m477.7,285.61c-1.3,2.1-3.2,3.8-5.4,4.9.5,2,3.2,1.5,4,3.7-6.8,1.7-9.7,8.6-15.8,11.8-3,1.5-5.9,1-8.3,2.2-3.7,1.8-6.6,5-10.2,6.9-6.3,3.4-11.2,9.5-19.3,9.7-3.2.1-4.7,4.1-8.1,4.5-.9.1.1,1.3.1,2.1.2,2.8,3.1,3.7,3.9,6-.9,1.4-2-1.5-2.8.3-5-7.8-9.6-15.9-13.9-24.2q.9-3.3,6.4-2.1c5.5-1.5,9.9-4.8,14.2-8.2,1.3-1,2.3-2.5,4.1-2.8,9.1-1.5,16.1-6.9,23.2-12.2,3.8-2.8,7.9-5.4,11.8-8.2,3.4-2.1,7.4-3,11.4-2.5l4.7,8.1Z"/>
  <path class="cls-1" d="m408,311.51c-1.6,1.9-5.2-2.1-6,2-3.4-5-6.5-10.3-9.1-15.8,2.2-2.5,1.7,4.5,4.3,1.2,1.3-1.7,2.9-2.9,2.4-5.5-.2-1,1.8-1.1,2.5-.6,6,4.2,9.4-1.6,14.1-3,6.7-2,9.8-10,17.6-9.3.2,0,.3,0,.5-.1,3.8-6.4,12.4-5.7,16.7-11.4,1.2-1.6,2.6-3.5,5.3-2.7.8.2.9-.2,0-2.9,1.8,0,2.7,3,4.7,1.3,1.7,1.6,4.5,2.1,5.3,4.7-.1.7-.2,1.3-.4,2-.4,1.2.1,3.4-1.5,3.3-6-.4-10.5,3.6-15.6,5.5-6.4,2.3-12.1,6.2-16.8,11.1-1.9,2.1-4.1,3.9-7,4.5-2,.5-3.5,1.8-5.1,2.9-3.6,2.6-6.8,5.9-11.6,6.2-1.3.1-2.9.3-3.3,1.7-.7,2,1.5,1.7,2.4,2.4s1.3,1.5.6,2.5Z"/>
  <path class="cls-1" d="m515.3,607.41c0-13.4-.2-26.8-.1-40.3.1-3.9-.9-5.3-4.9-4.9s-8.3-.1-12.4.1-5.2-1.2-3.9-4.9h0c9.7-.7,19.3-.7,29-.1h1c5-.6,10-.6,15,0h1c2.2,0,2.8,1.2,2.5,3.2s-1.7,1.7-3,1.7c-4.6,0-9.3.2-13.9-.1-3.8-.2-5.1.8-5,4.8.3,14.2.2,28.5.1,42.8,0,1.6.5,3.3-.5,4.8-.5-.3-1-.8-1.2-1.4-1.4-8.3-.1-16.7-.4-25.1-.1-2.5,0-4.9-.1-7.4-.6-4.8,1.1-9.4,1.1-14.2-.4.7-.1,1.4-.1,2-.1,1.5.3,3.6-1.6,3.6-2.4.1-1-2.2-1.3-3.4-.2-1.1-.2-2.3.1-3.5,0-.7-1.1-.1-.5-.1q.1,0,.1.2c.4,7.4,1.8,14.7,1.1,22.1-.5,6.3.9,12.7-.7,19-.2.8-.8,1.2-1.4,1.1Z"/>
  <path class="cls-1" d="m200.2,558.41c1.1,10.2.2,20.5.4,30.8.1,6,.2,12-.1,18-.1,2.8.7,3.7,3.5,3.6,9-.2,18-.1,26.9,0,1.8,0,4.8-1.3,4.7,2.5,0,3.5-2.8,2.1-4.4,2.1-10.6.1-21.3,0-31.9.1-3,0-4.4-.5-4.4-4,.2-16.8,0-33.6,0-50.4,0-1.6-.6-3.5,2-3.8h1c.8.4,1.9-.1,2.3,1.1-1.7,1.4-3.4,2.8-2.7,5.4.3,10.1-.1,20.2-1.1,30.3.1-2.6,0-5.3.3-7.9,0-.9.8-1.6,1.7-1.6,1.1,0,1.1,1,1.1,1.8v11.5c1-8-1.5-16.7-1-25.6.8-4.7-1.3-9.6,1.7-13.9Z"/>
  <path class="cls-1" d="m352,374.41c-10.1-.1-20.2-.2-30.3-.3-1.6,0-3.3.6-4.8-.5-.8-8-.2-16.1-.3-24.1,0-.6.5-1.1,1.1-1.1h0c1.2.6,1.4,1.8,1.6,3,.2,1.9,0,3.8.1,5.7-.5,3.9,1.5,5,5,6.8,8.7,4.6,18.6,2.9,27.2,6.8,2.4,1.3,5.5.4,6.8-2,0,0,0-.1.1-.1.4-.3,1-.3,1.4,0-.1,2,1.2,4.3-1.2,5.8-2.2-.4-4.5-.5-6.7,0Z"/>
  <path class="cls-1" d="m.2,589.41c-.1-9.6,0-19.2-.2-28.8,0-2.4.8-3.3,3.1-3.3h1c7.2.7,14.6-.7,21.7,1,3.8.9,7.8,1.5,10.2,5.1-.6,2.3-2.2,3.3-4.5,3.3-8.1-3.8-16.5-3.7-25-2.1-2.1,2.5-.7,5.5-1.1,8.2,0,1.3-.1,2.6-.4,3.9-.3.8-.7,1.7-1.7,1.5-.7-.1-1-.8-1.1-1.5-.3-1.4-.1-2.8-.8-4.7,0-.1-.6,1.1-.1.6.2-.2.3-.1.4.3.7,3.9.9,7.9.7,11.9-.1,1.9.4,4.1-2.2,4.6Z"/>
  <path class="cls-1" d="m66.7,581.51c4.2,1.8,8.7.5,13.1.8,5.4.3,10.8.2,16.2.3v3.8l-28.7.2c-1.7,5-.3,10.1-.8,15.1-.1,1.3.3,3.7-.6,3.6-3.2-.3-1.5,1.6-1.5,2.7-.1,1.6,0,3.3-2.7,5.3-.1-9.5,0-18.3,0-27,.4-1.8.6-3.7.5-5.6-.1-1.6,0-3.2.3-4.8.4-1,1.4-1.6,2.4-1.6,2.1,1.6.8,4,1.3,6,.1.4.3.8.5,1.2Z"/>
  <path class="cls-1" d="m66,581.41c-1.9-2.1-.6-4.6-1-6.9-1.8-2.1-.5-4.7-1-6.7-.2,2.4.7,5.2-1,7.7v5c-.4.3-.9.2-1.2-.2-.1-.1-.1-.2-.2-.4.1-7.4-.6-14.7.3-22.1l1.1-.5,1,.4c10.6.6,21.2.1,31.8.3h3.5c1.5,0,3.2-.1,3,2.2-.1,2-1.6,1.8-2.9,1.8h-13.9c-5.2,0-10.3.1-15.4,0-2.8-.1-3.7.8-3.7,3.7.1,5.2.7,10.5-.4,15.7Z"/>
  <path class="cls-1" d="m66,581.41c0-5.3.1-10.6,0-15.9-.1-3,1-4.1,4-4,9.3.2,18.6.1,27.9,0,1.3,0,3.6.7,3.7-1.3.1-2.5-2.4-1.6-3.8-1.6-9.6-.1-19.3,0-28.9-.1-1.6,0-3.3.5-4.8-.7l4.9-.4c9.8.1,19.6.1,29.4.2,1.7,0,4.3-1.3,4.4,2.2.1,3.9-2.9,2.5-4.7,2.5-8.8.1-17.6.2-26.4,0-3.7-.1-5.3.7-5,4.8.3,4.8,0,9.6-.1,14.4-.1,0-.4,0-.6-.1Z"/>
  <path class="cls-1" d="m455.8,563.21l2.3-5.3c.3,0,.6-.2.8-.5,5.6,1,5.4,6.6,8,10.1.3,2.3,1.9,5-1.6,6.3-2-.4-2.9-2-3.8-3.6-.7-1.3-1.4-2.6-3.3-2.5-1.6-1-2.8-2.3-2.4-4.5Z"/>
  <path class="cls-1" d="m522.9,557.41l-29,.1c2.5-1.9,5.4-1,8.1-.9,7,.2,14-1.1,20.9.8Z"/>
  <path class="cls-1" d="m538.9,557.41h-15c4.9-1.5,10.1-1.5,15,0Z"/>
  <path class="cls-1" d="m246.8,272.51c.2-2.1-3.6-.2-2.7-2.4.8-2,2.6-1.4,4.1-.3l-1.4,2.7Z"/>
  <path class="cls-1" d="m374,596.61c-.1-1.5-.2-2.9-.3-4.3,1.3,1.4,1.6,2.8.3,4.3Z"/>
  <path class="cls-1" d="m380,275.51c2.8-.2,3.1,1.1,1.9,3.2-1-.8-1.7-1.9-1.9-3.2Z"/>
  <path class="cls-1" d="m477.7,269.81c1.3.4,2.2,1.7,1.8,3.1-1.5-.5-1.8-1.6-1.8-3.1Z"/>
  <path class="cls-1" d="m169.3,613.81c.4.3,1,.5,1.1.9.2.4,0,1-.4,1.2-.2.1-.3.1-.5.1-.4-.1-.8-.5-.9-.9,0-.4.4-.8.7-1.3Z"/>
  <path class="cls-1" d="m91,383.41c3.1.3,3.2-2.6,3.9-4.3.8-1.9,1.5-2.3,3.1-1,4.4,3.4,9.5,5.4,14.5,7.5,1.3.7,2.5,1.5,3.6,2.5,2.3,1.7,4.5,4.7,6.6-.4.6-1.5,2.6-1.4,4-.5,1.4.9,1.2,1.9.2,2.9-4.3,3.9.1,5.6,2.2,6.2,6.7,2,11.6,7.1,17.8,10.1,3.7,1.7,7.3,3.9,10.6,6.4.5.4,1.2.6,1.8.7,4.3.2,4.4.2,1.7,4.6-.7,1.2-1.5,2.2-.2,3.5v1c.1,1.4-.3,2.6-1.8,3.1-1.4,2.8-4.5,4.7-4.1,8.4-1.1,3.1-3.3,5.7-4.7,8.7-.6,1.2-1.5,2.8-3.4,1.9-.8-.9-.1-2.3-2.5-2.6-6.1-.7-10.2-5.8-15.8-8.1-6.2-2.6-12.6-5.3-17.2-10.6-.5-.5-1.1-.8-1.7-1-7.9-1.7-13.7-7.2-20.7-10.7-5.2-2.6-6.5-6-5.7-11.2.4-1.6.6-3.2.8-4.8,1.9-4.5,4.3-8.5,7-12.3Z"/>
  <path class="cls-1" d="m84,395.41c.3.6.9,1.3.7,1.8-3,8.8,3.2,11.6,8.9,16,6.5,4.9,14.9,5.3,20.7,10.9,5.4,5.2,12.4,7.7,19.1,10.4,3.8,1.6,5.7,7,10.9,5.7.5-.1,2.7-.5,3.2-.9-.2,1.8-.3,3.5-.5,5.3.3.9.2,1.9-.5,2.6-.3.4-.7.6-1.2.6-.6-.2-1.2-.7-1.5-1.3-.7,1.7,1.4,2.7,1,4.3-2,5.6-5.1,10.8-9.2,15.2-5.5,3-6,2.9-9.5-2-.9-1.3-2.3-1.2-3.5-1.4-5.8-.8-11.4-2.4-16-6.3-1.4-1.2-3.2-1.8-2.2-4.7.8-2.4-1.6-3.2-3.3-1.7-2.5,2.1-5,1.8-6.7,0-4.9-4.9-12.9-5.7-16.1-12.6-.4-.8-1.3-1.1-2.1-.7h-.1c-3,1.2-5.5-.3-8.1-1.2-1.4-.5-4.5.2-2.3-3.1.2-.2-2.6-.2-1.8-2.2-.1-.3,0-.6.3-.7,1.2-1.2,3.4-1.8,2.4-4.2l.5-.8c-.4-.7,2.2.3.7-1.1,1.8-3.6,3.7-7.1,5.5-10.7,3.6-5.6,7.1-11.4,10.7-17.2Z"/>
  <path class="cls-1" d="m312,138.61c-.2-.1-.4-.1-.4-.2-2.1-9.5-11.1-11.2-17.6-15.7-1.9-1.3-4.2-3-6.5-.1-.7.8-2,.4-2-.3.2-3.4-6.3-1.4-4.4-5.6.5-1.2.6-2.1-.4-2.5-6.5-2.7-10.3-9.7-17.8-10.8-2-.3-3.3-2.7-3.2-4.6.1-2-1.4-2.9-1.9-4.4,5.2-10.2,11-20.1,17.1-29.8,2.2-.8,3.4.8,4.7,2,1.8,1.8,3.7,3.3,6.3,3.8.7.1,1.6.3,1.7.8,1.1,4.1,2.6,5.9,7.7,5.1,3.3-.5,6.1,4.6,10.3,5.2,3.2.5,4.6,2.6,5.3,5.7.9,4,1.3,8.2,1.2,12.3,0,4.5-.5,9,.9,13.4.4,6.8.1,13.6.2,20.4.2,2,.3,3.9-1.2,5.3Z"/>
  <path class="cls-1" d="m436,373.51c-2.1-3.9-4.1-7.8-6.2-11.7,1.1-5.7,3.6-7.8,9.5-8.3,3.6-.3,7.2-.7,9.1-4.6.1-.3.5-.8.6-.7,7.6,1.9,9.1-8.6,16.7-8.2,3.4.2,7.7-3.1,10.6-5.9,5.2-5.1,12.4-6.3,17.7-10.9,2.3-2,3.7,2.6,5.6.3l8.1,14c.3,2.7-1.1,4.9-2.4,7.1-.3.3-.7.6-1.2.9-6.6,2.1-12.4,6.2-18.8,8.7-1,.3-1.8.8-2.5,1.6-5.1,7.2-13.1,8.9-20.8,11.3-1.6.4-2.9,1.4-3.7,2.9,6.9.2,13.5,0,20,.1,2,0,4.1-.3,5.8.8,1.4.8,1.6,1.7-.4,2h-42.3c-1.5,0-3-.4-4.4.5l-.5.1h-.5Z"/>
  <path class="cls-1" d="m505,344.51c-.2-2.8,2-4.6,2.8-6.9l8.1,13,10.9,20c-.2,1.5-.8,2.5-2.5,2.4-13.1-.3-26.2.6-39.3-.5-1.8-1.8-4.1-.9-6.2-1-6.7-.1-13.3,0-20-.1-1.1,0-2.6.6-3.2-.7-.7-1.8,1.2-2,2.2-2.7,4.3-3.2,9.6-4.2,14.7-5.4,2.2-.6,4.2-1.9,5.6-3.8,3.1-3.9,6.9-6,11.6-7.8,3-1.2,6-3.4,9.2-4.8,1.9-.8,3.9-1.7,6.1-1.7v.3l.3-.2-.3-.1Z"/>
  <path class="cls-1" d="m314,137.61c-.2,1.7.7,3.6-1,5-1.1-3.9-.5-7.9-.4-11.8.1-9.7-.5-19.5-.5-29.2.7-2.8.2-5.8,1.3-8.5,2.2-1.9,3.4-.6,3.5,1.6.2,2.9.5,5.9.7,8.9,0-.8,0-1.5-.1-2.3-1.1-8.6-.6-7.8,6.6-12.7s16-6.5,22.7-12c1.5-1.3,3.5-2.3,5.5-1.1,1.7,1,2.2-1,3.5-.9,2.1,2.7,3.8,5.8,5,9,1,4.5,1.7,9.1,2.7,13.6.2,1.1.5,2.5-.7,3.2s-1.8-.5-2.4-1.3c-1.1-1.4-2.5-2.1-3.8-.6-3,3.7-7.4,3.4-11.2,4.8-1.1.4-2.5.1-3.3,1-5.7,6.3-14.3,8.5-20.3,14.3-1.3,1.3-2.6,3.9-4.7,2.8-1.9-1-.2-3.5-.5-4.7-2.9,6.2.2,13.9-2.6,20.9Z"/>
  <path class="cls-1" d="m314,137.61c.4-7.6-1.5-15.5,2.8-22.9.1,2,.3,4,.5,7.1,6.4-9.4,17.6-11.1,24.4-18.9,1.7-1.9,6-1.7,9.1-2.2,1.5-.1,2.8-.8,3.8-1.9,4.2-4.6,4.7-4.4,8.6,2.2-1.5-6.5-3.2-11.8-2.3-17.3,3.9,6.2,8,12.3,11.1,19-1.8,4.6-6.5,6.3-10.2,8.1-3.3,1.5-6.2,3.6-8.6,6.3-4.2,5-11.2,3.9-15.7,7.7-3.3,2.9-8.2,3.3-10.6,7.5-.3.5-1.1,1.1-1.6,1.1-4.7-.4-6.7,2.2-8,6.3-.2-2-.3-4-.5-6.2-1.5,1.1.1,4.1-2.8,4.1Z"/>
  <path class="cls-1" d="m312,111.61c-1.6-1.5-.9-3.4-1-5.2-.2-6.6.5-13.2-1.3-19.7-.6-2.2-1.3-3.5-3.6-3.7-2.3-.1-4.6-1-6.3-2.4-2.9-2.8-5.3-5.2-9.5-1.7-1.7,1.4-3.3,0-2.6-2.2,1.3-3.8-.2-4.8-3.8-5.4-3.8-.6-5.2-5.2-8.8-6.7,3.9-7.6,8.2-15.1,12.8-22.2,6.2.2,9,6.5,14.3,8.3.9.3,1.5,1.4,2.4,1.7,7.5,2.6,7.7,8.8,7.8,15.3.1,6.1-.8,12.2.9,18.3-.1,8.5-.6,17-1.3,25.6Z"/>
  <path class="cls-1" d="m355.9,74.61c-1.2,1.2,0,6.5-4.4,1.9-2-2-4.8,1.4-6.5,3-2.2,2-4.1,3.3-7.2,3.2-2.4,0-4.6,1.6-6.6,3.2-1.7,1.3-3.4,3.2-5.3,3.6-7.4,1.5-8.8,6.2-7.9,12.7.1,1.2-.1,2.3-.7,3.3-.4-3.2-.9-6.4-1.2-9.6-.2-1.5.1-3.1-2-3.3-1.8-6.3-1.3-12.9-1.4-19.3.1-2.5-.2-5.1.5-7.6.6-1.3,1.4-1.9,2.5-.4.8,1.3.5,2.9.9,4.9,5-5.3,11.7-7.6,17.5-11.4.5-.3,1.6-.1,1.5-.9-.3-5.7.5-7,3.7-1.1.8-.5,1.2-1.5,2.2-1.6-.8-1-1.4-2.3.2-2.7,1.2-.4,1.7,1.4,2.6,2,4.2,6.5,8.1,13.2,11.6,20.1Z"/>
  <path class="cls-1" d="m408,311.51c0-1.1-.8-1.9-1.8-2-1.4-.2-3.5.4-3.4-1.8.1-2.2,1.6-4.1,3.7-4.1,6.3.1,10.2-4.1,14.5-7.6.6-.5,1.3-1.3,2-1.4,4.2-.1,6.3-3.6,9.3-5.6,6.7-4.5,12.3-11,21.2-11.9,1.9-.2,3.7-2,5.4-3.2,1.1-.8,2.4-2.2,3.5-1.4,4,2.8,1.6-1.7,2.6-2.2,2.3-.4,4.1.1,4.7,2.7.4,1.5,1.5,2.3,2.7,3.2l.7,1.1c-1.7.2-3.2.9-4.5,2-.5.4-1.2,1.4-1.4,1.2-6.2-2.6-7.7,4.2-11.8,5.9-4.7,1.8-8.7,5.2-12.6,8.5-2.7,2.2-5.8,3.8-9.2,4.5-8.9,1.9-14.8,8.5-22,13-2.4,1.8-3.6,2.9-3.6-.9Z"/>
  <path class="cls-1" d="m314,64.61v8c-.8.3-1.2.1-1.4-.7-.3-20.9-.5-41.8-1-62.6-.1-2.9-.7-6,1.4-8.6,8,12.8,15.4,25.9,22.7,39-.1,2.4-1.9,3.5-3.7,3-5.3-1.3-8.5,1.9-11.7,5-1.6,1.6-3.6,1.9-5.5,3.3-.6-3.6-.2-6.7-.3-8.9-.8,4.9,1.1,10.6.8,16.3-.1,2.2.4,4.4-1.3,6.2Z"/>
  <path class="cls-1" d="m314,64.61v-25.8h1c0,2.7-.1,5.3,0,8,0,.9-.7,2.1.7,2.7.2-2.1,2.3-.3,3.5-2,2.9-3.9,6.3-8.3,12.6-5.8,1.3.5,2.9-.7,3.9-2,3.2,4.7,6,9.7,8.5,14.8l-2.6-1.3c2.7,2.4-2.6,4.1-.3,6.5-2.4-1.1-3.6-3.1-4.7-5.2-1.8,2.1,1,3.3,1,5.4-2.6-.7-4.9-.5-6.2,2.3-.5.7-1.2,1.1-2,1.2-5.5.4-8.3,4.6-11.6,8.1-.6.6-1.1,1.3-2,1.2-1.2-.2-.7-1.3-.8-2-.3-2,.8-4.3-1-6.1Z"/>
  <path class="cls-1" d="m313.1.71v72c.8,9.3.8,18.7,0,28v42l-.1,15c-2.1-6.2-.4-12.7-1-19V49.61c-1-10.2-.3-20.5-.4-30.8-.1-5.7-2.2-11.4-.3-17.2.7-1.9.9-2,1.8-.9Z"/>
  <path class="cls-1" d="m311.2,1.61c1.3,1.4.8,3.2.8,4.8v43.2c-1.6-1.5-.9-3.4-.9-5.1-.1-9.3-.1-18.7,0-28,0-3.2-2.5-4.8-4.1-7l4.2-7.9Z"/>
  <path class="cls-1" d="m466,269.51c-1.7-1.7-4-2.7-5-5l2.4.3c-.4-3-2.9-1-4.1-1.8-.9-.6-2.3-1.2-1.5-2.6.7-1.2,1.1-.2,1.9.3,1.7,1,.8-2,2.2-2.3,2.4,3,4.5,6.4,6,10-.5.9-.9,1.7-1.9,1.1Z"/>
  <path class="cls-1" d="m466,269.51l1.9-1c1.5,2.6,3,5.2,4.5,7.9-1.6-.7-3.8-.5-3.8-3.4.1-2.2-2.6-1.4-3.6-2.5l1-1Z"/>
  <path class="cls-1" d="m63.9,430.21c1.5,2.6,3.1.1,4.7.1.4,2.3-2.6,1.9-2.8,3.7,4.3,0,8.3,3.6,12.7.7.5-.3,1.4.3,1.4,1,0,5.8,4.8,6.3,8.6,8,3.1,1.4,4.3,5,7.8,5.9,1.2.3,2.5,1.5,3.5-.1.7-1.2.8-3.4,2.9-2.5,1.9.7,3.5,2,4.6,3.6,1.4,2.4-2,1.2-2.5,2.5,5.4,5.1,12.5,8,20,8.3,1.5.1,3-.1,3.3,2.1.5,3.6,2.2,4.2,5.4,2,.6-.4,1.1-.8,1.6,0,1.3,4-1.8,5.8-4,7.9-.8.2-1.6.4-2.4.5H40.3c-.6-.1-1.2-.3-1.8-.5l25.4-43.2Z"/>
  <path class="cls-1" d="m146.1,446.51l1-1.9c2.4-1.5,2.9-4.2,4.1-6.5.8-1.8,2.1-3.3,3.8-4.2,13.3-2.9,26.6-5.8,39.9-8.8,1.6-.3,3.3-.5,4.9-.7.9-.5,1.9-.5,2.9-.2,1.4.5,4,.1,3.5,2.5-.4,2-2.6,1-3.8.7-3.8-1-7.4,1.7-10.4.8,3.4,2,7.4,4.5,12.3,5.1,1.2.2,2.2.8,3,1.7,3,3.5,5.9,6.8,11,3,1.1-.8,2.9.1,4.3.8.9.4,1.8,1.1,1.6,2.3s-1.2,1-2,1.1c-1.4.2-3.2-.2-3,2.2l-44,13.1c-1.8-.9-3.5.4-5.3.3-6.5-.2-12.4-2.9-18.5-4.8-2.9-1-3.2-4.6-5.3-6.5Z"/>
  <path class="cls-1" d="m219,444.31c-.3-.8-2-.9-1-2.3,1.4-2,3.4-1.3,5.3-1.2-2.5-.5-4.4-4.3-7.6.2-1.2,1.7-6.7-.5-8.2-3.3-1.4-2.5-3.1-3.5-5.3-3.5-5.3-.2-8.5-4.5-14-6.5,6.4.1,11.6-3.9,17.4-1-1.7-1.7-3.7-2.1-5.8-2.3,12.2-3.1,24.5-5.4,37-7,1.4-.5,2.8-.8,4.4.4-1.1,2.1-3.3,1.9-5.1,2.5-1,.4-2.5.4-2.6,1.9,0,1.1,1.1,1.5,2,2.1,3.8,2.4,8.2,3.5,12.2,5.8.6.3,1.2.5,1.8.8,1,.5,2.6.8,2.4,2.1-.3,1.8-2.2.8-3.2,1.2,2.1.5,3.6-1.2,5.5-1.6,2.6-.6,5.6-2.9,7.8.8l-43,10.9Z"/>
  <path class="cls-1" d="m329,419.41l-45,9c-3-.3-3.1-3.8-5.7-5-3.4-1.7-6.9-3-10.5-4.1-1.7-.4-3.8-1.4-3.7-3.5.1-1.7,2.1-2.4,3.8-2.7,2.5-.5-1.1-.4-.1-.7,11.9-2.3,23.9-4,36-5,2-1,4.2.2,6.2-.8l1.8-.1c1.2-.7,2.6-.4,3.9-.4.5-.1,1,.2,1.2.6,1.9,3.6,1.8,3.8,5.9,5.8,2,1,2.7,3.3,4.8,3.9-2.4,2.3,2.5,1.3,1.4,3Z"/>
  <path class="cls-1" d="m329,419.41c-1.9-2-4.3-.2-6.7-.4,1.1-2.5,3.2-.9,4.5-1.8-4.6-3.5-9-7.4-15.2-8.1.8-2.5,3.1-1,4.6-2.4l-4.4-.3,9.4-1.8c.8-1,1.8-.7,2.7-.2,10.2-1,20.4-2,30.6-2.9,1.3-.1,2.6-.1,4-.1,2.2-.5,4.4-.5,6.6-.1-.7,2.4-2.6,1.3-3.5,1.8,5.8-.2,11.6-1.6,17.5-2.1,1.7-.2,4.1-1.3,4.6,1.1.3,1.7-2.1,2.2-3.6,2.8-.8.3-1.7.4-2.5.1.6.9,2.7.7,2.2,2.2-.7,1.7-2.2.5-3.2.8,1.2,1.4,4.8-1,5.3,2.5-13.6,2.3-27.2,4.7-40.7,7-4,.7-8.1,1.3-12.2,1.9Z"/>
  <path class="cls-1" d="m267.8,412.41c1.2.3,2.7-.5,3.9,1.2-2.5-.5-5.1.5-6.7,2.5,1,1.6,2.7,2.6,4.6,2.6,4.7-.3,7.4,4.1,11.6,4.7,2.9.5-.4,4.5,2.7,4.9l-22,5c-3.2-2.2-6,.3-8.9.7-2,.3-4,1.5-6.5-.3l4.9-.5c-3.5-1.7-6.4-3.7-9.6-4.5s-5.8-3.2-8.8-4.3c-1.2-.3-2-1.4-1.9-2.6.1-1.6,1.3-2.1,2.7-2.4,2.1-.4,4.1-.9,6.3-1.4-1-1-2.3-.4-3.4-.7,1.6-.8,3.4-1.2,5.2-.9,3.2.5,6.3-.8,9.2-.4-.5-.4-1.7.2-2.4-.7,6.3-1.7,12.8-2,19.1-2.9Z"/>
  <path class="cls-1" d="m382,410.51c-2-1.6-4.7-1.3-7-2.4,1.1-1.3,2.8,0,4.1-1.1l-5.9-2c3-2.9,7.7.9,9.6-3.5-7.8,1.1-15.7,3.1-23.9,1.5,1.5-1.3,3.3-.1,5.6-1.3l-5.9-.4c2.4-1,4.9-.9,7.4-.8,7.2.8,14.2-1.1,21.4-.7-2.2.1-4.4.6-6.6-.5,7.1-1.3,14.4-1.3,21.6-2,1.9-.2,4,.2,5.8-.8h0l31.4-1.2c2.8-.8,5.5-.2,8.3.3-2.2,2.7-5.2,2.1-8.1,1.8-.3,0-.7-.1-1-.2.2.4.6.1.9.2.5.1,1,.2,1.4.3,4.3,1.1,8.8,1.2,13.1.5,2.3-.4,5.3-1.4,6.7,2l-63.2,8.2c-5.2.8-10.5,1.4-15.7,2.1Z"/>
  <path class="cls-1" d="m440.2,398.41c-1.8-.3-3.5-.7-5.2-1.2l.1-.6h11.6l.1-.8-7.3-.4c.2-.2.4-.5.6-.8h0c14.3-.5,28.6-1,42.9-1.5s28.6-.9,42.9-1.3c1.4,0,3.9-.9,3.9,1.5,0,1.8-2.4,1.1-3.8,1.2-20.4,1.9-40.8,3.8-61.1,5.7-1.3.1-2.7.1-4,.1-2.8-1.6-5.8-1.1-8.6-.4-4.1,1-8.4.5-12.1-1.5,1.5-.3,3-.4,4.4-.3-1.1.1-2.9-.6-4.4.3Z"/>
  <path class="cls-1" d="m146.1,446.51c2.5,1,4.8,2.1,4.7,5.4,3.4-.4,6,3,9.3,2.3,1.8-.4,2.7-.1,3.7,1.3s1.4,2.1,3.5.3c1.3-1.1,5.1.9,7.8,1.5l-44,16.1c1-2.8,3.6-4.8,4-7.9,3.5-4.7,6.5-9.7,9-15.1.8-.9.3-2.6,1.9-3,0-.3,0-.6.1-.9Z"/>
  <path class="cls-1" d="m380.8,399.41c2,.4,4.2-.4,7.2,1-8-.5-14.9,2.8-21.9.2l3.6-.2c2.4-1,5,.2,7.3-.8l3.8-.2Z"/>
  <path class="cls-1" d="m248.8,415.41l1.9.2c-2.8,1.2-5.5,3.2-8.7.9,2.2-.8,4.5-1.2,6.8-1.1Z"/>
  <path class="cls-1" d="m66.6,425.41c2.6,2.4,2.6,2.5-2.4,4.2l2.4-4.2Z"/>
  <path class="cls-1" d="m159,425.51c.2-1.2.9-2.3,1.8-3.1,2,1.5.2,3-.3,4.2-.1.7-1.1-.4-1.5-1.1Z"/>
  <path class="cls-1" d="m67.8,423.41c1,.5,2.2-1.1,3.1.3.1.3.1.6-.1.9-1.2,1.3-2.4-.4-3.6-.2l.6-1Z"/>
  <path class="cls-1" d="m159.1,428.31l3.9,1.7c-.2.4-.4,1-.7,1.1-1.4.2-2-.8-3.2-2.8Z"/>
  <path class="cls-1" d="m408.1,396.61h-5.9c2-.9,4.1-1.9,5.9,0h0Z"/>
  <path class="cls-1" d="m377,399.61c-2.3,1.7-4.9.6-7.3.8,2.3-1,4.8-.9,7.3-.8Z"/>
  <path class="cls-1" d="m458.2,393.11c-1.4.7-3,.6-4.4-.1,1.4-.7,3-.7,4.4.1Z"/>
  <path class="cls-1" d="m310,406.61c-1.9,1.7-4.1.7-6.2.8,2-1,4.1-.9,6.2-.8Z"/>
  <path class="cls-1" d="m440.1,394.61l-4.7-.3c2.1-1.1,3.5-1.1,4.7.3h0Z"/>
  <path class="cls-1" d="m324,404.41l-2.7.2-1.2-.5c.1-.2.3-.5.4-.5,1.2-.1,2.5-.4,3.5.8Z"/>
  <path class="cls-1" d="m508.2,390.51c.9.1,2.5.1,2.5.3.2,1.2-.9.5-1.5.7-.4,0-.9-.1-1.3-.3l.3-.7Z"/>
  <path class="cls-1" d="m151,287.51c.2-1.7-.6-4.1,2.3-3.9,3.1.2,2.6,2.8,2.7,4.9-2,1.5-3.7,1.2-5-1Z"/>
  <path class="cls-1" d="m149.8,369.61c.4-.2.8-.6,1.2-.6.9,0,1,.7.8,1.3-.1.3-.6.5-.9.8l-1.1-1.5Z"/>
  <path class="cls-1" d="m151,287.51c1.5.9,3.3,1.2,5,1-.3,2.2-1.5,4.1-3.7,3.7-2.2-.4-.9-3-1.3-4.7Z"/>
  <path class="cls-1" d="m387.5,276.81c.7,1.9.7,3.9,0,5.7-.4-2.3-2.1-3.5,0-5.7Z"/>
  <path class="cls-1" d="m317.1,348.51c-.1,8.3-.2,16.7-.2,25-1.5-1.4-.7-3.1-.7-4.7-.1-12.8,0-25.5-.1-38.3l-.1.1c12-.6,24-.4,35.9-.1-.8,3-3.3,2.2-5.2,2.3-7.6.2-15.1-1.8-22.7-.6,10.4-1.7,19.9,2.3,29.7,4.7,6.3,1.5,6.1,5.3,5.7,9.9-1,3.2-3.4,2.5-5.7,1.9-8.7-2.1-17.5-3.8-26-6.6-3.1-1-6.3-2.5-8.8,1.3-.4.7-1.2.3-1.4-.5,0-2.4-.1-4.8,0-6.9-1,4,1.7,8.3-.4,12.5Z"/>
  <path class="cls-1" d="m359.8,316.51c-.2,2,1.3,4.2-.8,6-2.9-1.8-6.1-.5-9.2-.9-1.7-.2-3.7.7-4.8-1.5,1-2,2.9-1.1,4.3-1.2-10.8-1.5-21-6.1-31.8-7.4-.9-2.4-.4-4.8-.4-7.2.3-4.3,2.7-5.5,6.8-4.9,5.4.9,10.5,2.8,15.8,4.3,4.6,1.3,8.9,3.6,13.9,3.6.5,0,1.2.1,1.4.5,1,2.5,2.7,1.4,4.3,1,.7,2.4-.3,5.1.5,7.7Z"/>
  <path class="cls-1" d="m265.2,300.51c-.1-5.6.1-11.1-.2-16.7-.2-3.7.7-5.6,4.8-4.8.8,0,1.6-.1,2.4-.3,8.3-1.5,16.6-.3,24.9-.6,2.2-.1,4.6-.7,6.7.6l4.3.8c.3,1.7-1.1,2-2.2,2.1-8.3.7-16.7.5-25-.6,9.1.2,17.6,4.9,26.5,8.3,1.1,2.1.5,4.3.6,6.5,0,.5-.2,1-.5,1.4s-.9.7-1.3.4c-7.3-4.9-16.2-5.1-24-8.5-3-1.3-6.5-.8-9.7-1.5-.8-.2-2.2.3-2.3-.3-1-4-1.5.3-2.2.1-2.5-.6-.4,1.1-.8,1.5.2,1.8.2,3.6.2,5.5-.1,1.9.2,3.9-.8,5.7-.2.5-.8.7-1.4.4q0,.1,0,0Z"/>
  <path class="cls-1" d="m266,330.61h19c-.4,2.7-2.6,2-4.2,2.2-2.1.1-4.2.2-6.3.1,9.7,3,19.7,5.3,29.5,8.2,1.8.6,3.1,2,3.8,3.7.3,2.1.3,4.3.2,6.4-.1.5-.2,1-.5,1.4-4.6-2.6-10-2.5-14.9-4.4-8.1-3.3-16.7-5.1-25.5-5.4-1.3-1.1-.8-2.7-1.3-4-.8-2.8.2-5.5.2-8.2Z"/>
  <path class="cls-1" d="m307,344.51c-6.2-4.2-13.6-5.3-20.6-6.8-4.6-.9-8.7-4.3-13.7-3.4-.9.1-1.7-.6-1.8-1.5v-.5c.2-1.4,1.6-.8,2.4-.9,3.9-.5,7.9,1,11.7-1,6.8-.1,13.6,0,20.4-.3,3.1-.1,3.5,1.2,3.5,3.8,0,13.1,0,26.2.1,39.3h0l-.4.1-.4-.1c-.4-.4-.8-.9-1.1-1.5-.6-6.5-1-13,.4-19.5.2-2.6,0-5.3.1-8v-1.4c-.5.7,0,1.5-.6,1.7Z"/>
  <path class="cls-1" d="m266,338.51c1.5,1,.8,2.6,1,4,1.8,1.8,1.2,4.3,1.8,6.5-.4.4,1,.1.4,0-.5-.1-.4-.2-.2-.5,1-1.4,2.9-1.9,4.5-1.3,9,2.7,18.2,4.6,27.3,7,2.9.7,5.4,2.7,6.7,5.4.3,2.1.3,4.1,0,6.2-11.1-1.7-20.8-7.3-31.8-8.3-3.5-.3-8.1.3-8.7-4.8.1,2.2.7,4.8.5,7.4-.2,3.9.7,8-.7,11.8-.2.5-.9.8-1.4.5h-.1v-23c.9-3.5-.6-7.3.7-10.9Z"/>
  <path class="cls-1" d="m265.2,320.51v-4c.8-2.4.1-5,.4-7.4.1-.5.5-.9,1-1,8.7,1.7,17.5,2.9,25.5,7.2,3.7,2,7.8,1.1,11.7.7,2.2-.2,1.7-2.5,1.9-4,.5-1.4-.1-3.7,2.6-3.2.2,3.8.3,7.7.1,11.5-.5,1.1-1.6,1.8-2.8,1.7-10.6.3-21.2-.4-31.8-.7-2.8-.1-5.6-2.1-8.6-.8Z"/>
  <path class="cls-1" d="m318,311.51c6-1.3,11.8.2,17.2,2.3,6,2.3,11.8,4.7,19.1,3.3-2.2,4.2-5.8,1.3-8.8,3.4h9.6c1.6,0,3.5-.5,3.9,1.9h-5c-10.2-.9-20.5-.4-30.7-.5-1.9,0-5.2,1.5-5.4-1.5-.2-3.4,3.3-2.1,5.4-2.4.9,0,1.7,0,2.6.1-2.6-.5-5.1.5-7.1-.7-2.4-1.3-2.3-3.6-.8-5.9Z"/>
  <path class="cls-1" d="m307.9,320.61v-12c-2.2-3.6-1.4-7.4-.5-11.1.2-2.6,0-5.3.1-7.9v-1.4c-.4.4,0,1.1-.5,1.3-5.8-.6-11-2.8-16.1-5.4-4-2.1-8.7-1.5-14.2-3.6h26.1c1.8,0,3.7.7,5.2-1,.9.5.8,1.3.8,2.1v38.6c0,.8.2,1.7-.8,2.1-.5-.4-.6-1.1-.1-1.7,0,.1,0,0,0,0Z"/>
  <path class="cls-1" d="m359,347.51c.1-1,.1-2,0-3-.3-2.4,1.5-4.9-3.9-5.3-4.4-.4-8.6-1.7-12.5-3.8-5.5-3.4-11.4-2.8-17.2-2.9-1.1,0-2.3.4-3.9-1h25.3c1.7,0,3.7.6,5.2-.9.2,0,.3-.1.5-.1q7.5-.4,7.5,6.8c0,10.4-.1,20.8-.2,31.2h-.8c-2.1-2.3-1.1-5.2-1.5-7.8-.1-1.5.1-3,0-4.5.1-2.9-.4-6,1.5-8.7Z"/>
  <path class="cls-1" d="m359.8,316.51c-1.7-2.5-.5-5.3-.8-8-2.4-3.1-1.2-6.8-1.4-10.2.1-8.5-.1-7.9-7.7-10.8-9-3.3-18.5-4.9-28.1-4.8-1.3.1-2.7-.3-3.7-1.1-.3-.5-.2-1.2.3-1.5h0c3.2-1,6.4-.8,9.7-.6,10.3.5,20.6,1.1,30.9-.2,1,.3,1,1.2,1,2l-.2,35.2Z"/>
  <path class="cls-1" d="m359,279.41c-1.4,1.8-3.4,1.1-5.1,1.1-10.3.1-20.5,0-30.8.1-1.7,0-3.7-.7-5.2,1,.7,4.8.4,9.6.5,14.5-.7,7.2-1.6,14.4-.6,21.6.2,1.6-.1,3.3-.9,4.7-1.5-.9-.8-2.4-.8-3.6,0-11.8.1-23.6-.1-35.4-.1-3.2.9-4.6,4-4.6,2.4-1.1,5.2-1.1,7.6,0,8.6.9,17.3.1,25.9.4,1.9,0,3.7.1,5.5.2Z"/>
  <path class="cls-1" d="m307.9,320.61c0,.6.1,1.2.2,1.8l-40.7.3c-1.5,0-2.7-.3-2.2-2.2,1.7-3.5,3.8-4.3,6.7-1.3.5.6,1.2,1,2,1.2,10.7-.4,21.4,2.1,32.1.9.7-.1,1.3-.4,1.9-.7Z"/>
  <path class="cls-1" d="m316.9,322.41l.2-26.7c3.8,2.2.6,5.2.9,7.8v8c-1.2,7.8,4.8,5.6,8.9,6.1-.6,1.4-1.6.8-2.4.9-1,.1-2,0-3,0-1.3.1-3,.1-2.9,1.9.2,1.6,1.8,1,2.9,1,9.1,0,18.2,0,27.3.1,1.8,0,3.7-.7,5.2.9-12.4.4-24.7.6-37.1,0Z"/>
  <path class="cls-1" d="m265.2,372.51h.8c2-1.7,4.3-1.5,6.7-1.5,8.7,0,17.3-.1,26,.1,3.1.3,6.5-.9,9.3,1.5,0,.3.1.6.2.9-13.8,1.1-27.6.2-41.5.5-1,0-1.6-.4-1.5-1.5Z"/>
  <path class="cls-1" d="m266,338.51c-.5,3.6.9,7.4-.8,10.9.2-6.3-1.4-12.7.8-18.9,2.1,1.4,1.9,1.2.5,2.9-1.2,1.5-.2,3.5-.5,5.1Z"/>
  <path class="cls-1" d="m303.8,375.41h-6.6v-.5h6.6v.5Z"/>
  <path class="cls-1" d="m266,308.51c-.4,2.7.8,5.5-.8,8v-8c.1-.2.4-.3.7-.2,0,.1.1.2.1.2Z"/>
  <path class="cls-1" d="m266,308.51h-.8v-8h.8c2,2.7,1.9,5.4,0,8Z"/>
  <path class="cls-1" d="m360.6,328.41c-2.1,1.3-3.3,1.4-4.7.7,1.4-1.1,2.8-.3,4.7-.7Z"/>
  <path class="cls-1" d="m324.9,568.01c.3-1.1.7-2.2,1.2-3.2,8.3-12.4,33.7-10.7,40.2,2.8.7,1.4,2.7,3.3.1,4.6-2.4,1.2-3.5,0-4.7-2.4-4.7-9.6-21.2-12.4-29.1-5.1-2.2,2.1-2.8,4.8-3.4,7.6.2.5-.1,1.2-.2,1.2-1.7-1.7-4.6-2.3-4.1-5.5Z"/>
  <path class="cls-1" d="m363.9,610.41c-10.2,9-28.8,8.1-37-1.9,1-1.2,2.5-1.9,4.1-2.1,10.2,7.9,22.8,7.5,31-1,4.8.1,3.8,2.4,1.9,5Z"/>
  <path class="cls-1" d="m324.9,568.01c-.3,2.6,4,1.8,3.5,4.6.2,0,.3,0,.5-.1.1-.1.2-.2.3-.4,1.3,4.1,4.2,6.5,8.2,7.8s7.7,2.4,11.6,3.6c-.3.3.1,1.8.7,2.1s1.7.8,1.2,1.8-1.4.5-2.2.2c-6.1-1-12.1-2.4-17.6-5.2-6.2-3.2-8.1-7.9-6.2-14.4Z"/>
  <path class="cls-1" d="m348.7,587.61c.5-.2,1.7-.4,1.2-.7-1.3-.7-2.6-1.3-4-1.7.7-1.2,2.5-.3,3.1-1.7,7,1.5,14,3.1,18,10-.9,2.9-1,3-4.8,1.9-3.3-4.6-8.7-5.7-13.5-7.8Z"/>
  <path class="cls-1" d="m362.2,595.51c1.4-1,4,.8,4.8-1.9,3.3,6.7,2.4,11.7-3.1,16.9.5-2.1.8-4.1-1.9-5,1.5-3.2,1.6-6.8.2-10Z"/>
  <path class="cls-1" d="m331,606.51c-.8,1.9-2.4,2.1-4.1,2.1-2.1-1.5-2.9-3.9-3.7-6.2-.6-1.5-.5-2.7,1.6-3.3s2.9-.5,3.5,1.8c.5,1.9,1.8,3.6,2.7,5.6Z"/>
  <path class="cls-1" d="m558.2,564.51q-.4-7,6.5-7h30.9c1.6,0,3.9-.8,3.8,2.3s-2.1,2.4-3.9,2.4c-8.7,0-17.3.4-25.9-.1-5.5-.3-6.8,1.7-6.3,6.6.3,4.1-.1,8.3-.2,12.4.1,1.8-.7,1.5-1.5.6-1.1-1.2-.6-2.8-.6-4.2-.7.7-.4,3.3-2.5,1.2-.2-4.6.4-9.4-.3-14.2Z"/>
  <path class="cls-1" d="m563.2,610.11c10.8,1.1,21.5.2,32.3.5,1.8.1,4.7-1.2,4.5,2.6-.2,3.5-3,2-4.5,2-11.3.1-22.6,0-33.8.1-2.8,0-3.7-.7-3.7-3.6.2-9.5.2-18.9.2-28.4.5-.3,1.2-.1,1.4.5h0c1.5,3.9.5,7.9.8,11.8,0,3.6-.1,7.2,0,10.8-.1,2.1.2,3.8,2.8,3.7Z"/>
  <path class="cls-1" d="m559,596.51v-13c-.7-1.2-.7-2.8,0-4,2.1-1.5-.2-4.6,2.6-6.5.2,3,.5,5.8.7,8.5.1.1.3.1.4.1.1-.1.3-.2.4-.3,1.4,1.8,3.4,1.1,5.1,1.1,7.1.1,14.3,0,21.4,0,1.5,0,3.1-.1,3,2.2s-1.6,2.1-3.1,2.1c-7.3,0-14.6.2-21.9-.1-3.6-.1-4.5,1.1-4.4,4.5.2,4.8-.1,9.6-.2,14.4-4.3-1.8-2.4-5.6-2.2-8.4.3-4-2.1,1.9-1.8-.6Z"/>
  <path class="cls-1" d="m559,596.51l2.5-4.5c1.6,4.7-.9,9.4,1.7,13.5,0,1.5.1,3.1.1,4.6-.8,1.2-1.9,2.2-3.2,1.8-1.7-.5-.9-2.3-1-3.5-.2-3.9-.1-7.9-.1-11.9Z"/>
  <path class="cls-1" d="m559,579.51v4h-.8v-19c1.7,4.9.3,10,.8,15Z"/>
  <path class="cls-1" d="m269.1,572.51q-1-14.9,13.5-14.9h24.4c1.7,0,3.3-.2,3.3,2.4s-1.7,2.4-3.4,2.4h-27.9c-1.7,0-3.7-.8-5,1.1s-2.3,1.4-3.3-.3c-.2-.3-.1-.6.1-.7-.5,3.3,2.6,7.3-1.7,10Z"/>
  <path class="cls-1" d="m270,615.21c-2.1-2.7-.8-5.8-.9-8.7,1.1-2.8-.2-5.9.9-9,3.4,1.2,1,4.5,2.3,5.5.3,1.3,1.3.6.6.8,0-.1-.1-.1-.1-.2-.6-2.8-2.7-5.9,1.1-8.1.1,1.3.2,2.7.2,4q.1,11.2,11.5,11.2h21.5c1.8,0,3.8-.5,3.8,2.5,0,2.8-1.9,2.2-3.5,2.2-12.1-.1-24.3-.1-36.4-.2.5-2,2.2-1.1,3.2-1.2,10-.1,20,0,30,0h-29.2c-1.6,0-3.6-.5-5,1.2Z"/>
  <path class="cls-1" d="m274,570.51c0,.2.1.3.1.5.7,3.7-1.7,8.8,1.2,10.8,2.6,1.8,7.4.5,11.2.5h13.9c1.5,0,3-.2,3,2.2s-1.5,2.2-3,2.2c-8.6,0-17.2,0-25.9-.1-1.8.7-.8,2.2-1,3.3s-.4,2.5-1.7,2.5c-1.5.1-1.6-1.3-1.7-2.4,0-1.1-.1-2.3-.4-3.4-.2-3.4-.5-6.8.2-10.2,2.3.6,2,2,1.8,3.5.1.1.2,0,.2-.5.2-1.7-.4-3.3-.2-4.9s-.4-3.7,2.3-4Z"/>
  <path class="cls-1" d="m274,570.51c-2.2,3.9,0,8.4-1.9,12.6-1.9-1.5-.5-3.8-2.1-6.5v9.9c.2.2.3.4.3.7s-.1.4-.1.4c-.3.3-.8.2-1.1-.1v-15c2-3.6.1-7.7,1.6-12.5.7,2.4.5,5.1,3.3,3.5v7Z"/>
  <path class="cls-1" d="m270,587.51v-1c2,1.3.1,3.8,1.7,5.2,2.5-.9.1-4.5,2.8-5.1-.2,3-.3,5.9-.5,8.9-2.1,2.7-.3,5.8-1.2,8.7-2.1-1.3-1.4-3.8-2.2-6-1.4,2.8.5,5.9-1.5,8.2v-10c1.2-2.9-.4-6,.9-8.9Z"/>
  <path class="cls-1" d="m270,615.21c.1-1,1.1-1.8,2.1-1.7,11.2,0,22.5,0,33.8,1h-29c-1.9,0-4-.6-5.8.7h-1.1Z"/>
  <path class="cls-1" d="m270,587.51c-.4,3,.9,6.1-.9,9v-9h.9Z"/>
  <path class="cls-1" d="m432,605.51l5.9-10.3c2-2.8,4.8-2.5,7.7-2.1,9.6-.2,19.2,0,28.8-.1,2.2-.2,4.4-.1,6.6-.5,4.2,5.5,6.4,12.1,10,17.9-1.8,2.8-3.6.3-3.8-.6-.6-2.5-1.6.4-2-.3-3.3-10.1-10.8-11.3-20.1-10.5-7.5.7-15.2,0-22.8-.2.5-.9,1.3-.8,2.2-.8h32-33.4c-.8.1-1.6.6-2,1.3-1.7,3-3.4,6.1-5.2,9.1-2.7.7-4.8.8-3.9-2.9Z"/>
  <path class="cls-1" d="m455.8,563.21c.9,1.4,1.9,2.9,2.8,4.3-.9,6.5-4.5,11.6-8.7,16.3-1.9.3-3.7-.8-4.4-2.5,3.1-6.2,6.6-12.3,10.3-18.1Z"/>
  <path class="cls-1" d="m481,592.51c-1.2,2.4-2.9,2.3-4.8,1-4.6-3.1-6.4-7.8-7.6-12.9.9-1.8,2.5-2.3,4.4-2.2,3.1,4.5,5.8,9.2,8,14.1Z"/>
  <path class="cls-1" d="m445.6,581.31l4.2,2.1c.3,4.8-2.8,7.8-5.6,10.9-2.3-1.4-4.3.2-6.3.8,2.1-4.7,4.7-9.3,7.7-13.8Z"/>
  <path class="cls-1" d="m473,578.41c-.9,1.5-2.8,1.2-4,2.1-3.6-1.1-4.3-3.7-3.9-7,2.8-1.3.8-4.1,1.9-6,2.3,3.4,4.4,7,6,10.9Z"/>
  <path class="cls-1" d="m432,605.51c-.2,2.9,2.4,2.2,3.8,3-1.9,3.5-2.6,8.7-9,6.5,1.3-3.4,3.1-6.6,5.2-9.5Z"/>
  <path class="cls-1" d="m440.9,599.31c.3-1.4,1.2-1.8,2.6-1.8h35.6v1.3h-36.9l-1.3.5Z"/>
  <path class="cls-1" d="m485.2,609.41c.4-1,.9-2,1.3-3,1,2,1.3,4.7,4.5,4,1.2,1.3,2.1,2.9,2.6,4.6-5.6,1.9-7-1.9-8.4-5.6Z"/>
  <path class="cls-1" d="m.2,589.41c1.9-6.1.2-12.5,1.1-19.2,1.3,2.5,1.6,4.9,2.1,8.1,1.7-5.8-1-11.1,1.8-15.8,2.3,4.4,1,9.1,1.1,13.7.2,12-.9,10.7,11.2,10.8,1.7,0,3.3-.1,5-.3,5.4-.4,10.2-3.8,12.4-8.7,2.4-.8,4.2-2,4.2-4.9,0-.9.5-1.9,1.8-1.7,2,9.9-1.5,15.6-12.9,20.5l4.7,7.5c-.3,1.8-1.9,3-3.7,2.9l-1.3-1.5c-2.3-2.5-3.1-7.2-6.4-7.7-4.9-.8-10.1,0-15.2.2-.3,0-.7.7-1,1-1.5,3.1.5,6.8-1.2,10.2-2.3-1.1-1.6-3.2-1.9-4.1-.2-1.3-1.2-.4-.6-.7.1,0,.1.1.2.3.7,2.7,1,5.5.9,8.3,0,2.5.6,4.5,2.7,6.1-4.8,1.6-5,1.6-5-2.6-.2-7.4,0-14.9,0-22.4Z"/>
  <path class="cls-1" d="m29.1,602.41l3.7-2.9,10.8,15.3c-4.2,1.4-6.5.3-8.3-2.9s-4.2-6.4-6.2-9.5Z"/>
  <path class="cls-1" d="m41,571.51c-1.5,1.3-.7,3.1-.9,4.7-.5,2.8-1.7,3.6-3.8,1.2-1.8-3.3-2.9-7-3.2-10.8-.1-2.1,2.4-1.7,3-3.2,2.9,1.7,4.8,4.8,4.9,8.1Z"/>
  <path class="cls-1" d="m5.1,614.51c-2.9.3-4.2-.7-4.1-3.9.2-4.3,0-8.6.6-13.1l2,6.1c1.3-3.1-.8-6.5,1.5-9.2.4,6.8.4,13.5,0,20.1Z"/>
  <path class="cls-1" d="m166,589.51c2.3,4,4.5,8,6.8,12-.8,4.3-3.2.7-4.8,1-1.5-2.7-3.7-3.5-6.8-3.5-9.6.2-19.2.1-28.7.1-1.8,0-3.7-.3-5.3.7-.4-.3-.5-.9-.2-1.3.1-.1.2-.2.3-.2,12.1-.8,24.2,0,35.7-.4h-34.8c-1.3.2-1.7,1.4-2.3,2.3-.8,1.1-.6,3.4-2.5,3s-1.1-2.4-1.3-3.8c2.6-4.7,5.2-9.4,7.8-14.1,2.5-.5,3.3,1.2,3.8,3.1-.6,3.2.1,4.9,3.9,4.7,6.4-.2,12.8-.1,19.2,0,2.1,0,3.7-.3,3.4-2.9,1.4-4.1,3.8-.6,5.8-.7Z"/>
  <path class="cls-1" d="m138.3,570.51c1.9-3.5,3.8-7,5.7-10.5,1.7-3.2,3.7-3.8,5.6-.3,2.9,5.2,5.7,10.4,8.5,15.7.2,2.5-1.5,3.5-3.4,4.3-4.2-2.6-4.1-8.2-7.9-11.4-1.4,1.5-2,3.9-4,4.9-2.9,1.3-4-.2-4.5-2.7Z"/>
  <path class="cls-1" d="m127.1,598.51l.1,1.3c-2.1,3.9-4.3,7.8-6.2,11.8-1.6,3.4-3.8,4.7-7.9,3.3,3-5.2,6-10.3,9-15.4,1.3.7.7,2.1,1.3,3.1,1.7-.9,1.6-3.6,3.7-4.1h0Z"/>
  <path class="cls-1" d="m138.3,570.51c1.4.6,1.8,3.2,4.1,2.1-.9,6.4-4.1,12.3-9.2,16.3-.6-1.6-1.8-2.9-3.4-3.5l8.5-14.9Z"/>
  <path class="cls-1" d="m168,602.51c.6-1,1.1-2.3,2.3-.4s1.7-.1,2.5-.5l8.1,13.9c-9.9,0-9.4-8.4-12.9-13Z"/>
  <path class="cls-1" d="m155.1,579.41l3-3.9,7,11.1h0l1,3c-1.6,2.2-3.5-1.3-5.1.3-4.1-2.4-5.9-5.9-5.9-10.5Z"/>
  <path class="cls-1" d="m62,557.91l.2,22.6c.6,1.6.6,3.4,0,5v25.9h1.1v-12.1c2.6,2,1.4,3.9,1.6,5.5h1.2c0-4.3-.1-8.5,0-12.8.1-1.9-1-4.1,1.2-5.5-.9,7.1-.1,14.3-.5,21.4-.1,2.9,1.7,2.7,3.5,2.7,9.3,0,18.6,0,28,.1,1.5,0,3.3-.9,4.6.8-.5,2.8-2.6,2.5-4.6,2.5h-31c11.2.3,23.4-.6,35.6.5-.6,1.6-2,.9-3,.9-11.7,0-23.3,0-35,.1-2.2,0-3.8.1-3.8-3,.1-17.8,0-35.6,0-53.4.1-.5.6-.9.9-1.2Z"/>
  <path class="cls-1" d="m103,614.51h-37.8v-1h32c2.2,0,4.4.3,5.7-2,0,1,0,2,.1,3Z"/>
  <path class="cls-1" d="m399.8,562.81c-6.1-1-12.3-.2-18.4-.5-1.5-.1-3.4.6-3.6-2.2-.1-3,1.8-2.6,3.6-2.6h41.9c1.9,0,3.8-.3,3.6,2.6-.1,2.7-2,2.1-3.6,2.1-4.5,0-9,.2-13.5-.1-3.8-.2-5.2.7-5,4.8.3,9.8,0,19.6-.1,29.4l-.9.1c-.2-.2-.4-.5-.6-.7-1.7-6.1-.5-12.3-.7-18.4,0-3.5.2-6.9,0-10.4,0-1.7.3-4-2.7-4.1Z"/>
  <path class="cls-1" d="m404,576.51v20c.1,2.3,0,4.6-.2,6.9-.2,1.2-.9,2.2-2.3,2.1s-.9-1.5-1-2.4c-.4-4.8.7-9.8-.6-14.6-.5-7.3-.5-14.7,0-22,4.2,2,2.2,5.8,2.2,8.7,0,2.2.9,1.4,1.9,1.3Z"/>
  <path class="cls-1" d="m399.9,588.51c2.3,3.3.6,7.1,1.1,10.6.1,2,.1,4,0,6,3.8-2.4.4-6.5,3-8.6h0c1,5.3.3,10.6.4,15.9.1,3.7-2.4,2.6-4.5,2.2-.5-8.7-.5-17.5,0-26.1Z"/>
  <path class="cls-1" d="m404,576.51c-1.6.9-.3,3.3-2.4,4.3-1.8-4.7,1.1-9.9-1.7-14.3,0-1.2-.1-2.5-.1-3.7.5-.9,1-2,2.1-1.8,1.6.3,1.9,1.8,2,3.1.1,4.1.1,8.2.1,12.4Z"/>
  <path class="cls-1" d="m399.9,614.51c3.3.4,4.2-1.2,4.1-4.3-.2-4.6,0-9.2,0-13.8h.8v18.9h0c-1.6-.3-3.5,1.1-4.9-.8Z"/>
  <path class="cls-1" d="m515.3,607.41h.7c1.8,2,1,5.5,3.9,6.9.1.1.3.2.4.3-3.5,1.7-5.6,1.2-5.2-3.3.1-1.2.1-2.5.2-3.9Z"/>
  <path class="cls-1" d="m519.8,614.31c-6.5.7-2.8-4.5-3.9-6.9,0-6.6.1-13.2.1-19.8,2.3.1,1.8,1.9,1.9,3.2,0,2,.1,3.9.3,5.9.1.7,1.1-.3.5,0q-.1,0-.2-.2c-1.1-4.2-.6-8.4-.8-12.7-.1-1.2-.1-3.1,2.1-3.2v33.7Z"/>
  <path class="cls-1" d="m519.8,580.81c-2,5.7-.1,11.7-1.1,17.7-3.3-3.1-.4-7.6-2.7-10.8v-24.1h1v8.7c3-2.2,1.2-5,2.8-7.6v16.1Z"/>
  <path class="cls-1" d="m199.8,572.31v27.8h-.6v-14.6l-1.5-.2c-1.5,3.1-.2,6.7-1.6,9.9v-32.8c1-1-.2-3.6,2.1-3.3,2.1.3,1.2,2.4,1.3,3.7.2,3.2-.3,6.4.3,9.5Z"/>
  <ellipse class="cls-1" cx="219.4" cy="612.01" rx="16.1" ry=".3"/>
  <path class="cls-1" d="m199.8,572.31c-2-3.9.4-8.4-1.4-12.3-1.7.2-1.2,2.1-2.4,2.5-.7-3.4,1.2-4.3,4.1-4.2v.1c0,4.6-.2,9.3-.3,13.9Z"/>
  <path class="cls-1" d="m359,360.51v8c-.1,4.6-3.7,5.1-6.3,3.8-7.7-4.1-16.8-1.5-24.5-5.7-2.2-1.3-4.7-2-7.3-2.3-3.8-.4-2.9-4.1-3-6.8,0-4.5,2.5-4.8,6.1-3.8,8.3,2.1,16.6,4.5,24.9,6.7,3.4.7,6.8.8,10.1.1Z"/>
  <path class="cls-1" d="m359,347.51v9c-1,1.9-2.6,1.5-4.3,1.3-6.3-.9-12.2-3.2-18.2-5.1-3-.9-6-2-9-2.8-3.5-1-6.8-1.3-9.5,1.6v-3c-.8-1.6-.8-3.4,0-5,1.4-4.2,3.5-4.8,8-3.3,9.2,3.1,18.8,5.1,28.3,7.6,1.6.4,3.2.8,4.7-.3Z"/>
  <path class="cls-1" d="m318,351.51c2-5.3,3.3-5.6,12.1-2.4,8.6,3.1,17.3,5.8,26.1,8,1.1.3,1.9-.3,2.8-.6v4c-1.7.9-.3,3.3-2.2,4.2-1.6-.6-.2-2.5-1.2-3.4-.8.8-.2,2.8-3,1.7-10-3.8-20.5-5.8-30.8-8.6-3.5-1-2.2,2.4-3.7,3.1-.1-2-.1-4-.1-6Z"/>
  <path class="cls-1" d="m318,343.51v5h-.9v-14.8h.9v9.8Z"/>
  <path class="cls-1" d="m63.1,575.51c.3-3.7-.7-7.5,2-11.1v10.1l-2,1Z"/>
  <path class="cls-1" d="m62.1,585.51v-5h.9c-.2,1.7.7,3.5-.9,5Z"/>
  <path class="cls-1" d="m485,372.51h36.6c2,0,4,0,5.2-2l1.7,2.1c-.5,1.5-1.7,1.3-2.9,1.3-28.9,0-57.8,0-86.7-.1-.7,0-1.3-.2-1.9-.3,1.5-1.6,3.4-1,5.2-1h42.8Z"/>
  <path class="cls-1" d="m145.9,447.51c-.3,1.2-.9,2.3-1.9,3.1-.7-1.9-1.4-3.7-2.1-5.6,2.5-1,2.7,1.6,4,2.5Z"/>
  <path class="cls-1" d="m262.7,98.91c-.3-.4-.6-.6-.6-.8.1-.6.4-1.2.8-1.7.6-.4.9.1.7.7-.2.7-.5,1.2-.9,1.8Z"/>
  <path class="cls-1" d="m505,344.41c1.4,1,2.5,2.1,1.3,3-1.7,1.2-1.1-.7-1.2-1.4-.1-.5-.1-1.1-.1-1.6Z"/>
  <path class="cls-1" d="m313,100.61v-28h1v20c-.4,2.7,1,5.5-1,8Z"/>
  <path class="cls-1" d="m331.9,44.61c-.7-.1-1.9-.1-2.1-.4-.6-1.6.6-.7,1.1-.6.4.1.8.3,1.2.5l-.2.5Z"/>
  <path class="cls-1" d="m372.2,409.51c.9,0,1.7.1,2.5.3.2,1.2-.9.5-1.5.7-.4,0-.9-.1-1.3-.3l.3-.7Z"/>
  <path class="cls-1" d="m440,398.51c2.3-1.2,5-1.2,7.4,0h-7.4Z"/>
  <path class="cls-1" d="m318,303.51c-.4-2.6.9-5.4-.9-7.8.3-4.7-1.2-9.5.9-14.2h0c.8,4.9,4.6,5.5,8.6,7.2,10.5,4.4,21.7,5.5,32.3,8.8v11c-1.3.3-1.9,3.6-4.1.3-1.4-2.1-5-.2-7.9-1.3-7.7-2.9-15.5-5.8-23.7-7-2.8-.4-4.5.3-5.2,3Z"/>
  <path class="cls-1" d="m266,288.51c-.9-3,3.3-2.6,3.2-5.3.3,4.9,4.4,3.1,6.4,3.5,4.1.6,8.3,1.2,12,3,6.3,3,14.4,1.6,19.3,7.9.2.2.4.5.4.9q.7,9-7.8,6.3c-6.6-2.1-13.2-4.3-20.2-5-1.5-.1-2.9-.6-4.2-1.4-2.7-1.9-5.5-1.8-8.3-.6-.7-.9-.3-2-.4-3-.1-2.1.7-4.3-.4-6.3Z"/>
  <path class="cls-1" d="m267,294.51v3c1.2,2.9,3.9,3.7,6.5,4.5,9,2.6,18.1,4.7,27.2,7.1,2.5.7,4.7,1.3,6.3,3.4.6,3.8-.8,5.2-4.9,5.1-5.5,0-10.9-1.2-15.8-3.6-6.3-2.9-13.5-3.8-20.3-5.6v-14c.4-.3.7-.3,1,.1Z"/>
  <path class="cls-1" d="m307,312.51c-11-3-22.1-6-33.1-9-3.3-.9-7.2-1-6.9-6,1.4-3,3.7-3.8,6.3-1.7,4.7,3.8,10.7,2.9,15.9,4.4,5.8,1.6,11.4,3.8,17.8,5.6v-9.2c.3-.5.6-.4.9,0v12.1c-1.4,1-.7,2.5-.9,3.8Z"/>
  <path class="cls-1" d="m307.9,296.51h-.9v-10.8h.9v10.8Z"/>
  <path class="cls-1" d="m267,294.51h-1v-6c1.8,1.8.7,4,1,6Z"/>
  <path class="cls-1" d="m307.9,372.51h-8.9c-.5-1.3-1.5-1.6-2.7-1.8-7.7-1.2-14.8-4.5-22.5-5.8-3.3-.5-6.2-2.5-7.7-5.5v-9.4c1.8,4.8,4.7,6,8.1,6.1,9.6.1,17.9,5.4,27.1,7,2.1.4,4.4.2,5.8,4v-7.5c-1.4-2.3-1.9-4.7,0-7v-1c.3-.5.6-.4.9,0-.1,7-.1,14-.1,20.9Z"/>
  <path class="cls-1" d="m307,352.51v7c-3.1,1.4-1.7-2.7-4.2-3.3-10.1-2.1-20-5.2-30-7.9-.2,0-.3-.2-.5-.1-6.8,2.8-5.1-2.4-5.3-5.7,1.3-2.6,3.9-1.7,5.6-1.3,10.5,2.1,20.3,6.5,31,8,2.3.3.8,3.8,3.4,3.3Z"/>
  <path class="cls-1" d="m307.9,351.51h-.9v-10.8h.9v10.8Z"/>
  <path class="cls-1" d="m266,359.51c2.7,2.6,6,4.6,9.5,4.8,8.2.4,15.2,5.3,23.5,5.4,3.4,0,0,1.8-.1,2.8h-33c.1-4.3.1-8.6.1-13Z"/>
  <path class="cls-1" d="m359,297.51c-8.1-.5-16.1-1.5-23.7-4.3-3.7-1.3-7-3.8-11.1-3.8-5.7,0-7.1-3-6.2-7.9,14-1.3,27.2,2.6,41,7.5v8.5Z"/>
  <path class="cls-1" d="m315,330.51q-1.4-1.4.2-3.4c1.2,1.3-.6,2.3-.2,3.4Z"/>
  <ellipse class="cls-1" cx="291.1" cy="612.01" rx="22.4" ry=".3"/>
  <path class="cls-1" d="m127.1,598.51c.4-.3.8-.8,1.2-.8,12.2,0,24.5,0,36.7.8h-37.9Z"/>
  <ellipse class="cls-1" cx="84.4" cy="612.01" rx="21.7" ry=".3"/>
</svg>