<?xml version="1.0" encoding="utf-8"?>
<!-- Generator: Adobe Illustrator 28.0.0, SVG Export Plug-In . SVG Version: 6.00 Build 0)  -->
<svg version="1.1" id="Layer_1" xmlns="http://www.w3.org/2000/svg" xmlns:xlink="http://www.w3.org/1999/xlink" x="0px" y="0px"
	 viewBox="0 0 800 800" style="enable-background:new 0 0 800 800;" xml:space="preserve">
<style type="text/css">
	.st0{fill:#E6BB59;}
</style>
<path class="st0" d="M782.2,656h-40.1V153.7l55.5-98c3.1-5.5,3.1-12.2-0.1-17.7c-3.2-5.5-9-8.8-15.4-8.8H17.8
	c-6.3,0-12.2,3.4-15.4,8.8c-3.2,5.5-3.2,12.2-0.1,17.7l55.5,98V656H17.8C8,656,0,663.9,0,673.8V753c0,9.8,8,17.8,17.8,17.8h764.4
	c9.8,0,17.8-8,17.8-17.8v-79.3C800,663.9,792,656,782.2,656z M640.4,656V310c0-9.8-8-17.8-17.8-17.8c-45.4,0-92.6-27.2-134.2-51.2
	c-34-19.6-63.3-36.5-88.4-36.5c-25.2,0-54.5,16.9-88.5,36.5c-41.6,24-88.8,51.2-134.2,51.2c-9.8,0-17.8,8-17.8,17.8v346H93.4V166.8
	h613.2V656H640.4z M501.2,656c6.5-5.8,12.5-12.2,17.8-19c22.1-28.6,31-63.1,25.1-97.1c-7-40.4-35.5-71.7-60.7-99.3
	c-41.6-45.7-49.4-61.5-25.4-85.9c4.5-4.6,6.2-11.3,4.4-17.5c-1.8-6.2-6.9-10.9-13.2-12.3c-7.5-1.7-15-2.5-22.3-2.5
	c-25.9,0-49.1,10.4-65.3,29.4c-14.6,17-22.7,40.1-23.8,66.7c-7.2-1.9-14.8-3-22.5-3c-27.2,0-49.9,12.2-59.2,31.9
	c-3.9,8.2-1,18.1,6.8,22.8c19.7,12,19.4,23.6,15.2,58.5c-2,17.1-4.3,36.6-3.1,59.8c1.6,31.2,12.9,52.7,27.2,67.7H195.1V326.7
	c48.7-5.6,95.6-32.7,134.2-54.9c28.3-16.3,55.1-31.7,70.7-31.7c15.6,0,42.4,15.4,70.7,31.7c38.6,22.2,85.5,49.3,134.2,54.9V656
	H501.2L501.2,656z M298.9,453.8c4.6-1.8,10.2-2.8,16.2-2.8c11.6,0,22.6,3.9,30.2,10.7c5.6,5,13.7,6,20.3,2.4
	c6.6-3.6,10.2-10.9,9.1-18.3c-4.6-30.1,0.3-55.3,13.7-71c6.4-7.5,14.6-12.6,24-15.1c-14.7,39.7,17.6,75.2,44.6,104.8
	c23,25.2,46.7,51.3,52,81.5c4.9,28.3-6,61.1-31.5,84.2c2.7-7.8,4.7-15.9,5.5-24.1c1.8-18.2-2.7-34.4-13-46.8
	c-4-4.8-10.2-7.2-16.4-6.2c-4.3,0.7-8.2,2.9-10.9,6.2c1.3-7.3,1.9-15.2,1.3-23.2c-1.8-25.1-14.9-46.6-37.6-62.1
	c-5.3-3.6-12.2-4.1-17.9-1.2c-5.8,2.9-9.5,8.6-9.8,15c-0.6,13-9.8,25.8-20.4,40.8c-18.2,25.5-41.4,58.1-27,106.3
	c-11.1-10.2-19.7-25.3-20.9-48.3c-1.1-20.2,1-38,2.9-53.7C316.7,503.8,319.9,476.2,298.9,453.8L298.9,453.8z M380.6,656
	c-33.2-51-14.7-77,6.6-106.9c6.1-8.5,12.2-17.2,17.2-26.4c1.7,3.4,2.9,7,3.6,10.7c3.8,20.4-7.5,42.6-11,47.9
	c-2.9,3.8-4.2,8.6-3.5,13.4c0.9,5.8,4.6,10.8,9.9,13.4c6.4,3.1,13.2,4.6,20.2,4.6c8.3,0,16.4-2.2,23.6-6.1
	c-3.4,18.6-16.2,39.5-23.6,49.3L380.6,656L380.6,656z M751.7,64.7L714,131.2H86L48.3,64.7C48.3,64.7,751.7,64.7,751.7,64.7z
	 M764.4,735.3H35.6v-43.7h728.9V735.3z"/>
</svg>
