<?xml version="1.0" encoding="utf-8"?>
<!-- Generator: Adobe Illustrator 28.0.0, SVG Export Plug-In . SVG Version: 6.00 Build 0)  -->
<svg version="1.1" id="Layer_1" xmlns="http://www.w3.org/2000/svg" xmlns:xlink="http://www.w3.org/1999/xlink" x="0px" y="0px"
	 viewBox="0 0 44 45" style="enable-background:new 0 0 44 45;" xml:space="preserve">
<style type="text/css">
	.st0{fill:#E6BB59;}
</style>
<path class="st0" d="M10.1,32.3l-0.9-0.2c-0.1,0-0.1,0-0.2-0.1c-0.3-0.2-0.5-0.6-0.3-0.9l0.1-0.3c0.2-0.3,0.5-0.6,0.9-0.6h1.2
	c0.2,0,0.4,0.1,0.6,0.2l1.1-3.4c0.4-1.2,1.6-2.1,2.8-2.1h13.1c1.3,0,2.4,0.8,2.8,2.1l1.1,3.3c0.1-0.1,0.3-0.1,0.5-0.1h1.3
	c0.4,0,0.7,0.2,0.9,0.5l0.2,0.3c0.2,0.3,0,0.8-0.3,0.9c-0.1,0-0.1,0.1-0.2,0.1l-0.9,0.2l0.5,0.4c1,0.8,1.5,1.9,1.5,3.1V42
	c0,1.7-1.3,3-3,3h-3c-1.3,0-2.4-0.8-2.8-2H16.8c-0.4,1.2-1.5,2-2.8,2h-3c-1.7,0-3-1.3-3-3v-6.2c0-1.2,0.6-2.4,1.5-3.1L10.1,32.3z
	 M33.9,35.4c-0.1-0.4-0.4-0.8-0.7-1.1l-1.5-1.2l-2.3,0.6c-0.9,0.2-1.8,0.3-2.7,0.3h-9.5c-0.9,0-1.8-0.1-2.7-0.3l-2.3-0.6l-1.5,1.2
	c-0.4,0.3-0.6,0.7-0.7,1.1L15,37c0,0.8-2,1.5-5,1.2V42c0,0.6,0.4,1,1,1h3c0.6,0,1-0.4,1-1s0.4-1,1-1h12c0.6,0,1,0.4,1,1s0.4,1,1,1h3
	c0.6,0,1-0.4,1-1v-3.8c-3,0.4-5-0.4-5-1.2L33.9,35.4z M4,43V13h36v30h2V6.8L22,2L2,6.8V43H4z M5,45C4.9,45,4.9,45,5,45l-5,0V5.2
	L22,0l22,5.2V45h-4.7c0,0-0.1,0-0.1,0c0,0-0.1,0-0.1,0c-0.6,0-1-0.4-1-1V15H6v29C6,44.6,5.6,45,5,45C5,45,5,45,5,45z M36,17
	c0.6,0,1,0.4,1,1s-0.4,1-1,1H8c-0.6,0-1-0.4-1-1s0.4-1,1-1H36z M36,21c0.6,0,1,0.4,1,1s-0.4,1-1,1H8c-0.6,0-1-0.4-1-1s0.4-1,1-1H36z
	 M29.5,27.7C29.4,27.3,29,27,28.6,27H15.4c-0.4,0-0.8,0.3-0.9,0.7l-1.2,3.6l1.8,0.4c0.7,0.2,1.4,0.3,2.2,0.3h9.5
	c0.7,0,1.5-0.1,2.2-0.3l1.8-0.4L29.5,27.7z"/>
</svg>
