<?xml version="1.0" encoding="utf-8"?>
<!-- Generator: Adobe Illustrator 28.0.0, SVG Export Plug-In . SVG Version: 6.00 Build 0)  -->
<svg version="1.1" id="Capa_1" xmlns="http://www.w3.org/2000/svg" xmlns:xlink="http://www.w3.org/1999/xlink" x="0px" y="0px"
	 viewBox="0 0 800 800" style="enable-background:new 0 0 800 800;" xml:space="preserve">
<style type="text/css">
	.st0{fill:#E6BB59;}
</style>
<g>
	<g>
		<polygon class="st0" points="574.2,32.2 153.1,29.2 0,264.7 0,291.6 358.4,368.7 545,59.3 748.5,300.7 800,300.2 		"/>
		<path class="st0" d="M371.3,390.7L19.4,313.1l0.1,304.4l205.8,88V510.7l102.6,30.5v208.3l49,21v0.3l350.8-150.1V326v-6.3v-14.9
			L546.5,90.3L371.3,390.7z M159.9,589.4l-87.2-30.3V486l87.2,26.8V589.4z M164.5,470l-87.6-25v-73.3l87.6,21.5V470z M327.9,516.5
			l-102.6-29.3v-79.1l102.6,25.2V516.5z M548.5,609.1L443,646v-85.5L548.5,528V609.1z M589.5,394.3l91.4-22.5v75.6l-91.4,26.3V394.3
			z M588.7,515.6l91.6-28.3V563l-91.6,32V515.6z M549.4,485.2L444,515.5v-85.4l105.4-26V485.2z"/>
	</g>
</g>
</svg>
