<?xml version="1.0" encoding="utf-8"?>
<!-- Generator: Adobe Illustrator 28.0.0, SVG Export Plug-In . SVG Version: 6.00 Build 0)  -->
<svg version="1.1" id="landuse" xmlns="http://www.w3.org/2000/svg" xmlns:xlink="http://www.w3.org/1999/xlink" x="0px" y="0px"
	 viewBox="0 0 800 800" style="enable-background:new 0 0 800 800;" xml:space="preserve">
<style type="text/css">
	.st0{fill:#E6BB59;}
</style>
<path class="st0" d="M475.3,205.5c3,2.5,4.7,6.2,4.7,10.1v197.7c0,7.4-6,13.3-13.3,13.3H333.3c-7.4,0-13.3-6-13.3-13.3V320h-53.3
	v93.3c0,7.4-6,13.3-13.3,13.3H120c-7.4,0-13.3-6-13.3-13.3V216c0-3.9,1.7-7.6,4.7-10.1L285,60.4c4.9-4.1,11.9-4.1,16.8,0
	L475.3,205.5z M413.4,506.7c-2.6,0-5.2,0.8-7.4,2.2L266.7,613.3h-53.3V506.7c0-14.7-11.9-26.7-26.7-26.7
	c-14.7,0-26.7,11.9-26.7,26.7v106.7h-53.3V506.7c0-14.7-11.9-26.7-26.7-26.7s-26.7,11.9-26.7,26.7v226.7c0,7.4,6,13.3,13.3,13.3
	h346.7c7.4,0,13.3-6,13.3-13.3V520c0.1-7.3-5.8-13.3-13.1-13.3C413.5,506.7,413.5,506.7,413.4,506.7z M746.7,333.1v346.7
	c0,7.5-6,13.5-13.5,13.5c0,0,0,0,0,0H546.8c-7.4,0-13.4-6-13.5-13.4V333.3c0-7.3,5.9-13.3,13.2-13.3c0,0,0.1,0,0.1,0h40v-40.1
	c0-7.3,5.9-13.3,13.3-13.3h80c7.4,0.1,13.4,6.1,13.4,13.5V320h40.3C740.8,320,746.7,325.9,746.7,333.1z M693.3,586.7H586.7V640
	h106.7V586.7z M693.3,480H586.7v53.3h106.7V480z M693.3,373.3H586.7v53.3h106.7V373.3z"/>
</svg>
