<?xml version="1.0" encoding="utf-8"?>
<!-- Generator: Adobe Illustrator 28.0.0, SVG Export Plug-In . SVG Version: 6.00 Build 0)  -->
<svg version="1.1" id="Capa_1" xmlns="http://www.w3.org/2000/svg" xmlns:xlink="http://www.w3.org/1999/xlink" x="0px" y="0px"
	 viewBox="0 0 800 800" style="enable-background:new 0 0 800 800;" xml:space="preserve">
<style type="text/css">
	.st0{fill:#E6BB59;}
</style>
<g>
	<path class="st0" d="M778.6,464.1c0-12.5-3-24.5-8.7-35.4c18.8-14.3,30-36.6,30-60.8c0-42.2-34.4-76.6-76.6-76.6H515.9
		c17.9-45.7,27.6-101.1,27.6-158.5c0-36.4-29.6-65.9-65.9-65.9c-36.4,0-65.9,29.6-65.9,65.9c0,129.9-90.6,227.2-225.6,241.9
		c-0.9,0.1-1.8,0.3-2.7,0.6c-8.9-8-20.6-12.9-33.5-12.9H50c-27.6,0-50,22.4-50,50V650c0,27.6,22.4,50,50,50h100
		c15.3,0,28.9-6.9,38.1-17.7c32,4.7,52.7,14.9,72.8,24.8c25.8,12.7,52.4,25.9,99.2,25.9h299.2c42.2,0,76.6-34.4,76.6-76.6
		c0-12.5-3-24.5-8.7-35.4c18.8-14.3,30-36.6,30-60.8c0-12.5-3-24.5-8.7-35.4C767.4,510.6,778.6,488.3,778.6,464.1z M727.4,508.9
		h-21.2c-6.9,0-12.5,5.6-12.5,12.5s5.6,12.5,12.5,12.5h18.7c4.8,8,7.3,16.9,7.3,26.3c0,18.9-10.2,36.1-26.8,45.2h-22.7
		c-6.9,0-12.5,5.6-12.5,12.5s5.6,12.5,12.5,12.5h21.1c4.6,7.9,7.1,16.7,7.1,26c0,28.5-23.2,51.6-51.6,51.6H360.1
		c-41,0-62.8-10.8-88.1-23.3c-19.3-9.6-41-20.3-72.8-25.9c0.5-2.9,0.8-5.8,0.8-8.8V460.9c0-6.9-5.6-12.5-12.5-12.5
		S175,454,175,460.9V650c0,13.8-11.2,25-25,25H50c-13.8,0-25-11.2-25-25V412.5c0-13.8,11.2-25,25-25h100c13.8,0,25,11.2,25,25
		c0,6.9,5.6,12.5,12.5,12.5s12.5-5.6,12.5-12.5c0-4.9-0.7-9.5-2-14c70-9.5,129.4-39.6,172.3-87.2c42.8-47.5,66.4-110.9,66.4-178.5
		c0-22.6,18.4-40.9,40.9-40.9s40.9,18.4,40.9,40.9c0,61.4-11.7,120.3-32.8,165.7c-2.9,6.3-0.2,13.7,6,16.6c2,1,4.2,1.3,6.3,1.1
		c0.3,0,0.6,0,0.9,0h224.4c28.5,0,51.6,23.2,51.6,51.6c0,18.4-9.7,35.2-25.6,44.5H726c-6.9,0-12.5,5.6-12.5,12.5
		c0,6.9,5.6,12.5,12.5,12.5h20.1c4.9,8.1,7.5,17.2,7.5,26.7C753.6,482.8,743.6,499.8,727.4,508.9z"/>
	<path class="st0" d="M660,508.9h-13.3c-6.9,0-12.5,5.6-12.5,12.5s5.6,12.5,12.5,12.5H660c6.9,0,12.5-5.6,12.5-12.5
		S666.9,508.9,660,508.9z"/>
	<path class="st0" d="M682.7,412.4h-13.3c-6.9,0-12.5,5.6-12.5,12.5c0,6.9,5.6,12.5,12.5,12.5h13.3c6.9,0,12.5-5.6,12.5-12.5
		C695.2,418,689.6,412.4,682.7,412.4z"/>
	<path class="st0" d="M637.2,605.5h-13.3c-6.9,0-12.5,5.6-12.5,12.5s5.6,12.5,12.5,12.5h13.3c6.9,0,12.5-5.6,12.5-12.5
		S644.1,605.5,637.2,605.5z"/>
	<path class="st0" d="M125,412.5c-13.8,0-25,11.2-25,25s11.2,25,25,25s25-11.2,25-25S138.8,412.5,125,412.5z"/>
</g>
</svg>
