<?xml version="1.0" encoding="utf-8"?>
<!-- Generator: Adobe Illustrator 28.0.0, SVG Export Plug-In . SVG Version: 6.00 Build 0)  -->
<svg version="1.1" id="Capa_1" xmlns="http://www.w3.org/2000/svg" xmlns:xlink="http://www.w3.org/1999/xlink" x="0px" y="0px"
	 viewBox="0 0 800 800" style="enable-background:new 0 0 800 800;" xml:space="preserve">
<style type="text/css">
	.st0{fill:#E6BB59;}
</style>
<g>
	<g>
		<g>
			<g>
				<g>
					<path class="st0" d="M213.4,267c0-58.1,15.7-112.5,42.8-159.4c6.6-11.4-3.3-25.4-16.1-22.1C93.6,123.1-12.4,261.7,1.2,422.9
						C14,575.1,137,699.3,289.1,713.5c105.5,9.9,201.4-31.7,266.2-102.3c8.7-9.5,1.3-25-11.6-24.5c-3.4,0.2-6.9,0.2-10.4,0.2
						C356.6,587,213.4,443.7,213.4,267z"/>
				</g>
			</g>
			<g>
				<path class="st0" d="M404.8,97.9l16,46.1l48.8,1.1c6.2,0.1,8.7,8,3.8,11.7l-38.8,29.5l14.1,46.7c1.8,5.9-4.9,10.7-9.9,7.2
					l-40.1-27.8l-40.1,27.8c-5.1,3.5-11.7-1.3-10-7.2l14.1-46.7l-38.8-29.5c-4.9-3.7-2.3-11.6,3.8-11.7l48.8-1.1l16.1-46.1
					C394.5,92.1,402.7,92.1,404.8,97.9z"/>
			</g>
			<g>
				<path class="st0" d="M704.2,462.4l15.4,44.3l46.9,1c6.8,0.2,9.6,8.8,4.2,12.9l-37.3,28.4l13.5,44.8c1.9,6.5-5.4,11.8-11,7.9
					L697.3,575l-38.5,26.7c-5.6,3.9-12.9-1.5-10.9-7.9l13.5-44.8l-37.3-28.4c-5.4-4.1-2.6-12.8,4.2-12.9l46.9-1l15.5-44.3
					C692.8,456,701.9,456,704.2,462.4z"/>
			</g>
			<g>
				<path class="st0" d="M698.3,141.6l23.2,66.4l70.3,1.5c7.9,0.2,11.2,10.2,4.9,15l-56,42.6l20.3,67.4c2.3,7.6-6.2,13.8-12.8,9.3
					l-57.8-40.1l-57.8,40.1c-6.5,4.5-15-1.7-12.8-9.3l20.3-67.4l-56.1-42.6c-6.3-4.8-3-14.8,4.9-15l70.3-1.5l23.2-66.4
					C685.1,134.2,695.7,134.2,698.3,141.6z"/>
			</g>
		</g>
	</g>
</g>
</svg>
