<?xml version="1.0" encoding="utf-8"?>
<!-- Generator: Adobe Illustrator 28.0.0, SVG Export Plug-In . SVG Version: 6.00 Build 0)  -->
<svg version="1.1" id="Layer_1" xmlns="http://www.w3.org/2000/svg" xmlns:xlink="http://www.w3.org/1999/xlink" x="0px" y="0px"
	 viewBox="0 0 800 800" style="enable-background:new 0 0 800 800;" xml:space="preserve">
<style type="text/css">
	.st0{fill:#E6BB59;}
</style>
<g>
	<g>
		<path class="st0" d="M636.1,377.1h-30.3V205.8c0-55.1-21.6-106.9-60.8-145.9C505.9,21,453.9-0.3,398.8,0
			C286,0.6,194.2,93.9,194.2,207.9v42.3c0,27.9,22.7,50.5,50.5,50.5s50.5-22.7,50.5-50.5v-44.4c0-28.1,11-54.5,31.1-74.4
			c20-19.8,46.5-30.6,74.7-30.3c57.2,0.6,103.7,48.2,103.7,106.3v169.8H163.9c-8.8,0-15.9,7.1-15.9,15.9v391
			c0,8.8,7.1,15.9,15.9,15.9h472.3c8.8,0,15.9-7.1,15.9-15.9v-391C652.1,384.3,644.9,377.1,636.1,377.1z M401.3,69.2
			c-36.7-0.4-71.3,13.7-97.4,39.6c-26.1,25.9-40.5,60.3-40.5,97v44.4c0,10.3-8.4,18.7-18.7,18.7c-10.3,0-18.7-8.4-18.7-18.7v-42.3
			c0-96.5,77.6-175.5,172.9-176c0.3,0,0.7,0,1,0c46.2,0,89.7,18,122.6,50.6c33.1,32.9,51.4,76.7,51.4,123.3v171.3h-37.3V207.3
			C536.6,131.9,475.9,69.9,401.3,69.2z M620.2,768.1H179.8V409h440.4V768.1z"/>
	</g>
</g>
<g>
	<g>
		<path class="st0" d="M400,494.2c-8.8,0-15.9,7.1-15.9,15.9v15.3c0,8.8,7.1,15.9,15.9,15.9c8.8,0,15.9-7.1,15.9-15.9v-15.3
			C415.9,501.4,408.8,494.2,400,494.2z"/>
	</g>
</g>
<g>
	<g>
		<path class="st0" d="M400,566.9c-8.8,0-15.9,7.1-15.9,15.9v86.5c0,8.8,7.1,15.9,15.9,15.9c8.8,0,15.9-7.1,15.9-15.9v-86.5
			C415.9,574,408.8,566.9,400,566.9z"/>
	</g>
</g>
</svg>
