<?xml version="1.0" encoding="utf-8"?>
<!-- Generator: Adobe Illustrator 28.0.0, SVG Export Plug-In . SVG Version: 6.00 Build 0)  -->
<svg version="1.1" id="Layer_1" xmlns="http://www.w3.org/2000/svg" xmlns:xlink="http://www.w3.org/1999/xlink" x="0px" y="0px"
	 viewBox="0 0 800 800" style="enable-background:new 0 0 800 800;" xml:space="preserve">
<style type="text/css">
	.st0{fill:#FFFFFF;}
	.st1{fill:#E6BB59;}
	.st2{fill:#6D6A77;}
	.st3{fill:#211715;}
</style>
<path class="st0" d="M606.3,137.8c-13-25.2-41.1-49.6-100.9-49.6c-132.9,0-118,104-118,104c-3.5-3.3-8.2-5-13-4.7
	c-9.3,0.3-13.3,5.4-15,8.3c-5.1,8.8-4.9,25.1-1.5,35.1c2.4,7.1,6.4,18,15.9,25.8c4.6,3.8,10.7,5.4,16.5,4.1
	c5.2,17.9,14,34.5,25.9,48.9c8,10,17.7,18.5,28.7,25.2c0,12.5-1,25.9-10.1,32.3c-11.6,13-32.5,24.2-27.6,21.1
	c0.5,1.6,0.9,2.8,0.9,2.8s18.7,58.2,97,58.2s97.4-60.6,97.4-60.6c-1.9-0.8-26.7-15.1-36.3-28.3l-2-5c-2.5-6.2-3.1-14-3.1-21.5
	c24.7-16,43.7-49,47.3-58.8c2.1-4.6,3.8-9.4,5.2-14.2l1.5,0.2c5.5,0.7,11-0.9,15.3-4.4c9.5-7.8,13.5-18.7,15.9-25.8
	c3.4-10.1,3.6-26.3-1.5-35.1c-1.7-3-5.7-8-15-8.3c-4.8-0.2-9.5,1.5-13,4.7C618.4,173.5,614.7,154.7,606.3,137.8z"/>
<path class="st1" d="M626.2,78.7c-5.4-8.7-12-16.5-19.7-23.2l-18.3-16.3c-23.8-26.5-55.4-33.8-86.5-33.8
	c-31.5-0.4-62.3,9.7-87.3,28.7c-9.4,7.4-17.6,16-24.6,25.6c-16,15.6-28.7,49.7-27.7,83.6c-0.1,15.3,1.8,30.6,5.6,45.4
	c2.2-0.8,4.5-1.3,6.8-1.3c4.8-0.2,9.5,1.5,13,4.7l5.2,3.6c0.4-6.9,1.1-13.8,2.2-20.6c2.4-14.5,17.4-21.2,23.8-34.1
	c3.7-7.5,5.9-16.2,12.2-21.5c4.7-4,11.1-5.3,17.2-6c9.5-1,41.5,0.4,52.2,2.4c9.1,0.5,17.8,2.3,30.7,4c7,0.9,20,3.2,25,4.2
	c19.5,4.5,27,9.4,36.8,22.7c3.8,5.1,7.8,14.4,11.5,26.5l12.9,18.9c3.5-3.3,8.2-5,13-4.7c2.2,0.1,4.3,0.4,6.4,1.1
	c4.3-16.9,6.1-29.7,5.4-45.2C640.5,113.5,635.5,94.1,626.2,78.7z"/>
<path class="st1" d="M483.1,288.8c6.9,3.6,14.5,5.3,22.3,5.2c8-0.1,16-1.6,22.4-6.6c2.1-2.1,2.1-5.5,0-7.6c-2.1-2-5.5-2-7.6,0
	c1.6-1.2,0.3-0.2-0.2,0c-0.4,0.3-0.9,0.6-1.4,0.8c-0.3,0.2-2,0.9-0.6,0.3c-0.6,0.2-1.3,0.5-1.9,0.7c-3.7,1.2-7.6,1.7-11.4,1.5
	c-3.7,0.1-7.4-0.4-10.9-1.5c-0.7-0.2-1.4-0.5-2.1-0.7c-0.2-0.1-0.4-0.2-0.7-0.3c1.3,0.4,0.4,0.2,0.1,0c-0.9-0.4-1.7-0.8-2.6-1.3
	c-2.6-1.4-5.8-0.6-7.4,1.9C479.7,284,480.5,287.3,483.1,288.8L483.1,288.8z"/>
<path class="st1" d="M502.8,236c1,3.7,1.9,7.5,2.5,11.4l-0.2-1.4c0.1,0.5,0.1,1,0,1.6l0.2-1.4c0,0.2-0.1,0.5-0.2,0.7l0.5-1.3
	c-0.1,0.2-0.2,0.3-0.2,0.4l0.8-1.1c-0.1,0.1-0.2,0.3-0.4,0.4l1.1-0.8c-0.3,0.2-0.6,0.3-0.9,0.5l1.3-0.5c-0.5,0.2-1,0.4-1.5,0.4
	l1.4-0.2c-0.5,0.1-1,0.1-1.4,0l1.4,0.2c-0.5-0.1-1.1-0.2-1.6-0.3c-1.4-0.3-2.9-0.1-4.1,0.5c-2.6,1.5-3.4,4.8-1.9,7.4c0,0,0,0,0,0
	c0.7,1.2,1.8,2.1,3.2,2.5c1.2,0.2,2.3,0.5,3.5,0.5c1.8,0,3.6-0.4,5.2-1.2c2-0.9,3.5-2.7,4.1-4.9c0.4-1.7,0.3-3.5-0.1-5.3
	c-0.6-3.7-1.5-7.3-2.4-10.9c-0.8-2.9-3.7-4.5-6.6-3.8C503.7,230.2,502,233.1,502.8,236L502.8,236z"/>
<path class="st1" d="M442,203.9c-1.9,6.2-0.7,20.4,11,21.6c15.5-0.1,16.3-17.3,11.1-25.4C459.8,193.5,447.3,190.8,442,203.9z"/>
<path class="st1" d="M566.3,203.9c1.9,6.2,0.7,20.4-11,21.6c-15.5-0.1-16.3-17.3-11.1-25.4C548.4,193.5,561,190.8,566.3,203.9z"/>
<path class="st1" d="M391.2,188.4c-7.5-6.7-18.3-8.2-27.3-3.9c-6.7,3.2-10.6,9.8-12.3,16.8c-4,16.4,0.2,35.2,9.6,49.1
	c6.8,10.1,16.7,17.6,29.4,15.8c2.9-0.8,4.5-3.8,3.8-6.6c-0.9-2.8-3.8-4.5-6.6-3.8c-7.2,1-13.3-5.2-17-10.5c-3.4-5.1-6-10.7-7.8-16.6
	c-1.9-6.4-2.5-13.1-1.8-19.7c0.2-3,0.9-6,2-8.8c0.4-1,0.9-1.9,1.5-2.8c0.2-0.3,0.8-1,0.2-0.3c0.4-0.4,0.8-0.9,1.2-1.3
	c0.9-0.9,2-1.6,3.1-2c1.3-0.5,2.8-0.8,4.2-1c3.7-0.4,7.3,0.7,10.1,3.1C388.7,200.7,396.3,193.1,391.2,188.4L391.2,188.4z"/>
<path class="st1" d="M620.8,196c5-4.9,13.1-4.7,17.9,0.3c0.1,0.1,0.3,0.3,0.4,0.5c0.7,0.7-0.2-0.4,0.3,0.4c0.3,0.4,0.6,0.9,0.8,1.3
	c1.4,2.6,2.3,5.5,2.7,8.4c1.7,12.5-1,25.3-7.7,36c-3.7,6.2-10.4,14.1-18.6,13c-2.8-0.7-5.7,1-6.6,3.8c-0.8,2.9,0.9,5.8,3.8,6.6
	c20.7,2.9,32.9-17.9,38.1-35c2.5-8.7,3-17.9,1.5-26.8c-1.2-7.2-4.2-14.2-10.4-18.5c-9.3-6-21.6-5-29.8,2.4
	C608.1,193.1,615.7,200.7,620.8,196L620.8,196z"/>
<path class="st1" d="M610.7,251c-2,8.1-4.6,16.1-7.9,23.8c0.2-0.6,0.2-0.5-0.2,0.3c-0.2,0.4-0.4,0.9-0.6,1.3
	c-0.5,1.1-1.1,2.3-1.7,3.4c-1.5,2.8-3,5.5-4.6,8.1c-8.2,13.9-18.7,26.3-31,36.7c-6.6,5.7-14.5,9.7-22.9,11.9
	c-6.7,1.6-3.9,11.9,2.9,10.4c17.4-4,31.8-16.7,43.1-29.9c9.7-11,17.9-23.3,24.2-36.5c0.4-0.8,0.7-1.7,1.1-2.5c0.2-0.3,0.3-0.7,0.4-1
	c-0.4,1,0.3-0.6,0.3-0.6c0.3-0.7,0.6-1.4,0.9-2.1c0.5-1.2,1-2.4,1.4-3.5c2.1-5.5,3.8-11.2,5-16.9c0.7-2.9-0.9-5.8-3.8-6.6
	C614.5,246.5,611.5,248.2,610.7,251L610.7,251z"/>
<path class="st1" d="M382.9,253.5c3.8,16.9,10.6,33,20.2,47.5c10.3,15.5,23.9,30.1,40.3,39.2c8.4,4.7,17.7,7.9,27.3,9.3
	c2.8,0.7,5.7-1,6.6-3.8c0.8-2.9-0.9-5.8-3.8-6.6c-34.1-5-59.6-34.6-72.6-64.9c-3.2-7.6-5.8-15.6-7.6-23.7
	C391.8,243.9,381.4,246.7,382.9,253.5z"/>
<path class="st1" d="M592,35.5C575.8,18,554.3,6.4,530.8,2.5c-23.8-4.3-48.2-3.2-71.5,3.2c-22.6,6.3-43.3,18.3-60.1,34.7
	c-4.6,4.6-8.8,9.5-12.7,14.7c-2.9,3.9-6.3,7.3-9.1,11.3c-6.5,9.8-11.4,20.5-14.6,31.8c-4.3,14.3-6.4,29.2-6.2,44.2
	c0,15.5,1.8,31,5.3,46.1c1.7,6.7,12.1,3.9,10.4-2.9c-3.1-12.6-4.7-25.5-4.9-38.5c-0.5-12.4,0.6-24.7,3.3-36.8
	c2.4-11.1,6.4-21.7,11.8-31.7c2.2-4.1,4.8-8,7.8-11.5c1.5-1.8,3.2-3.4,4.6-5.4c1.8-2.5,3.7-4.8,5.7-7.1c14.5-16.5,33-28.9,53.8-36
	c21.3-7.2,43.9-9.5,66.2-6.7c24.5,2.7,47.1,12.8,63.8,31.2C589,48.2,596.6,40.6,592,35.5L592,35.5z"/>
<path class="st1" d="M641.9,188.5c3.1-11.9,4.9-24.1,5.3-36.3c0.1-11.5-0.7-22.9-2.4-34.2c-2.4-16.5-7.3-32.8-17-46.6
	c-5.1-7.2-11-13.7-17.6-19.6c-5.1-4.6-12.7,2.9-7.6,7.6c10.5,9.5,19.3,20.2,24.5,33.1c6.9,17.2,9,36.4,9.3,54.8
	c0,12.9-1.7,25.8-5,38.3C629.9,192.4,640.2,195.2,641.9,188.5L641.9,188.5z"/>
<path class="st1" d="M501.5,110.8c-9.3-1.4-18.6-2.3-28-2.5c-8.8-0.7-17.7-0.7-26.5,0c-7,0.8-13.8,2.4-19.4,6.9
	c-5.1,4.1-8,10-10.5,16c-2,5.4-4.8,10.4-8.4,14.8c-3.7,4.2-7.8,7.9-11.3,12.2c-4.4,5.3-7.3,11.7-8.3,18.6
	c-1.1,7.2-1.6,14.3-2.2,21.6c0,3,2.4,5.3,5.4,5.4c2.9-0.1,5.3-2.4,5.4-5.4c0.8-10.4,0.2-22.8,6.6-31.6c6.3-8.6,15.1-14.6,19.7-24.5
	c2.4-5.3,4.2-11.2,7.8-15.9c3.4-4.5,8.7-6.3,14.1-7.1c8-0.9,16-1,24-0.3c5.5,0.2,11,0.5,16.5,0.9c2.5,0.2,5,0.4,7.5,0.7
	c0.4,0,0.9,0.1,1.4,0.2c0.2,0,2,0.3,0.8,0.1c0.8,0.1,1.7,0.3,2.5,0.4c2.9,0.7,5.8-0.9,6.6-3.8C506,114.6,504.4,111.7,501.5,110.8
	L501.5,110.8z"/>
<path class="st1" d="M554.4,129.4c5.7,1.2,11.3,2.9,16.7,5.2c4.2,1.9,8,4.6,11.1,8c8.7,8.9,13.1,20.2,16.7,32.1
	c2,6.6,12.4,3.8,10.4-2.9c-2.2-7.7-5.2-15.3-8.8-22.5c-2.9-5.3-6.5-10.1-10.7-14.4c-8.8-9.1-20.4-13.2-32.5-16
	C550.5,117.4,547.6,127.8,554.4,129.4L554.4,129.4z"/>
<path class="st1" d="M536.7,116.3c-1.8-7.5-7.7-13.9-13.6-18.6c-9.9-7.4-21.5-11.9-33.8-13.3c-3,0-5.4,2.4-5.4,5.4
	c0.1,2.9,2.4,5.3,5.4,5.4c5.4,0.7,10.7,2.2,15.8,4.3c-0.6-0.3,0.8,0.3,0.9,0.4c0.6,0.3,1.2,0.6,1.8,0.9c1.1,0.5,2.1,1.1,3.2,1.7
	c1,0.6,2,1.2,2.9,1.8c0.5,0.3,1,0.7,1.5,1c0.2,0.1,1.3,1,0.5,0.3c1.6,1.2,3.1,2.6,4.5,4c0.6,0.6,1.2,1.2,1.7,1.9
	c0.3,0.4,0.6,0.7,0.9,1.1c0.2,0.3,0.2,0.2-0.2-0.3c0.2,0.2,0.3,0.4,0.4,0.6c0.9,1.2,1.6,2.5,2.3,3.8c0.1,0.3,0.2,0.6,0.4,0.8
	c-0.7-1.3-0.2-0.6-0.1-0.2c0.2,0.6,0.4,1.2,0.5,1.8c0.8,2.9,3.7,4.5,6.6,3.8C535.8,122.2,537.5,119.2,536.7,116.3L536.7,116.3z"/>
<path class="st0" d="M193.4,424.5c-6.6-15.8-11.7-25.5-20.2-41.8c-0.5-1-4.3-6.3-7.9-7.3c-3.3-1-6.8-0.1-9.2,2.4
	c-2.3,2.2-3.7,5.3-3.7,8.5c0,11.1,1.7,22.2,5,32.8c-19-2.6-57.1-20.6-77.4-31.4c-4.9-2.6-9.7-5.5-15.2-6.3
	c-5.7-0.8-15.7,3.1-17.6,8.5c-7.7-3.7-11.9-3.7-16.7-1.8c-5.7,2.2-7.4,4.5-8.5,7.7c-1.4,3.6-1.2,7.6,0.5,11.1c0.3,0.5,0.4,1,0.5,1.6
	c0,0.6-0.2,1.1-0.6,1.6c-3.2,6.9-1.6,15,4,20.1c-2.1,3.6-1.7,8.1,1,11.2c14.7,16.7,67.3,47.4,97.3,58.9c1.7,0.5,3.2,1.3,4.6,2.5
	c1.4,1.5,2.4,3.3,3,5.3c1.9,5.1,3.3,8.7,4.8,13.4c13.6-3.8,46.2-13,64.5-19.8c-1.6-5.2-2.8-10.6-3.6-16l-0.3-4.1
	c3.2-17.7,4.4-35.4-2.3-52.2C194.7,427.6,194,426,193.4,424.5z"/>
<path class="st1" d="M152.9,412.7c-15.2-3.7-29.7-10.1-43.9-16.7c-7.3-3.4-14.4-6.9-21.6-10.5c-7.5-3.9-15.4-9.5-24.2-9.6
	c-8.5-0.2-18.1,4.6-21.4,12.6l7.9-3.2c-4.2-2.3-9-3.6-13.8-3.8c-4.3,0.2-8.5,1.5-12.2,3.8c-3.4,2.1-5.9,5.3-7.1,9
	c-0.9,2.6-1.2,5.3-1,8c0.5,2.6,1.2,5.1,2,7.6v-2.9c-0.4,1.8-1.5,3.5-1.9,5.5c-0.5,2.3-0.6,4.6-0.3,7c0.5,5,2.6,9.7,6,13.4
	c4.6,5.2,12.2-2.4,7.6-7.6c-2.5-2.9-3.6-6.8-2.8-10.6c0.6-2.6,2.4-4.7,1.7-7.6c-0.6-2.7-2.1-4.8-1.6-7.7c0.1-0.6,0.3-1.1,0.4-1.7
	c0-0.1,0.6-1.5,0.2-0.7c0.2-0.5,0.5-1,0.9-1.4c1.4-1.2,3-2.1,4.7-2.6c4-1.3,7.5-0.3,11.6,1.6c2.7,1.5,6,0.5,7.5-2.2
	c0.2-0.3,0.3-0.7,0.4-1.1c-0.2,0.5,0.3-0.3,0.4-0.4c0.4-0.4,0.8-0.8,1.2-1.1c1.1-0.8,2.3-1.4,3.5-1.9c2.6-1.2,5.6-1.5,8.4-0.9
	c7,1.8,13.5,6.4,19.9,9.6c13.8,7,27.9,13.5,42.3,19.2c7.2,2.9,14.6,5.4,22.1,7.3C156.8,424.7,159.7,414.3,152.9,412.7L152.9,412.7z"
	/>
<path class="st1" d="M30.7,433.5c0-0.4,0.2-0.7-0.1-0.3c-0.2,0.3-0.5-0.2,0.4-0.2c0.5-0.1,1.1-0.2,1.7-0.3c2.2,0.1,4.7,1.9,6.6,2.9
	c5.5,2.8,11,5.6,16.5,8.3c10.6,5.6,21.7,10.2,33.1,13.9c6.7,1.9,9.5-8.4,2.9-10.4c-13.2-3.8-25.4-10.2-37.6-16.4
	c-3-1.5-6-3.1-9.1-4.6c-3-1.8-6.2-3.2-9.5-4.2c-5.9-1.2-14.4,1.5-15.3,8.3c-0.7,2.8,1,5.7,3.8,6.6C27,438,29.9,436.3,30.7,433.5
	L30.7,433.5z"/>
<path class="st1" d="M27.8,411.5c1.5-0.9,3.3-1.1,4.9-0.4c2.8,1.2,5.5,2.5,8.2,3.8c6.5,3.1,13,6.2,19.6,9.1
	c11.8,5.2,23.5,10.7,35.4,15.6c2.9,0.8,5.8-0.9,6.6-3.8c0.7-2.9-0.9-5.8-3.8-6.6c-11.9-4.8-24.4-10.8-36.6-16.1
	c-7.4-3.2-14.6-7-22-10.3c-3-1.6-6.3-2.6-9.7-2.8c-3.8-0.2-7.5,1.2-10.3,3.9c-2,2.1-2,5.5,0,7.6C22.4,413.5,25.7,413.5,27.8,411.5
	L27.8,411.5z"/>
<path class="st1" d="M20.4,430.6c-2.9,10.5,5.7,17.5,13,23.3c7.6,6.1,15.6,11.7,23.9,16.9c18.1,11.6,37,21.9,56.6,30.6
	c2.6,1.1,5.2,2.2,7.8,3.3c2.4,1,4.1,1.3,5.2,3.9c2.7,6.5,5,13.2,6.9,20c2,6.6,12.4,3.8,10.4-2.9c-1.8-5.9-3.9-11.6-6-17.4
	c-0.8-2.7-2-5.4-3.6-7.8c-2.3-2.8-5.5-4.8-9-5.8c-8.7-3.5-17.2-7.4-25.5-11.8c-18.7-9.4-36.7-20.3-53.7-32.5
	c-3.5-2.5-6.9-5.3-10.2-8.2c-2.6-2.3-6.5-5-5.5-8.9C32.5,426.8,22.2,423.9,20.4,430.6L20.4,430.6z"/>
<path class="st1" d="M201.7,488.8c2.7-13.4,4.9-27.3,3.5-41.1c-1.4-13.5-6.8-25.7-12.4-37.8c-2.3-5-4.7-10-7.3-14.9
	c-2.6-5.1-5-10.6-8-15.5c-2.6-4.1-6.7-8.4-11.6-9.5c-6.5-1.3-13.1,1.7-16.3,7.5c-3.8,5.9-2.6,13.8-1.9,20.4
	c0.8,7.9,2.3,15.7,4.7,23.2c2.1,6.6,12.5,3.8,10.4-2.9c-1.8-5.7-3.2-11.5-4-17.4c-0.3-2.4-0.5-4.9-0.7-7.3c-0.4-2.7-0.5-5.5-0.3-8.2
	c0.5-3.1,3.8-6.1,6.6-4.5c3.3,1.9,4.4,5,6.1,8.3c4.6,8.9,9.3,17.8,13.4,26.9c4.5,9.8,9.1,19.8,10.4,30.6c1.6,13.1-0.4,26.4-3,39.2
	c-0.7,2.9,0.9,5.8,3.8,6.6C197.9,493.3,200.9,491.6,201.7,488.8L201.7,488.8z"/>
<path class="st1" d="M44.5,394.5c9.7,4.5,19,9.9,28.6,14.5c11.3,5.4,22.2,11.5,33.3,17.3c6.1,3.2,11.6-6.1,5.4-9.3
	c-11.1-5.8-22-11.9-33.3-17.3c-9.7-4.6-18.9-10-28.6-14.5c-2.6-1.4-5.8-0.6-7.4,1.9C41.1,389.7,41.9,393,44.5,394.5L44.5,394.5z"/>
<path class="st1" d="M113.2,420.2c-10.7,8.9-21,18.3-30.8,28.3c-2.1,2.1-2.1,5.5,0,7.6c2.1,2.1,5.5,2.1,7.6,0
	c9.8-9.9,20.1-19.4,30.8-28.3c2.1-2.1,2.1-5.5,0-7.6C118.6,418.1,115.3,418.1,113.2,420.2L113.2,420.2z"/>
<path class="st1" d="M93.6,458.9c5.7,0.1,11.5,0.4,17.2,0.8c5.1,0.2,10.1,0.9,15,2c7.7,2.2,14.2,7.6,17.6,14.9
	c1.5,2.5,4.8,3.4,7.4,1.9c2.5-1.5,3.4-4.8,1.9-7.4c-4.6-9.2-12.6-16.2-22.4-19.4c-5.7-1.6-11.5-2.5-17.3-2.7
	c-6.4-0.5-12.9-0.9-19.4-1C86.6,448,86.6,458.7,93.6,458.9L93.6,458.9z"/>
<path class="st1" d="M192.6,485.4c0.8,8.4,3.6,16.5,5.8,24.6c0.8,2.9,3.7,4.5,6.6,3.8s4.5-3.7,3.8-6.6l0,0
	c-1.1-3.9-2.2-7.8-3.2-11.6c-0.5-2-1-4.1-1.5-6.1c-0.2-0.9-0.4-1.8-0.5-2.7c-0.1-0.4-0.2-0.9-0.2-1.3c0,0,0.2,1.4,0.1,0.7
	c0-0.2,0-0.4-0.1-0.7c0-3-2.4-5.4-5.4-5.4C195,480.1,192.6,482.5,192.6,485.4L192.6,485.4L192.6,485.4z"/>
<path class="st0" d="M134,522.1c11.8-3.3,54.1-15,72.2-22.5c1.7,4.4,5.3,15.1,7.5,20.8l0.5,1.2c-23,8.9-53.9,19.3-76.5,23.3
	l-0.1-0.4c-2.2-7-5.4-19.6-6.1-21.7L134,522.1z"/>
<path class="st1" d="M554.9,334.6c0.2,9.1,0.7,19.2,5.7,27.1c3.8,5.5,8.4,10.3,13.6,14.4c5.2,4.3,10.7,8.2,16.4,11.9
	c2.9,2,6,3.9,9.2,5.5c2.6,1.4,5.8,0.6,7.4-1.9c1.5-2.6,0.6-5.8-1.9-7.4c-2.9-1.4-5.7-3.1-8.3-4.9c-4.9-3-9.6-6.4-14.1-9.9
	c-2.6-2-5-4.2-7.4-6.5c-1.8-1.7-3.5-3.6-5-5.6c-0.8-1.1-1.5-2.3-2.1-3.5c0.6,1.2-0.4-1.2-0.4-1.3c-0.4-1.2-0.7-2.4-1-3.6
	c-0.9-4.7-1.4-9.5-1.3-14.2C565.6,327.7,554.8,327.7,554.9,334.6L554.9,334.6z"/>
<path class="st1" d="M409.4,393.4c3.1-1.6,6.1-3.4,8.9-5.4c5.3-3.5,10.4-7.5,15.2-11.7c4.8-4,8.8-9,11.7-14.5c4-8.4,4.3-18,4.3-27.1
	c0-6.9-10.7-6.9-10.7,0c0.1,4.3-0.2,8.6-0.6,12.9c-0.4,3.4-1.3,6.7-2.7,9.8c-2.8,4.7-6.3,8.8-10.6,12.3c-4.1,3.5-8.4,6.8-12.9,9.7
	c-2.5,1.8-5.2,3.4-7.9,4.8c-2.5,1.5-3.4,4.8-1.9,7.4C403.6,394,406.8,394.8,409.4,393.4L409.4,393.4z"/>
<path class="st1" d="M779.2,794c-10.9-151.3-28.1-285.9-41.9-332.1c-4-13.3-10-21.2-16.6-26.5c-6.6-5.3-17.7-8.8-25.3-12.5
	c-24.9-12-57.5-25.4-83-36.1l-4.9-2c-7.5-7.9-16-14.8-25.1-20.7c-11.2,47.8-31,99.5-46.7,146c-10.5,31.2-21.1,62.5-31.6,93.7
	c-14.1-34.9-23.4-58.3-35.3-93.7c-15.7-46.5-35.5-98.2-46.7-146c-9.7,6.2-18.5,13.6-26.4,22l-5.4,2.2c-25.6,10.7-58.1,24.1-83,36.1
	c-7.7,3.7-16.7,5.5-22.5,11.7c-5.9,6.4-10.5,13.9-13.5,22.1c-16.4,42.8-20,68.2-35,109.2c-4.8-15.9-9.4-31.6-14.5-48.6
	c-25.8,10.5-66.7,24.5-91.8,27.4c8.3,40.4,16.4,83.8,29.8,124.7c9.3,28.4,23.2,55.5,51.2,65.9c21.2,8.3,45.1,6.3,64.7-5.4
	c16.7-9.8,36.1-31.1,48.2-43.7l5.2-4.8c1.1,15.7,0.8,31,0.8,47.7c0,22.3-1.3,38.7-1.3,64L779.2,794z"/>
<path class="st1" d="M241.4,568.7c11.2-30.5,18.4-62.2,29-92.8c2.5-8.3,5.7-16.3,9.5-24.1c3.5-6.4,8-12.8,14.6-16.2
	c3.3-1.7,6.8-2.9,10.2-4.3c3.8-1.6,7.5-3.4,11.2-5.2c7.6-3.6,15.3-7,23-10.4c17.5-7.7,35.1-15,52.7-22.3c2.8-0.9,4.4-3.8,3.8-6.6
	c-0.8-2.8-3.8-4.5-6.6-3.8c-16.3,6.8-32.7,13.6-49,20.6c-15.3,6.6-30.3,13.8-45.6,20.2c-4,1.5-7.8,3.7-11.1,6.3
	c-3.1,2.8-5.9,5.9-8.2,9.4c-4.8,7.3-8.7,15.3-11.4,23.7c-5.8,15.8-10.7,32-15.4,48.2c-5.2,18.3-10.6,36.5-17.1,54.3
	c-0.8,2.9,0.9,5.8,3.8,6.6C237.7,573.2,240.6,571.5,241.4,568.7L241.4,568.7z"/>
<path class="st0" d="M508.1,384.7c-0.2,0.1-0.3,0.3-0.4,0.5h-10.4c-1.3-1.2-2.9-2-4.6-2.6c-23.7-9.5-43.4-24-52-35.7
	c-8.5,7.8-11.2,13.9-16.8,24.5c11.4,45.7,30,94.4,44.9,138.6c11.9,35.3,21.2,58.8,35.3,93.7c10.5-31.2,21.1-62.4,31.6-93.7
	c15-44.4,33.7-93.3,45.1-139.2c-5.3-10.2-8.1-16.2-16.4-23.8c-8.6,11.6-28.4,26.1-52,35.7C510.8,383.1,509.4,383.8,508.1,384.7z"/>
<path class="st0" d="M543.4,424.7c14.6-17.1,26.7-36.2,35.8-56.7c-4.4-8.6-7.4-14.1-15-21.1c-8.6,11.6-28.4,26.1-52,35.7
	c-1.7,0.6-3.3,1.4-4.6,2.6c-0.6,1.1,0.5,2,1.1,2.8c0.8,1.3,4.8,4.6,11.6,12.1C528,408.6,537.1,417.1,543.4,424.7z"/>
<path class="st0" d="M461.4,424.7c-14.6-17.1-26.7-36.2-35.8-56.7c4.4-8.6,7.4-14.1,15-21.1c8.6,11.6,28.4,26.1,52,35.7
	c1.7,0.6,3.3,1.4,4.6,2.6c0.6,1.1-0.5,2-1.1,2.8c-0.8,1.3-4.8,4.6-11.6,12.1C476.9,408.6,467.8,417.1,461.4,424.7z"/>
<path class="st1" d="M509,391.9c-5.8,0-10.7,0-16.6,0c-1.9,1.9-4.6,4.6-7.9,8.2c-1.8,1.9-3.6,3.9-5.4,5.8c1.3,6.8,2.2,11,3.7,17.2
	c0.2,1.1,0.5,2.1,0.8,3.2c0.7,2.3,1.1,4.7,1.2,7.1c0,1.4-6.8,50.7-11.5,89.8c9.9,28.4,18.5,50.2,30.8,80.5l29-85.9
	c-6-39.8-12.3-81.4-12.2-83.6c0.3-4.3,1.2-8.6,2.8-12.6c1.7-5.1,2.7-9.6,3.8-14c-2.4-2.5-4.8-5-7.1-7.5c-3.3-3.6-6-6.3-7.9-8.2
	L509,391.9z"/>
<path class="st2" d="M486.4,438.4c11.1,0,22.3-0.2,33.4-0.3c3,0,5.4-2.4,5.4-5.4c0-3-2.4-5.4-5.4-5.4c-11.1,0-22.3,0.2-33.4,0.3
	c-3,0-5.4,2.4-5.4,5.4C481,436,483.4,438.4,486.4,438.4z"/>
<path class="st2" d="M474.5,410c1,4.8,2,9.7,3.1,14.5c1,3,1.6,6.2,1.7,9.4c-0.2,3.3-0.8,6.7-1.3,10c-2,15.2-4,30.4-6,45.6
	c-1.3,10.5-2.7,20.9-3.9,31.4c0,3,2.4,5.4,5.4,5.4c2.9-0.1,5.3-2.4,5.4-5.4c2.2-18.2,4.6-36.3,6.9-54.5c1.4-10.7,3.3-21.4,4.2-32.1
	c0.1-3.3-0.4-6.7-1.4-9.9c-1.4-5.7-2.6-11.4-3.8-17.2c-0.8-2.8-3.8-4.5-6.6-3.8C475.4,404.2,473.7,407.2,474.5,410z"/>
<path class="st3" d="M511.8,386.5c-6.6,0-13.2,0-19.8,0c-3,0-5.4,2.4-5.4,5.4c0,3,2.4,5.4,5.4,5.4c6.6,0,13.2,0,19.8,0
	c3,0,5.4-2.4,5.4-5.4C517.1,388.9,514.7,386.5,511.8,386.5z"/>
<path class="st2" d="M538.2,516.3c-2.6-17.4-5.2-34.7-7.8-52.1c-1-6.5-1.9-12.9-2.8-19.4c-0.3-2.3-0.7-4.6-1-6.9
	c-0.1-0.4,0.1,1,0-0.1c0-0.3-0.1-0.7-0.1-1c-0.1-0.6-0.2-1.2-0.2-1.8c-0.1-2.5,0.3-5,1-7.3c1.3-4.7,2.9-9.3,4.1-14.1
	c1.7-6.7-8.7-9.6-10.4-2.9c-1.9,7.6-5.9,15.7-5.6,23.6c0.3,3.3,0.7,6.7,1.3,9.9c2,14.3,4.2,28.7,6.3,43c1.6,10.6,3.2,21.2,4.8,31.8
	c0.8,2.8,3.8,4.5,6.6,3.8C537.3,522.1,538.9,519.2,538.2,516.3L538.2,516.3z"/>
<path class="st2" d="M495.6,611.7c-4.1,11.9-6.2,24.4-6.2,36.9c0.2,7.9,1,15.9,1.5,23.8c1.5,24.1,2.5,48.3,4.2,72.4
	c1.2,16.6,2.5,33.2,3.9,49.7c0.1,2.9,2.4,5.3,5.4,5.4c3,0,5.4-2.4,5.4-5.4c-4.2-47.4-6.2-94.8-9.5-142.3
	c-0.5-12.8,1.4-25.6,5.7-37.8C508.1,608,497.8,605.2,495.6,611.7L495.6,611.7z"/>
<path class="st2" d="M577.2,362.6c-7.6,32.5-18.3,64.3-29.3,95.8c-11.2,32.1-22.2,64.3-33.1,96.5l-19.2,56.8
	c-2.2,6.6,8.2,9.4,10.4,2.9c11.5-34,23-68.1,34.5-102.1c10.6-31.4,22.1-62.4,32.1-94c5.6-17.5,10.7-35.2,14.9-53.1
	C589.1,358.7,578.7,355.8,577.2,362.6L577.2,362.6z"/>
<path class="st2" d="M579.6,368.6c8.2,5.2,15.8,11.4,22.6,18.4c3.7,3.6,7.1,7.4,10.3,11.5c1.3,1.7,2.6,3.4,3.7,5.2
	c0.6,0.9,1.2,1.8,1.7,2.8c0.2,0.4,0.5,0.8,0.7,1.2c0.2,0.3,0.3,0.6,0.5,0.9c0.3,0.5,0.2,0.4-0.1-0.4l0.7-2.7c0.4-0.4,0.3-0.4-0.2,0
	l-1.4,0.8l-1.9,1.1l-5.3,2.9l-10.1,5.6c-2.6,1.5-3.4,4.9-1.9,7.4c0.2,0.4,0.5,0.7,0.8,1c5,4.5,9.9,9,14.7,13.7c1,1,2,2,3,3
	c1.4,1.1,2.6,2.4,3.7,3.8c0.2,0.4,0.3-0.1-0.1,0.7c-0.7,1.7-1.8,3.3-2.6,4.9c-6,11.3-12.2,22.5-18.4,33.7
	c-12.9,23-26.1,45.9-39.5,68.6c-7.4,12.6-14.8,25.1-22.3,37.6c-3.6,6,5.7,11.4,9.3,5.4c28.2-47.1,56.1-94.5,81.8-143
	c1.9-3.5,3.5-6.9,2.1-10.9c-1.2-3.5-4.3-6.1-6.8-8.7c-5.6-5.6-11.5-11-17.4-16.3l-1.1,8.4l13.5-7.4c3.9-2.2,9.9-4.2,10.1-9.5
	c0.2-3.5-2.3-7-4.2-9.9c-2.1-3.1-4.3-6.1-6.7-9c-9.5-11.8-20.9-21.9-33.7-29.9C579.1,355.8,573.7,365.1,579.6,368.6L579.6,368.6z"/>
<path class="st2" d="M416.8,365.4c7.6,32.5,18.3,64.3,29.3,95.8c10.6,30.5,20.7,61.1,32,91.3c6.3,16.7,12.9,33.3,19.6,49.8
	c0.9,2.8,3.8,4.4,6.6,3.8c2.8-0.8,4.5-3.8,3.7-6.6c-11.8-29.4-23.3-58.8-33.5-88.8c-10.6-31.4-22-62.5-32.1-94
	c-5.7-17.8-11-35.8-15.3-54.1C425.6,355.8,415.3,358.7,416.8,365.4L416.8,365.4z"/>
<path class="st2" d="M419.3,359.4c-12.8,8-24.2,18.1-33.7,29.9c-2.3,2.8-4.5,5.7-6.5,8.7c-1.9,2.9-4.6,6.6-4.4,10.2
	c0.3,5.3,6.2,7.3,10.1,9.5l13.5,7.4l-1.1-8.4c-5.5,5-11,10-16.2,15.2c-2.7,2.3-5,4.9-7,7.7c-1.9,3.5-1.8,7.8,0.3,11.2
	c5.9,11.9,12.7,23.5,19.3,35c14.1,24.8,28.7,49.2,43.6,73.5c8.2,13.5,16.5,26.9,24.8,40.3c3.6,5.9,12.9,0.5,9.3-5.4
	c-28.2-45.4-56.3-90.9-81.8-137.9c-1.7-3.1-3.3-6.2-5-9.2c-0.4-0.6-0.8-1.3-1.1-2c-0.1-0.7-0.2,0.4,0.1-0.3c0.6-1.3,2.6-2.7,3.7-3.8
	c5.7-5.8,11.7-11.3,17.7-16.7c2.1-2.1,2.1-5.6-0.1-7.7c-0.3-0.3-0.6-0.6-1-0.8l-10.1-5.6l-4.8-2.7l-2.4-1.3
	c-0.4-0.2-2.1-1.6-1.7-0.8l0.7,2.7c0,0.9-0.3,0.7,0.2-0.2c0.2-0.4,0.4-0.8,0.7-1.2c0.5-0.9,1.1-1.8,1.7-2.7c1.1-1.8,2.4-3.5,3.7-5.2
	c9.4-11.8,20.5-21.9,33.1-30.1C430.6,365,425.2,355.7,419.3,359.4L419.3,359.4z"/>
<path class="st1" d="M547.2,428.5c11-12.9,20.7-27,28.8-41.9c2-3.7,3.8-7.4,5.6-11.1c1.1-1.9,2-4,2.8-6.1c0.7-2.7-1-5.1-2.2-7.3
	c-3.6-7.1-8.4-13.5-14.2-19c-2.2-2.1-5.7-2-7.7,0.2c-0.3,0.3-0.5,0.6-0.7,0.9c-9,12-24.4,21.5-38.2,28.4c-4.5,2.2-9.2,3.9-13.6,6.1
	c-4.7,2.3-7.4,6.7-4.1,11.5c3.5,5.1,8.7,9.2,12.8,13.7c7.6,8.3,15.9,16,23.1,24.6C541.7,430.6,545.1,430.6,547.2,428.5
	c2-2.1,2-5.5,0-7.6c-6.8-8.1-14.6-15.4-21.8-23.1c-3.1-3.3-6.2-6.7-9.4-9.9c-0.9-0.9-1.7-1.7-2.6-2.6c-0.3-0.3-1.1-1.5,0,0.1
	c-0.1-0.2-0.9-1.4-0.8-1.1v2.9l0.2-0.6l-1.4,2.4c-0.5,0.6,0.6-0.4,1-0.6c0.4-0.2,0.8-0.4,1.3-0.6c1.8-0.8,3.7-1.5,5.5-2.3
	c3.2-1.4,6.3-2.9,9.5-4.5c5.7-2.9,11.2-6.2,16.5-9.8c9-5.8,17.1-13.1,23.8-21.5l-8.4,1.1c5.9,5.8,10.7,12.5,14.2,20v-5.4
	c-9.1,20-20.9,38.7-35,55.6c-2,2.1-2,5.5,0,7.6C541.7,430.6,545.1,430.6,547.2,428.5z"/>
<path class="st1" d="M465.2,420.9c-14.1-16.9-25.9-35.6-35-55.6v5.4c3.5-7.4,8.3-14.2,14.2-20l-8.4-1.1c6.7,8.4,14.7,15.7,23.8,21.5
	c5.3,3.6,10.8,6.9,16.5,9.8c3,1.5,5.9,2.9,9,4.3c1.8,0.8,3.7,1.5,5.5,2.3c0.6,0.3,1.2,0.5,1.7,0.8c0.4,0.2,1.6,1.4,1,0.6l-1.4-2.4
	l0.2,0.6v-2.9c0.1-0.4-0.6,0.9-0.8,1.1c1.1-1.6,0.3-0.4,0-0.1c-0.9,0.9-1.7,1.7-2.6,2.6c-3.2,3.2-6.3,6.5-9.4,9.9
	c-7.2,7.8-14.9,15-21.8,23.1c-2,2.1-2,5.5,0,7.6c2.1,2.1,5.5,2.1,7.6,0c6.4-7.6,13.6-14.4,20.4-21.6c3.1-3.3,6.2-6.8,9.5-10
	c1.6-1.6,3.3-3.1,4.7-4.8c3.1-3.7,4.4-8.6-0.1-11.9c-3.7-2.7-8.5-4-12.7-5.9c-8.5-4-16.7-8.7-24.4-14.2c-6.5-4.5-12.4-9.8-17.4-15.9
	c-1.6-2.6-5-3.4-7.5-1.8c-0.3,0.2-0.6,0.4-0.9,0.7c-5.8,5.5-10.6,11.9-14.2,19c-1.1,2.1-2.6,4.2-2.3,6.6c0.6,2.2,1.5,4.4,2.7,6.4
	c1.9,3.9,3.8,7.8,5.8,11.6c8.1,14.9,17.8,29,28.8,41.9c2.1,2.1,5.5,2.1,7.6,0C467.3,426.4,467.3,423,465.2,420.9z"/>
<path class="st2" d="M678.5,794.6c0-22.3-1.3-44.5-1.3-66.7c0-24.3-0.1-48.5,4.2-72.5c8.3-46.2,15.2-92.6,21.2-139.2
	c3.1-23.8,5.9-47.6,8.2-71.5c0-3-2.4-5.4-5.4-5.4c-2.9,0.1-5.3,2.4-5.4,5.4c-4.4,44.1-10.1,88.2-16.7,132
	c-3.5,23.3-7.3,46.5-11.3,69.6c-2.3,12-3.9,24.2-4.9,36.4c-0.8,12-0.8,24.1-0.8,36.1c0.1,25.3,1.3,50.6,1.4,75.8
	C667.7,801.5,678.5,801.6,678.5,794.6L678.5,794.6z"/>
<path class="st2" d="M291.2,448.8c4.4,44.3,10.2,88.5,16.8,132.5c3.5,23.2,7.3,46.3,11.4,69.4c2.2,11.6,3.7,23.3,4.5,35
	c0.7,11.7,0.6,23.4,0.6,35.1c-0.1,24.6-1.3,49.1-1.4,73.7c0,6.9,10.7,6.9,10.7,0c0-21.4,1.3-42.7,1.3-64c0-23.9,0.4-47.7-3.4-71.4
	c-3.7-23.2-8.1-46.2-11.6-69.4c-3.5-22.9-6.8-45.8-9.8-68.7c-3.1-24-6-48.1-8.4-72.2c-0.1-2.9-2.4-5.3-5.4-5.4
	C293.6,443.5,291.3,445.9,291.2,448.8L291.2,448.8z"/>
<path class="st1" d="M610.9,391.9c32.1,13.4,63.9,27.3,95.6,41.6c6.5,2.6,12.3,6.7,16.8,12c4.2,5.6,7.3,12,9.1,18.8
	c2.3,8,4.2,16.2,5.9,24.3c5.1,24.4,8.8,49,12.2,73.6c4.6,32.9,8.4,65.9,11.8,98.9c4,39,7.5,78.1,10.4,117.3
	c0.4,5.2,0.8,10.3,1.1,15.5c0.1,2.9,2.4,5.3,5.4,5.4c3,0,5.4-2.4,5.4-5.4c-2.9-40.3-6.4-80.6-10.4-120.8
	c-3.5-34.9-7.4-69.7-12.1-104.5c-3.5-25.9-7.3-51.9-12.4-77.6c-4.3-21.6-8.3-47.3-27.3-61.1c-6.7-4.9-14.8-7.5-22.2-10.8
	c-7.8-3.5-15.4-7.3-23.2-10.7c-17.1-7.6-34.3-14.9-51.6-22.1l-11.7-4.9c-2.9-0.8-5.8,0.9-6.6,3.8C606.4,388.1,608.1,391,610.9,391.9
	L610.9,391.9z"/>
<path class="st2" d="M540.4,634c0.6,0.5,1.1,1.2,1.7,1.7c-0.5-0.7-0.7-0.9-0.3-0.4c0.1,0.1,0.2,0.3,0.3,0.4c0.2,0.3,0.3,0.5,0.5,0.8
	c0.2,0.4,0.5,1.4-0.1-0.2c0.1,0.3,0.2,0.6,0.3,0.9c0.2,0.6,0.3,1.2,0.4,1.9l-0.2-1.4c0.1,1.1,0.1,2.3,0,3.4l0.2-1.4
	c-0.1,0.6-0.2,1.3-0.4,1.9c-0.1,0.3-0.2,0.5-0.2,0.8c-0.1,0.3-0.5,1.3-0.1,0.3c0.4-1,0,0-0.1,0.2c-0.1,0.2-0.2,0.5-0.4,0.7
	c-0.1,0.2-0.3,0.4-0.4,0.6c-0.6,0.9,0.9-1.1,0.3-0.4c-0.2,0.2-1.1,1.5-1.4,1.4c0,0,1.2-0.9,0.4-0.3c-0.1,0.1-0.3,0.2-0.4,0.3
	c-0.3,0.2-0.6,0.4-0.9,0.5c-0.1,0.1-0.3,0.1-0.4,0.2c-0.8,0.4,1.1-0.4,0.5-0.2c-0.3,0.1-0.6,0.2-0.9,0.3c-0.7,0.2-1.5,0.4-2.2,0.5
	l1.4-0.2c-1.3,0.2-2.7,0.2-4.1,0l1.4,0.2c-1.1-0.2-2.1-0.4-3.1-0.8c1.6,0.5,0.9,0.4,0.5,0.2c-0.3-0.1-0.5-0.3-0.8-0.4
	c-0.2-0.1-0.4-0.2-0.5-0.4c-0.7-0.5,1.1,1,0.3,0.2c-0.5-0.4-1-0.9-1.4-1.4c-0.6-0.7,0.8,1.1,0,0c-0.2-0.2-0.3-0.4-0.4-0.7
	c-0.1-0.2-0.2-0.5-0.4-0.7c-0.4-0.8,0.5,1.4,0.1,0.1c-0.2-0.5-0.3-1.1-0.4-1.7l0.2,1.4c-0.1-1-0.1-1.9,0-2.9l-0.2,1.4
	c0.1-0.7,0.2-1.4,0.4-2c0.1-0.3,0.2-0.6,0.3-0.9c0.4-1-0.5,1.1-0.1,0.1c0.3-0.6,0.7-1.3,1-1.9c0.2-0.3,0.4-0.6,0.6-0.8
	c0.1-0.1,0.2-0.3,0.3-0.4c-0.2,0.1-0.9,1.1-0.3,0.4c0.2-0.2,0.4-0.4,0.6-0.7s1-0.9,0.2-0.3c-0.8,0.6,0.1,0,0.3-0.2
	c0.3-0.2,0.6-0.4,0.9-0.5c0.1,0,0.4-0.2,0.4-0.2c0,0-1.3,0.5-0.6,0.3c0.3-0.1,0.6-0.2,0.9-0.3c0.7-0.2,1.5-0.4,2.2-0.5L535,633
	c1.2-0.1,2.4-0.1,3.5,0l-1.4-0.2c0.5,0.1,1,0.2,1.5,0.3c0.2,0.1,0.4,0.1,0.6,0.2c0.2,0.1,1.1,0.4,0.2,0c-0.9-0.4-0.2-0.1,0,0
	c0.2,0.1,0.4,0.2,0.7,0.4s0.4,0.3,0.6,0.4C541.5,634.6,539.7,633.3,540.4,634c1,0.9,2.4,1.5,3.8,1.5c3,0,5.4-2.4,5.4-5.4
	c0-1.4-0.6-2.8-1.6-3.8c-3.1-2.6-6.9-4.1-11-4.2c-3.6-0.1-7.1,0.9-10.1,2.8c-6.3,4.3-9.5,11.9-8.1,19.4c1,4,3.4,7.5,6.8,9.7
	c8.7,5.5,20.3,3,25.9-5.8c0,0,0.1-0.1,0.1-0.1c1.6-3.1,2.4-6.6,2.2-10.1c-0.4-4.5-2.4-8.7-5.8-11.8c-2.1-2.1-5.5-2.1-7.6,0
	C538.3,628.4,538.3,631.8,540.4,634L540.4,634z"/>
<path class="st1" d="M142.8,543.1c-2.2-7.2-3.7-14.6-6.1-21.7l-3.8,6.6c19.5-5.4,38.9-10.9,58.1-17.2c5.6-1.8,11.2-3.8,16.6-6
	l-6.6-3.8c2.7,6.9,4.9,13.9,7.5,20.8c0.9,2.8,3.8,4.5,6.6,3.8c2.8-0.8,4.5-3.8,3.8-6.6c-2.6-6.9-4.8-14-7.5-20.8
	c-1-2.4-3.7-4.9-6.6-3.8c-21.1,8.6-43.4,14.4-65.3,20.6c-3.1,0.9-6.3,1.8-9.4,2.6c-2.8,0.8-4.5,3.8-3.8,6.6
	c2.4,7.1,3.9,14.5,6.1,21.7C134.4,552.5,144.8,549.7,142.8,543.1L142.8,543.1z"/>
<path class="st1" d="M260.1,624.3c-11.9-35.4-22.5-71.2-33.1-107c-0.8-2.8-3.8-4.5-6.6-3.8c-15,6.1-30.3,11.6-45.8,16.4
	c-14.5,4.5-29.8,9-44.6,10.8c-3,0.1-5.4,2.6-5.3,5.6c0,0.4,0.1,0.8,0.2,1.2c5.4,25.9,10.4,51.9,16.6,77.6
	c5.7,23.6,11.8,47.8,22,69.9c8.4,18.3,21.3,35.5,39.9,44.2c22.3,10.5,48.3,10.2,70.4-0.8c10.8-5.4,20.2-13.5,29-21.7
	c8.7-8.1,16.8-16.8,25-25.3c4.8-5-2.8-12.6-7.6-7.6c-13.9,14.3-27.4,30.1-44.2,41c-18.9,12.3-42.5,14.7-63.5,6.6
	c-17.7-6.6-29.8-21.7-37.9-38.2c-4.3-9-7.9-18.4-10.8-28c-3.9-12.3-7.3-24.8-10.5-37.3c-6.9-27.6-12.3-55.5-18-83.3l-5.2,6.8
	c15.8-2.2,31.4-5.9,46.6-10.9c15.8-4.9,31.3-10.5,46.6-16.7l-6.6-3.8c10.6,35.8,21.2,71.6,33.1,107
	C251.9,633.7,262.3,630.9,260.1,624.3L260.1,624.3z"/>
</svg>
