<?xml version="1.0" encoding="utf-8"?>
<!-- Generator: Adobe Illustrator 28.0.0, SVG Export Plug-In . SVG Version: 6.00 Build 0)  -->
<svg version="1.1" id="Layer_1" xmlns="http://www.w3.org/2000/svg" xmlns:xlink="http://www.w3.org/1999/xlink" x="0px" y="0px"
	 viewBox="0 0 800 800" style="enable-background:new 0 0 800 800;" xml:space="preserve">
<style type="text/css">
	.st0{fill:#0B9622;}
</style>
<g>
	<g>
		<g>
			<path class="st0" d="M692.5,487.8c-6.4-3.7-14.5-1.6-18.2,4.8L521.4,753.3c-11,19.1-35.5,25.7-54.1,15L437.5,749
				c-6.2-4-14.4-2.3-18.4,3.9c-4,6.2-2.2,14.4,3.9,18.4l30.4,19.7c10.5,6.1,21.9,8.9,33.2,8.9c23.1,0,45.5-11.9,57.8-33.3
				l152.8-260.7C701,499.7,698.9,491.5,692.5,487.8z"/>
			<path class="st0" d="M732.8,0H519.4c-41.3,0-72,13.1-102.8,43.9c-5.2,5.2-5.2,13.6,0,18.9c5.2,5.2,13.6,5.2,18.9,0
				c26-26,49.5-36.1,83.9-36.1h213.4c22.1,0,40,18,40,40v213.4c0,34.4-10.1,58-36.1,83.9L340.6,760.7c-15.1,15.1-41.5,15.1-56.6,0
				L38.9,515.5c-7.6-7.6-11.7-17.6-11.7-28.3c0-10.7,4.2-20.7,11.7-28.3l358-357.5c5.5,1.4,11,2.8,16.8,4.3
				c54.3,14.5,97.1,29.6,129,43c-6.3,11.6-9.8,24.7-9.8,38c0,44.1,35.9,80,80,80s80-35.9,80-80s-35.9-80-80-80
				c-7.4,0-13.3,6-13.3,13.3s6,13.3,13.3,13.3c29.4,0,53.3,23.9,53.3,53.3c0,29.4-23.9,53.3-53.3,53.3c-29.4,0-53.3-23.9-53.3-53.3
				c0-9.6,2.6-19,7.5-27.1c23.1,11.1,37.5,20.4,43.3,26.3c-2.4,0.7-6.2,1.5-11.9,2c-7.3,0.7-12.8,7.1-12.1,14.5
				c0.6,6.9,6.4,12.2,13.3,12.2c0.4,0,0.8,0,1.2-0.1c8.2-0.7,33.2-2.9,38-20.8C651.7,144.6,459.2,90.3,420.5,80
				c-59.2-15.9-116.1-26.7-160.2-30.6c-54.2-4.7-80.5,1.4-85.5,20c-2.4,8.9-8.7,32.5,99.4,75.2c6.8,2.7,14.6-0.7,17.3-7.5
				c2.7-6.9-0.7-14.6-7.5-17.3c-52.2-20.6-73.9-35.7-80.8-42.8c16.4-4.8,72.7-3.4,163.3,17.2L20,440C7.4,452.6,0.5,469.4,0.5,487.2
				c0,17.8,6.9,34.6,19.5,47.2l245.2,245.2c12.6,12.6,29.3,19.5,47.1,19.5c17.8,0,34.6-6.9,47.2-19.5l396.1-396.6
				c30.8-30.8,43.9-61.5,43.9-102.8V66.7C799.5,29.9,769.6,0,732.8,0z"/>
			<path class="st0" d="M436.7,350.7c-5.2-5.2-13.6-5.2-18.9,0l-7.2,7.2c-10.6-7-23.1-11.1-36.7-11.1c-36.8,0-66.7,29.9-66.7,66.7
				c0,19.9,8.2,35.6,15.4,47.1c6.7,10.7,11.3,26,11.3,33c0,22.1-18,40-40,40c-22.1,0-40-18-40-40c0-8.1,2.4-15.9,7-22.6
				c4.2-6.1,2.6-14.4-3.5-18.5c-6.1-4.1-14.4-2.6-18.5,3.5c-7.6,11.1-11.6,24.1-11.6,37.6c0,13.6,4.1,26.2,11.1,36.7l-7.2,7.2
				c-5.2,5.2-5.2,13.6,0,18.9c2.6,2.6,6,3.9,9.4,3.9c3.4,0,6.8-1.3,9.4-3.9l7.2-7.2c10.6,7,23.1,11.1,36.7,11.1
				c36.8,0,66.7-29.9,66.7-66.7c0-13-6.5-32.8-15.4-47.1c-7.9-12.7-11.3-22.6-11.3-33c0-22.1,18-40,40-40c10.7,0,20.4,4.3,27.5,11.1
				c0.2,0.2,0.3,0.6,0.5,0.8c0.2,0.2,0.6,0.3,0.8,0.5c6.9,7.2,11.1,16.8,11.1,27.5s-4.2,20.8-11.8,28.3c-5.2,5.2-5.2,13.6,0,18.9
				c5.2,5.2,13.6,5.2,18.9,0c12.6-12.6,19.6-29.4,19.6-47.2c0-13.6-4.1-26.2-11.1-36.7l7.2-7.2C441.9,364.3,441.9,355.9,436.7,350.7
				z"/>
		</g>
	</g>
</g>
</svg>
