<?xml version="1.0" encoding="utf-8"?>
<!-- Generator: Adobe Illustrator 28.0.0, SVG Export Plug-In . SVG Version: 6.00 Build 0)  -->
<svg version="1.1" id="Layer_1" xmlns="http://www.w3.org/2000/svg" xmlns:xlink="http://www.w3.org/1999/xlink" x="0px" y="0px"
	 viewBox="0 0 800 800" style="enable-background:new 0 0 800 800;" xml:space="preserve">
<style type="text/css">
	.st0{fill:#E6BB59;}
</style>
<g>
	<g>
		<path class="st0" d="M794.5,378.4L410.4,45.6c-6-5.2-14.9-5.2-20.9,0L5.5,378.4c-5,4.4-6.8,11.4-4.5,17.6s8.3,10.4,14.9,10.4h96.6
			v336c0,8.8,7.1,15.9,15.9,15.9h543.1c8.8,0,15.9-7.1,15.9-15.9v-336h96.6c6.7,0,12.6-4.1,14.9-10.4
			C801.3,389.7,799.5,382.7,794.5,378.4z M671.6,374.5c-8.8,0-15.9,7.1-15.9,15.9v336H144.4v-336c0-8.8-7.1-15.9-15.9-15.9H58.7
			L400,78.8l341.3,295.7H671.6z"/>
	</g>
</g>
<g>
	<g>
		<path class="st0" d="M647.8,326.3l-104.2-91.6c-6.6-5.8-16.7-5.2-22.5,1.4c-5.8,6.6-5.2,16.7,1.4,22.5l104.2,91.6
			c3,2.7,6.8,4,10.5,4c4.4,0,8.8-1.8,12-5.4C655.1,342.2,654.4,332.1,647.8,326.3z"/>
	</g>
</g>
<g>
	<g>
		<path class="st0" d="M506.7,202.3l-4.8-4.2c-6.6-5.8-16.7-5.2-22.5,1.4c-5.8,6.6-5.2,16.7,1.4,22.5l4.8,4.2c3,2.7,6.8,4,10.5,4
			c4.4,0,8.8-1.8,12-5.4C514,218.1,513.3,208.1,506.7,202.3z"/>
	</g>
</g>
<g>
	<g>
		<path class="st0" d="M588.2,589.2L422,423.1c7.6-33.8-2.4-69.1-27.3-93.9c-19.2-19.2-44.6-29.7-71.7-29.7
			c-27.1,0-52.6,10.6-71.7,29.7c-39.5,39.5-39.5,103.9,0,143.4c24.9,24.9,60.1,34.9,93.9,27.3l11.1,11.1c3.2,3.2,7.5,4.8,12,4.6
			l1.2,5.1c0.7,2.9,2.1,5.6,4.3,7.7l15.6,15.6c3,3,7,4.7,11.3,4.7h4.6v4.6c0,4.2,1.7,8.3,4.7,11.3l12.2,12.2c3,3,7,4.7,11.3,4.7
			h20.2v20.2c0,4.2,1.7,8.3,4.7,11.3l24.9,24.9c3,3,7,4.7,11.3,4.7h9.2v9.2c0,4.2,1.7,8.3,4.7,11.3l22.5,22.5c3,3,7,4.7,11.3,4.7
			s8.3-1.7,11.3-4.7l34.8-34.8c3-3,4.7-7,4.7-11.3v-38.7C592.8,596.3,591.1,592.2,588.2,589.2z M561,632.7L542,651.6l-6.6-6.6h0
			v-18.5c0-8.8-7.1-15.9-15.9-15.9H501l-15.6-15.6v-29.5c0-8.8-7.1-15.9-15.9-15.9h-29.5l-2.8-2.8v-14c0-8.8-7.1-15.9-15.9-15.9h-14
			l-7.7-7.7l-5.5-23.9c-1.3-5.6-5.6-10.1-11.1-11.7c-5.4-1.6-11.2-0.1-15.3,3.7l-6.4-6.4c-4.3-4.3-10.6-5.8-16.3-3.9
			c-25.1,8.3-52.4,1.9-71.1-16.8c-27.1-27.1-27.1-71.2,0-98.4c13.1-13.1,30.6-20.4,49.2-20.4c18.6,0,36,7.2,49.2,20.4
			c18.7,18.7,25.2,46,16.8,71.1c-1.9,5.7-0.4,12,3.9,16.3L561,607.1V632.7L561,632.7z"/>
	</g>
</g>
<g>
	<g>
		<path class="st0" d="M326,380.8l-8.8-8.8c-6.2-6.2-16.3-6.2-22.5,0c-6.2,6.2-6.2,16.3,0,22.5l8.8,8.8c3.1,3.1,7.2,4.7,11.3,4.7
			s8.2-1.6,11.3-4.7C332.2,397.1,332.2,387,326,380.8z"/>
	</g>
</g>
</svg>
