<?xml version="1.0" encoding="utf-8"?>
<!-- Generator: Adobe Illustrator 28.0.0, SVG Export Plug-In . SVG Version: 6.00 Build 0)  -->
<svg version="1.1" id="Capa_1" xmlns="http://www.w3.org/2000/svg" xmlns:xlink="http://www.w3.org/1999/xlink" x="0px" y="0px"
	 viewBox="0 0 800 800" style="enable-background:new 0 0 800 800;" xml:space="preserve">
<style type="text/css">
	.st0{fill:#E6BB59;}
</style>
<g>
	<path class="st0" d="M633.9,514c-46,0-87,21.9-113.3,55.8L300.8,447c5.1-14.8,8-30.7,8-47.2c0-16.6-2.8-32.4-8.1-47.3l219.6-122.6
		C546.3,264,587.5,286,633.7,286c78.7,0,143-64.1,143-143S712.6,0,633.7,0s-143,64.1-143,143c0,16.6,2.8,32.6,8.1,47.3L279.4,313
		c-26.1-34.2-67.3-56.1-113.5-56.1c-78.7,0-143,64.1-143,143s64.3,143,143.2,143c46.2,0,87.4-22.1,113.6-56.3l219.6,122.8
		c-5.3,15-8.3,31.1-8.3,47.7c0,78.7,64.1,143,143,143s143-64.1,143-143S712.8,514,633.9,514z M633.9,45c54.2,0,98.2,44,98.2,98.2
		s-44,98.2-98.2,98.2s-98.2-44-98.2-98.2S579.9,45,633.9,45z M166.1,498c-54.2,0-98.2-44-98.2-98.2s44-98.2,98.2-98.2
		s98.2,44,98.2,98.2S220.1,498,166.1,498z M633.9,755c-54.2,0-98.2-44-98.2-98.2s44-98.2,98.2-98.2s98.2,44,98.2,98.2
		S688,755,633.9,755z"/>
</g>
</svg>
